solid Base_wServos
facet normal -0.9999999999999911 -8.976128788966177e-08 9.782830009496483e-08
  outer loop
    vertex -25.000003713758563 -51.30001081473726 37.00000371142598
    vertex -25.000005678048737 -84.99999112685859 -14.000001427193371
    vertex -25.00000068880449 -84.99999917191315 36.99999830552843
  endloop
endfacet
facet normal -0.9999999999999911 -8.976128788966177e-08 9.782830009496483e-08
  outer loop
    vertex -25.000005678048737 -84.99999112685859 -14.000001427193371
    vertex -25.000003713758563 -51.30001081473726 37.00000371142598
    vertex -25.00000870300232 -51.30000276968261 -13.999996021295793
  endloop
endfacet
facet normal -0.4999999221138827 -0.8660254487519987 -1.0201600896903815e-07
  outer loop
    vertex -56.927095562743816 3.999375722240769 37.000001850704415
    vertex -86.11214826617979 20.84937626489476 -13.999991677302246
    vertex -56.92710003653779 3.999384312880195 -13.999997133896615
  endloop
endfacet
facet normal -0.4999999221138827 -0.8660254487519987 -1.0201600896903815e-07
  outer loop
    vertex -86.11214826617979 20.84937626489476 -13.999991677302246
    vertex -56.927095562743816 3.999375722240769 37.000001850704415
    vertex -86.11214379238622 20.849367674254115 37.000007307298674
  endloop
endfacet
facet normal 0.8660253598937143 -0.5000000760209456 -1.06911013204303e-07
  outer loop
    vertex 49.07476808805639 -84.99999706520757 36.99999144712029
    vertex 98.1495488862125 -1.7599264784459967e-06 42.49999144711934
    vertex 49.07476859728858 -84.99999735921283 42.49999144712035
  endloop
endfacet
facet normal 0.8660253598937143 -0.5000000760209456 -1.06911013204303e-07
  outer loop
    vertex 98.1495488862125 -1.7599264784459967e-06 42.49999144711934
    vertex 49.07476808805639 -84.99999706520757 36.99999144712029
    vertex 98.1495483769794 -1.4659214759171676e-06 36.99999144711947
  endloop
endfacet
facet normal 0.5000000782272987 -0.8660253586198602 -1.9460356687737256e-07
  outer loop
    vertex 86.11216974701962 20.84935816458511 36.99999136145417
    vertex 56.92711623572792 3.9993676086649033 -14.000007590199788
    vertex 86.11216477687674 20.849366755223073 -14.00000762314779
  endloop
endfacet
facet normal 0.5000000782272987 -0.8660253586198602 -1.9460356687737256e-07
  outer loop
    vertex 56.92711623572792 3.9993676086649033 -14.000007590199788
    vertex 86.11216974701962 20.84935816458511 36.99999136145417
    vertex 56.9271212058704 3.9993590180277234 36.99999139440202
  endloop
endfacet
facet normal 0.8660254282488842 0.49999995762633376 -3.560078100925847e-08
  outer loop
    vertex 61.11216073971159 64.15063422275777 -13.999999058789518
    vertex 61.11216564084985 64.15062598310777 37.00000062021875
    vertex 86.11216477687674 20.849366755223073 -14.00000762314779
  endloop
endfacet
facet normal 0.8660254282488842 0.49999995762633376 -3.560078100925847e-08
  outer loop
    vertex 98.1495483769794 -1.4659214759171676e-06 36.99999144711947
    vertex 49.07478752012648 84.99999515542056 42.50000053455472
    vertex 98.1495488862125 -1.7599264784459967e-06 42.49999144711934
  endloop
endfacet
facet normal 0.8660254282488842 0.49999995762633376 -3.560078100925847e-08
  outer loop
    vertex 49.07478752012648 84.99999515542056 42.50000053455472
    vertex 98.1495483769794 -1.4659214759171676e-06 36.99999144711947
    vertex 86.11216974701962 20.84935816458511 36.99999136145417
  endloop
endfacet
facet normal 0.8660254282488842 0.49999995762633376 -3.560078100925847e-08
  outer loop
    vertex 49.07478752012648 84.99999515542056 42.50000053455472
    vertex 86.11216974701962 20.84935816458511 36.99999136145417
    vertex 61.11216564084985 64.15062598310777 37.00000062021875
  endloop
endfacet
facet normal 0.8660254282488842 0.49999995762633376 -3.560078100925847e-08
  outer loop
    vertex 61.11216564084985 64.15062598310777 37.00000062021875
    vertex 86.11216974701962 20.84935816458511 36.99999136145417
    vertex 86.11216477687674 20.849366755223073 -14.00000762314779
  endloop
endfacet
facet normal 0.8660254282488842 0.49999995762633376 -3.560078100925847e-08
  outer loop
    vertex 49.07478752012648 84.99999515542056 42.50000053455472
    vertex 61.11216564084985 64.15062598310777 37.00000062021875
    vertex 49.07478701089264 84.99999544942517 37.00000053455484
  endloop
endfacet
facet normal -0.8660253782398564 0.5000000442444995 1.1081249878638656e-07
  outer loop
    vertex -49.07475813488293 85.00000339968479 42.50000962199145
    vertex -98.14953893304143 8.0944024879418e-06 37.0000096219923
    vertex -98.14953842380638 7.800398231999097e-06 42.50000962199222
  endloop
endfacet
facet normal -0.8660253782398564 0.5000000442444995 1.1081249878638656e-07
  outer loop
    vertex -98.14953893304143 8.0944024879418e-06 37.0000096219923
    vertex -49.07475813488293 85.00000339968479 42.50000962199145
    vertex -86.11214379238622 20.849367674254115 37.000007307298674
  endloop
endfacet
facet normal -0.8660253782398564 0.5000000442444995 1.1081249878638656e-07
  outer loop
    vertex -86.11214379238622 20.849367674254115 37.000007307298674
    vertex -49.07475813488293 85.00000339968479 42.50000962199145
    vertex -61.11214789855537 64.15064023417456 37.00001193668313
  endloop
endfacet
facet normal -0.8660253782398564 0.5000000442444995 1.1081249878638656e-07
  outer loop
    vertex -86.11214379238622 20.849367674254115 37.000007307298674
    vertex -61.11214789855537 64.15064023417456 37.00001193668313
    vertex -86.11214826617979 20.84937626489476 -13.999991677302246
  endloop
endfacet
facet normal -0.8660253782398564 0.5000000442444995 1.1081249878638656e-07
  outer loop
    vertex -61.11214789855537 64.15064023417456 37.00001193668313
    vertex -49.07475813488293 85.00000339968479 42.50000962199145
    vertex -49.07475864411528 85.00000369369022 37.00000962199153
  endloop
endfacet
facet normal -0.8660253782398564 0.5000000442444995 1.1081249878638656e-07
  outer loop
    vertex -61.1121524069592 64.15064851549533 -13.999987796037768
    vertex -86.11214826617979 20.84937626489476 -13.999991677302246
    vertex -61.11214789855537 64.15064023417456 37.00001193668313
  endloop
endfacet
facet normal -4.7454306833130874e-08 -0.9999999999999938 -1.0114823410438327e-07
  outer loop
    vertex 49.07476859728858 -84.99999735921283 42.49999144712035
    vertex 24.99999931119529 -84.99999443051587 36.99999367614685
    vertex 49.07476808805639 -84.99999706520757 36.99999144712029
  endloop
endfacet
facet normal -4.7454306833130874e-08 -0.9999999999999938 -1.0114823410438327e-07
  outer loop
    vertex 24.99999931119529 -84.99999443051587 36.99999367614685
    vertex 49.07476859728858 -84.99999735921283 42.49999144712035
    vertex -25.00000068880449 -84.99999917191315 36.99999830552843
  endloop
endfacet
facet normal -4.7454306833130874e-08 -0.9999999999999938 -1.0114823410438327e-07
  outer loop
    vertex -25.00000068880449 -84.99999917191315 36.99999830552843
    vertex 49.07476859728858 -84.99999735921283 42.49999144712035
    vertex -49.07477756695456 -84.99998882094377 37.00000053455703
  endloop
endfacet
facet normal -4.7454306833130874e-08 -0.9999999999999938 -1.0114823410438327e-07
  outer loop
    vertex -49.07477756695456 -84.99998882094377 37.00000053455703
    vertex 49.07476859728858 -84.99999735921283 42.49999144712035
    vertex -49.074777057720496 -84.99998911494774 42.500000534556996
  endloop
endfacet
facet normal -4.7454306833130874e-08 -0.9999999999999938 -1.0114823410438327e-07
  outer loop
    vertex 24.99999931119529 -84.99999443051587 36.99999367614685
    vertex -25.000005678048737 -84.99999112685859 -14.000001427193371
    vertex 24.999994767409913 -84.99998638546212 -14.000006056574389
  endloop
endfacet
facet normal -4.7454306833130874e-08 -0.9999999999999938 -1.0114823410438327e-07
  outer loop
    vertex -25.000005678048737 -84.99999112685859 -14.000001427193371
    vertex 24.99999931119529 -84.99999443051587 36.99999367614685
    vertex -25.00000068880449 -84.99999917191315 36.99999830552843
  endloop
endfacet
facet normal -0.5000000782272844 0.8660253586198698 1.8796698955654789e-07
  outer loop
    vertex 31.927112198562025 47.30063507620157 -13.999999025841879
    vertex 61.11216564084985 64.15062598310777 37.00000062021875
    vertex 61.11216073971159 64.15063422275777 -13.999999058789518
  endloop
endfacet
facet normal -0.5000000782272844 0.8660253586198698 1.8796698955654789e-07
  outer loop
    vertex 61.11216564084985 64.15062598310777 37.00000062021875
    vertex 31.927112198562025 47.30063507620157 -13.999999025841879
    vertex 31.927117099701633 47.30062683654994 37.00000065316651
  endloop
endfacet
facet normal -0.8660254467290216 -0.4999999256177902 5.3455556809659005e-08
  outer loop
    vertex -98.14953842380638 7.800398231999097e-06 42.50000962199222
    vertex -49.07477756695456 -84.99998882094377 37.00000053455703
    vertex -49.074777057720496 -84.99998911494774 42.500000534556996
  endloop
endfacet
facet normal -0.8660254467290216 -0.4999999256177902 5.3455556809659005e-08
  outer loop
    vertex -49.07477756695456 -84.99998882094377 37.00000053455703
    vertex -98.14953842380638 7.800398231999097e-06 42.50000962199222
    vertex -98.14953893304143 8.0944024879418e-06 37.0000096219923
  endloop
endfacet
facet normal 8.399694622265449e-08 0.9999999999999951 5.3455477386125046e-08
  outer loop
    vertex -49.07475864411528 85.00000369369022 37.00000962199153
    vertex 49.07478752012648 84.99999515542056 42.50000053455472
    vertex 49.07478701089264 84.99999544942517 37.00000053455484
  endloop
endfacet
facet normal 8.399694622265449e-08 0.9999999999999951 5.3455477386125046e-08
  outer loop
    vertex 49.07478752012648 84.99999515542056 42.50000053455472
    vertex -49.07475864411528 85.00000369369022 37.00000962199153
    vertex -49.07475813488293 85.00000339968479 42.50000962199145
  endloop
endfacet
facet normal -9.239778763558504e-08 3.629179143100301e-08 -0.9999999999999951
  outer loop
    vertex -49.07475864411528 85.00000369369022 37.00000962199153
    vertex -31.927099668912927 47.30064828216074 37.00000648008883
    vertex -61.11214789855537 64.15064023417456 37.00001193668313
  endloop
endfacet
facet normal -9.239778763558504e-08 3.629179143100301e-08 -0.9999999999999951
  outer loop
    vertex -31.927099668912927 47.30064828216074 37.00000648008883
    vertex -49.07475864411528 85.00000369369022 37.00000962199153
    vertex 49.07478701089264 84.99999544942517 37.00000053455484
  endloop
endfacet
facet normal -9.239778763558504e-08 3.629179143100301e-08 -0.9999999999999951
  outer loop
    vertex -31.927099668912927 47.30064828216074 37.00000648008883
    vertex 49.07478701089264 84.99999544942517 37.00000053455484
    vertex 31.927117099701633 47.30062683654994 37.00000065316651
  endloop
endfacet
facet normal -9.239778763558504e-08 3.629179143100301e-08 -0.9999999999999951
  outer loop
    vertex 31.927117099701633 47.30062683654994 37.00000065316651
    vertex 49.07478701089264 84.99999544942517 37.00000053455484
    vertex 61.11216564084985 64.15062598310777 37.00000062021875
  endloop
endfacet
facet normal -0.866025568361622 -0.4999997149438483 -1.2020555089084702e-09
  outer loop
    vertex -56.927095562743816 3.999375722240769 37.000001850704415
    vertex -25.00000870300232 -51.30000276968261 -13.999996021295793
    vertex -25.000003713758563 -51.30001081473726 37.00000371142598
  endloop
endfacet
facet normal -0.866025568361622 -0.4999997149438483 -1.2020555089084702e-09
  outer loop
    vertex -25.00000870300232 -51.30000276968261 -13.999996021295793
    vertex -56.927095562743816 3.999375722240769 37.000001850704415
    vertex -56.92710003653779 3.999384312880195 -13.999997133896615
  endloop
endfacet
facet normal 0.8660252598353945 -0.5000002493269494 -1.6232500176517573e-07
  outer loop
    vertex 24.999991742457414 -51.299998028285714 -14.00000065067682
    vertex 56.9271212058704 3.9993590180277234 36.99999139440202
    vertex 24.999996286240926 -51.30000607333972 36.999999082044496
  endloop
endfacet
facet normal 0.8660252598353945 -0.5000002493269494 -1.6232500176517573e-07
  outer loop
    vertex 56.9271212058704 3.9993590180277234 36.99999139440202
    vertex 24.999991742457414 -51.299998028285714 -14.00000065067682
    vertex 56.92711623572792 3.9993676086649033 -14.000007590199788
  endloop
endfacet
facet normal -8.708639375778507e-08 2.5224858024991386e-08 -0.999999999999996
  outer loop
    vertex -86.11214379238622 20.849367674254115 37.000007307298674
    vertex -49.07477756695456 -84.99998882094377 37.00000053455703
    vertex -98.14953893304143 8.0944024879418e-06 37.0000096219923
  endloop
endfacet
facet normal -8.708639375778507e-08 2.5224858024991386e-08 -0.999999999999996
  outer loop
    vertex -49.07477756695456 -84.99998882094377 37.00000053455703
    vertex -86.11214379238622 20.849367674254115 37.000007307298674
    vertex -56.927095562743816 3.999375722240769 37.000001850704415
  endloop
endfacet
facet normal -8.708639375778507e-08 2.5224858024991386e-08 -0.999999999999996
  outer loop
    vertex -49.07477756695456 -84.99998882094377 37.00000053455703
    vertex -56.927095562743816 3.999375722240769 37.000001850704415
    vertex -25.000003713758563 -51.30001081473726 37.00000371142598
  endloop
endfacet
facet normal -8.708639375778507e-08 2.5224858024991386e-08 -0.999999999999996
  outer loop
    vertex -49.07477756695456 -84.99998882094377 37.00000053455703
    vertex -25.000003713758563 -51.30001081473726 37.00000371142598
    vertex -25.00000068880449 -84.99999917191315 36.99999830552843
  endloop
endfacet
facet normal -9.893444416689444e-08 2.5932275850605837e-08 -0.9999999999999949
  outer loop
    vertex 56.9271212058704 3.9993590180277234 36.99999139440202
    vertex 24.99999931119529 -84.99999443051587 36.99999367614685
    vertex 24.999996286240926 -51.30000607333972 36.999999082044496
  endloop
endfacet
facet normal -9.893444416689444e-08 2.5932275850605837e-08 -0.9999999999999949
  outer loop
    vertex 24.99999931119529 -84.99999443051587 36.99999367614685
    vertex 56.9271212058704 3.9993590180277234 36.99999139440202
    vertex 49.07476808805639 -84.99999706520757 36.99999144712029
  endloop
endfacet
facet normal -9.893444416689444e-08 2.5932275850605837e-08 -0.9999999999999949
  outer loop
    vertex 49.07476808805639 -84.99999706520757 36.99999144712029
    vertex 56.9271212058704 3.9993590180277234 36.99999139440202
    vertex 98.1495483769794 -1.4659214759171676e-06 36.99999144711947
  endloop
endfacet
facet normal -9.893444416689444e-08 2.5932275850605837e-08 -0.9999999999999949
  outer loop
    vertex 98.1495483769794 -1.4659214759171676e-06 36.99999144711947
    vertex 56.9271212058704 3.9993590180277234 36.99999139440202
    vertex 86.11216974701962 20.84935816458511 36.99999136145417
  endloop
endfacet
facet normal 0.999999999999992 8.97612746898615e-08 -8.909379895598838e-08
  outer loop
    vertex 24.999994767409913 -84.99998638546212 -14.000006056574389
    vertex 24.999996286240926 -51.30000607333972 36.999999082044496
    vertex 24.99999931119529 -84.99999443051587 36.99999367614685
  endloop
endfacet
facet normal 0.999999999999992 8.97612746898615e-08 -8.909379895598838e-08
  outer loop
    vertex 24.999996286240926 -51.30000607333972 36.999999082044496
    vertex 24.999994767409913 -84.99998638546212 -14.000006056574389
    vertex 24.999991742457414 -51.299998028285714 -14.00000065067682
  endloop
endfacet
facet normal -9.221049637576053e-08 5.010759901846976e-08 -0.9999999999999947
  outer loop
    vertex -61.1121524069592 64.15064851549533 -13.999987796037768
    vertex -56.92710003653779 3.999384312880195 -13.999997133896615
    vertex -86.11214826617979 20.84937626489476 -13.999991677302246
  endloop
endfacet
facet normal -9.221049637576053e-08 5.010759901846976e-08 -0.9999999999999947
  outer loop
    vertex -56.92710003653779 3.999384312880195 -13.999997133896615
    vertex -61.1121524069592 64.15064851549533 -13.999987796037768
    vertex -31.927104177317197 47.30065656348111 -13.999993252631864
  endloop
endfacet
facet normal -9.221049637576053e-08 5.010759901846976e-08 -0.9999999999999947
  outer loop
    vertex -56.92710003653779 3.999384312880195 -13.999997133896615
    vertex -31.927104177317197 47.30065656348111 -13.999993252631864
    vertex -25.00000870300232 -51.30000276968261 -13.999996021295793
  endloop
endfacet
facet normal -9.221049637576053e-08 5.010759901846976e-08 -0.9999999999999947
  outer loop
    vertex -25.00000870300232 -51.30000276968261 -13.999996021295793
    vertex -31.927104177317197 47.30065656348111 -13.999993252631864
    vertex 31.927112198562025 47.30063507620157 -13.999999025841879
  endloop
endfacet
facet normal -9.221049637576053e-08 5.010759901846976e-08 -0.9999999999999947
  outer loop
    vertex -25.00000870300232 -51.30000276968261 -13.999996021295793
    vertex 31.927112198562025 47.30063507620157 -13.999999025841879
    vertex -25.000005678048737 -84.99999112685859 -14.000001427193371
  endloop
endfacet
facet normal -9.221049637576053e-08 5.010759901846976e-08 -0.9999999999999947
  outer loop
    vertex -25.000005678048737 -84.99999112685859 -14.000001427193371
    vertex 31.927112198562025 47.30063507620157 -13.999999025841879
    vertex 24.999991742457414 -51.299998028285714 -14.00000065067682
  endloop
endfacet
facet normal -9.221049637576053e-08 5.010759901846976e-08 -0.9999999999999947
  outer loop
    vertex 24.999991742457414 -51.299998028285714 -14.00000065067682
    vertex 31.927112198562025 47.30063507620157 -13.999999025841879
    vertex 56.92711623572792 3.9993676086649033 -14.000007590199788
  endloop
endfacet
facet normal -9.221049637576053e-08 5.010759901846976e-08 -0.9999999999999947
  outer loop
    vertex 56.92711623572792 3.9993676086649033 -14.000007590199788
    vertex 31.927112198562025 47.30063507620157 -13.999999025841879
    vertex 61.11216073971159 64.15063422275777 -13.999999058789518
  endloop
endfacet
facet normal -9.221049637576053e-08 5.010759901846976e-08 -0.9999999999999947
  outer loop
    vertex 56.92711623572792 3.9993676086649033 -14.000007590199788
    vertex 61.11216073971159 64.15063422275777 -13.999999058789518
    vertex 86.11216477687674 20.849366755223073 -14.00000762314779
  endloop
endfacet
facet normal -9.221049637576053e-08 5.010759901846976e-08 -0.9999999999999947
  outer loop
    vertex 24.999994767409913 -84.99998638546212 -14.000006056574389
    vertex -25.000005678048737 -84.99999112685859 -14.000001427193371
    vertex 24.999991742457414 -51.299998028285714 -14.00000065067682
  endloop
endfacet
facet normal 0.4999999221138834 0.866025448751999 9.642417087856327e-08
  outer loop
    vertex -61.1121524069592 64.15064851549533 -13.999987796037768
    vertex -31.927099668912927 47.30064828216074 37.00000648008883
    vertex -31.927104177317197 47.30065656348111 -13.999993252631864
  endloop
endfacet
facet normal 0.4999999221138834 0.866025448751999 9.642417087856327e-08
  outer loop
    vertex -31.927099668912927 47.30064828216074 37.00000648008883
    vertex -61.1121524069592 64.15064851549533 -13.999987796037768
    vertex -61.11214789855537 64.15064023417456 37.00001193668313
  endloop
endfacet
facet normal 3.36178991160813e-07 0.9999999999999305 1.6197028370334652e-07
  outer loop
    vertex -31.927104177317197 47.30065656348111 -13.999993252631864
    vertex 31.927117099701633 47.30062683654994 37.00000065316651
    vertex 31.927112198562025 47.30063507620157 -13.999999025841879
  endloop
endfacet
facet normal 3.36178991160813e-07 0.9999999999999305 1.6197028370334652e-07
  outer loop
    vertex 31.927117099701633 47.30062683654994 37.00000065316651
    vertex -31.927104177317197 47.30065656348111 -13.999993252631864
    vertex -31.927099668912927 47.30064828216074 37.00000648008883
  endloop
endfacet
facet normal 9.25876555953493e-08 -5.345550921510178e-08 0.9999999999999944
  outer loop
    vertex -49.074777057720496 -84.99998911494774 42.500000534556996
    vertex -49.07475813488293 85.00000339968479 42.50000962199145
    vertex -98.14953842380638 7.800398231999097e-06 42.50000962199222
  endloop
endfacet
facet normal 9.25876555953493e-08 -5.345550921510178e-08 0.9999999999999944
  outer loop
    vertex -49.07475813488293 85.00000339968479 42.50000962199145
    vertex -49.074777057720496 -84.99998911494774 42.500000534556996
    vertex 49.07476859728858 -84.99999735921283 42.49999144712035
  endloop
endfacet
facet normal 9.25876555953493e-08 -5.345550921510178e-08 0.9999999999999944
  outer loop
    vertex -49.07475813488293 85.00000339968479 42.50000962199145
    vertex 49.07476859728858 -84.99999735921283 42.49999144712035
    vertex 49.07478752012648 84.99999515542056 42.50000053455472
  endloop
endfacet
facet normal 9.25876555953493e-08 -5.345550921510178e-08 0.9999999999999944
  outer loop
    vertex 49.07478752012648 84.99999515542056 42.50000053455472
    vertex 49.07476859728858 -84.99999735921283 42.49999144712035
    vertex 98.1495488862125 -1.7599264784459967e-06 42.49999144711934
  endloop
endfacet
endsolid Base_wServos
