solid EE
facet normal -0.10452812154722699 -0.9945219312844782 -1.1601574049906671e-32
  outer loop
    vertex -14.433756622994238 -40.00000018488982 3.000000000000034
    vertex -17.552432431379 -39.67221523243107 -3.0
    vertex -14.433756622994238 -40.00000018488982 -3.0
  endloop
endfacet
facet normal -0.10452812154722699 -0.9945219312844782 -1.1601574049906671e-32
  outer loop
    vertex -17.552432431379 -39.67221523243107 -3.0
    vertex -14.433756622994238 -40.00000018488982 3.000000000000034
    vertex -17.552432431379 -39.67221523243107 3.000000000000034
  endloop
endfacet
facet normal -0.8090162591639245 -0.5877862642223022 -7.341037411565618e-33
  outer loop
    vertex -27.42413765137742 -32.50000023405114 3.000000000000034
    vertex -25.580925184270864 -35.03695787622397 -3.0
    vertex -25.580925184270864 -35.03695787622397 3.000000000000034
  endloop
endfacet
facet normal -0.8090162591639245 -0.5877862642223022 -7.341037411565618e-33
  outer loop
    vertex -25.580925184270864 -35.03695787622397 -3.0
    vertex -27.42413765137742 -32.50000023405114 3.000000000000034
    vertex -27.42413765137742 -32.50000023405114 -3.0
  endloop
endfacet
facet normal -0.669131069328459 -0.7431444086174324 -9.052133776510403e-33
  outer loop
    vertex -23.250533587241442 -37.13525452381017 3.000000000000034
    vertex -25.580925184270864 -35.03695787622397 -3.0
    vertex -23.250533587241442 -37.13525452381017 -3.0
  endloop
endfacet
facet normal -0.669131069328459 -0.7431444086174324 -9.052133776510403e-33
  outer loop
    vertex -25.580925184270864 -35.03695787622397 -3.0
    vertex -23.250533587241442 -37.13525452381017 3.000000000000034
    vertex -25.580925184270864 -35.03695787622397 3.000000000000034
  endloop
endfacet
facet normal -0.30901613394962024 -0.9510567958638593 -1.1230006431987564e-32
  outer loop
    vertex -17.552432431379 -39.67221523243107 3.000000000000034
    vertex -20.534810536139936 -38.70318482760431 -3.0
    vertex -17.552432431379 -39.67221523243107 -3.0
  endloop
endfacet
facet normal -0.30901613394962024 -0.9510567958638593 -1.1230006431987564e-32
  outer loop
    vertex -20.534810536139936 -38.70318482760431 -3.0
    vertex -17.552432431379 -39.67221523243107 3.000000000000034
    vertex -20.534810536139936 -38.70318482760431 3.000000000000034
  endloop
endfacet
facet normal -0.8660254037844096 -0.5000000000000504 -6.35989118780238e-33
  outer loop
    vertex -41.857895651377135 -7.499998033897723 3.000000000000034
    vertex -27.42413765137742 -32.50000023405114 -3.0
    vertex -27.42413765137742 -32.50000023405114 3.000000000000034
  endloop
endfacet
facet normal -0.8660254037844096 -0.5000000000000504 -6.35989118780238e-33
  outer loop
    vertex -27.42413765137742 -32.50000023405114 -3.0
    vertex -41.857895651377135 -7.499998033897723 3.000000000000034
    vertex -41.857895651377135 -7.499998033897723 -3.0
  endloop
endfacet
facet normal -0.5000016429018104 -0.8660244552525584 -1.0367618652667565e-32
  outer loop
    vertex -20.534810536139936 -38.70318482760431 3.000000000000034
    vertex -23.250533587241442 -37.13525452381017 -3.0
    vertex -20.534810536139936 -38.70318482760431 -3.0
  endloop
endfacet
facet normal -0.5000016429018104 -0.8660244552525584 -1.0367618652667565e-32
  outer loop
    vertex -23.250533587241442 -37.13525452381017 -3.0
    vertex -20.534810536139936 -38.70318482760431 3.000000000000034
    vertex -23.250533587241442 -37.13525452381017 3.000000000000034
  endloop
endfacet
facet normal -0.10452749271043424 0.9945219973774689 1.1466101326330682e-32
  outer loop
    vertex -17.55243091698101 39.672212144553846 3.000000000000034
    vertex -14.433753971616657 39.999995222788904 -3.0
    vertex -17.55243091698101 39.672212144553846 -3.0
  endloop
endfacet
facet normal -0.10452749271043424 0.9945219973774689 1.1466101326330682e-32
  outer loop
    vertex -14.433753971616657 39.999995222788904 -3.0
    vertex -17.55243091698101 39.672212144553846 3.000000000000034
    vertex -14.433753971616657 39.999995222788904 3.000000000000034
  endloop
endfacet
facet normal 0.10452863469927527 0.9945218773500689 1.1601573756945317e-32
  outer loop
    vertex 14.433756122994096 40.00000105091514 3.000000000000034
    vertex 17.552432931379116 39.67221436640569 -3.0
    vertex 14.433756122994096 40.00000105091514 -3.0
  endloop
endfacet
facet normal 0.10452863469927527 0.9945218773500689 1.1601573756945317e-32
  outer loop
    vertex 17.552432931379116 39.67221436640569 -3.0
    vertex 14.433756122994096 40.00000105091514 3.000000000000034
    vertex 17.552432931379116 39.67221436640569 3.000000000000034
  endloop
endfacet
facet normal -0.913546047742161 -0.4067353176879006 -5.309060935966922e-33
  outer loop
    vertex -43.133356184270596 -4.635255587877318 3.000000000000034
    vertex -41.857895651377135 -7.499998033897723 -3.0
    vertex -41.857895651377135 -7.499998033897723 3.000000000000034
  endloop
endfacet
facet normal -0.913546047742161 -0.4067353176879006 -5.309060935966922e-33
  outer loop
    vertex -41.857895651377135 -7.499998033897723 -3.0
    vertex -43.133356184270596 -4.635255587877318 3.000000000000034
    vertex -43.133356184270596 -4.635255587877318 -3.0
  endloop
endfacet
facet normal -0.3090172000159524 0.9510564494783161 1.0829500696488259e-32
  outer loop
    vertex -20.534804886720295 38.70317938731293 3.000000000000034
    vertex -17.55243091698101 39.672212144553846 -3.0
    vertex -20.534804886720295 38.70317938731293 -3.0
  endloop
endfacet
facet normal -0.3090172000159524 0.9510564494783161 1.0829500696488259e-32
  outer loop
    vertex -17.55243091698101 39.672212144553846 -3.0
    vertex -20.534804886720295 38.70317938731293 3.000000000000034
    vertex -17.55243091698101 39.672212144553846 3.000000000000034
  endloop
endfacet
facet normal -0.9781472351761193 0.20791341062402252 1.7773834757934956e-33
  outer loop
    vertex -43.133361931378836 4.635254366405988 3.000000000000034
    vertex -43.785348036139716 1.5679274256807296 -3.0
    vertex -43.785348036139716 1.5679274256807296 3.000000000000034
  endloop
endfacet
facet normal -0.9781472351761193 0.20791341062402252 1.7773834757934956e-33
  outer loop
    vertex -43.785348036139716 1.5679274256807296 -3.0
    vertex -43.133361931378836 4.635254366405988 3.000000000000034
    vertex -43.133361931378836 4.635254366405988 -3.0
  endloop
endfacet
facet normal -0.8660260870166261 0.49999881660527085 5.237462926661494e-33
  outer loop
    vertex -40.89101969978406 9.174683693326541 3.000000000000034
    vertex -41.857895122993874 7.5000010509155794 -3.0
    vertex -41.857895122993874 7.5000010509155794 3.000000000000034
  endloop
endfacet
facet normal -0.8660260870166261 0.49999881660527085 5.237462926661494e-33
  outer loop
    vertex -41.857895122993874 7.5000010509155794 -3.0
    vertex -40.89101969978406 9.174683693326541 3.000000000000034
    vertex -40.89101969978406 9.174683693326541 -3.0
  endloop
endfacet
facet normal -0.9781473482774953 -0.20791287852777288 -3.0451072139137725e-33
  outer loop
    vertex -43.78534158724138 -1.5679237441386438 3.000000000000034
    vertex -43.133356184270596 -4.635255587877318 -3.0
    vertex -43.133356184270596 -4.635255587877318 3.000000000000034
  endloop
endfacet
facet normal -0.9781473482774953 -0.20791287852777288 -3.0451072139137725e-33
  outer loop
    vertex -43.133356184270596 -4.635255587877318 -3.0
    vertex -43.78534158724138 -1.5679237441386438 3.000000000000034
    vertex -43.78534158724138 -1.5679237441386438 -3.0
  endloop
endfacet
facet normal -0.6691303471301603 0.7431450588878804 8.184913019037088e-33
  outer loop
    vertex -25.58093241314562 35.03695464455392 3.000000000000034
    vertex -23.250536711355522 37.13525088731305 -3.0
    vertex -25.58093241314562 35.03695464455392 -3.0
  endloop
endfacet
facet normal -0.6691303471301603 0.7431450588878804 8.184913019037088e-33
  outer loop
    vertex -23.250536711355522 37.13525088731305 -3.0
    vertex -25.58093241314562 35.03695464455392 3.000000000000034
    vertex -23.250536711355522 37.13525088731305 3.000000000000034
  endloop
endfacet
facet normal -0.49999999999994965 0.8660254037844679 9.719602509113836e-33
  outer loop
    vertex -23.250536711355522 37.13525088731305 3.000000000000034
    vertex -20.534804886720295 38.70317938731293 -3.0
    vertex -23.250536711355522 37.13525088731305 -3.0
  endloop
endfacet
facet normal -0.49999999999994965 0.8660254037844679 9.719602509113836e-33
  outer loop
    vertex -20.534804886720295 38.70317938731293 -3.0
    vertex -23.250536711355522 37.13525088731305 3.000000000000034
    vertex -20.534804886720295 38.70317938731293 3.000000000000034
  endloop
endfacet
facet normal -2.0189222500917314e-07 0.9999999999999797 1.1597368150648463e-32
  outer loop
    vertex -14.433753971616657 39.999995222788904 3.000000000000034
    vertex 14.433756122994096 40.00000105091514 -3.0
    vertex -14.433753971616657 39.999995222788904 -3.0
  endloop
endfacet
facet normal -2.0189222500917314e-07 0.9999999999999797 1.1597368150648463e-32
  outer loop
    vertex 14.433756122994096 40.00000105091514 -3.0
    vertex -14.433753971616657 39.999995222788904 3.000000000000034
    vertex 14.433756122994096 40.00000105091514 3.000000000000034
  endloop
endfacet
facet normal -0.9135455277541752 0.4067364856025896 4.1250714903584455e-33
  outer loop
    vertex -41.857895122993874 7.5000010509155794 3.000000000000034
    vertex -43.133361931378836 4.635254366405988 -3.0
    vertex -43.133361931378836 4.635254366405988 3.000000000000034
  endloop
endfacet
facet normal -0.9135455277541752 0.4067364856025896 4.1250714903584455e-33
  outer loop
    vertex -43.133361931378836 4.635254366405988 -3.0
    vertex -41.857895122993874 7.5000010509155794 3.000000000000034
    vertex -41.857895122993874 7.5000010509155794 -3.0
  endloop
endfacet
facet normal -0.8090179491907215 0.5877839380990597 6.292482070307815e-33
  outer loop
    vertex -25.58093241314562 35.03695464455392 3.000000000000034
    vertex -27.424135028383 32.49999522278896 -3.0
    vertex -27.424135028383 32.49999522278896 3.000000000000034
  endloop
endfacet
facet normal -0.8090179491907215 0.5877839380990597 6.292482070307815e-33
  outer loop
    vertex -27.424135028383 32.49999522278896 -3.0
    vertex -25.58093241314562 35.03695464455392 3.000000000000034
    vertex -25.58093241314562 35.03695464455392 -3.0
  endloop
endfacet
facet normal -0.9999999999978855 -2.0565065198194232e-06 -6.48049929446546e-34
  outer loop
    vertex -43.785348036139716 1.5679274256807296 3.000000000000034
    vertex -43.78534158724138 -1.5679237441386438 -3.0
    vertex -43.78534158724138 -1.5679237441386438 3.000000000000034
  endloop
endfacet
facet normal -0.9999999999978855 -2.0565065198194232e-06 -6.48049929446546e-34
  outer loop
    vertex -43.78534158724138 -1.5679237441386438 -3.0
    vertex -43.785348036139716 1.5679274256807296 3.000000000000034
    vertex -43.785348036139716 1.5679274256807296 -3.0
  endloop
endfacet
facet normal 0.10452684773481016 -0.9945220651662907 -1.1466102530463708e-32
  outer loop
    vertex 17.552427586854098 -39.672216376604624 3.000000000000034
    vertex 14.433754971616562 -39.999996954839595 -3.0
    vertex 17.552427586854098 -39.672216376604624 -3.0
  endloop
endfacet
facet normal 0.10452684773481016 -0.9945220651662907 -1.1466102530463708e-32
  outer loop
    vertex 14.433754971616562 -39.999996954839595 -3.0
    vertex 17.552427586854098 -39.672216376604624 3.000000000000034
    vertex 14.433754971616562 -39.999996954839595 3.000000000000034
  endloop
endfacet
facet normal 0.9135459663939839 0.4067355003995622 5.309063002225621e-33
  outer loop
    vertex 41.857894651377116 7.499999765948496 -3.0
    vertex 43.13335818427048 4.6352521237755155 3.000000000000034
    vertex 43.13335818427048 4.6352521237755155 -3.0
  endloop
endfacet
facet normal 0.9135459663939839 0.4067355003995622 5.309063002225621e-33
  outer loop
    vertex 43.13335818427048 4.6352521237755155 3.000000000000034
    vertex 41.857894651377116 7.499999765948496 -3.0
    vertex 41.857894651377116 7.499999765948496 3.000000000000034
  endloop
endfacet
facet normal 0.8090161416050731 0.5877864260277201 7.341039211901425e-33
  outer loop
    vertex 25.580927184270745 35.036954412122306 -3.0
    vertex 27.424136651377417 32.500001966102154 3.000000000000034
    vertex 27.424136651377417 32.500001966102154 -3.0
  endloop
endfacet
facet normal 0.8090161416050731 0.5877864260277201 7.341039211901425e-33
  outer loop
    vertex 27.424136651377417 32.500001966102154 3.000000000000034
    vertex 25.580927184270745 35.036954412122306 -3.0
    vertex 25.580927184270745 35.036954412122306 3.000000000000034
  endloop
endfacet
facet normal 0.8660253478383011 -0.5000000969015405 -5.237478253735712e-33
  outer loop
    vertex 41.85789462299393 -7.500000184890144 -3.0
    vertex 27.424136028382993 -32.49999695483976 3.000000000000034
    vertex 27.424136028382993 -32.49999695483976 -3.0
  endloop
endfacet
facet normal 0.8660253478383011 -0.5000000969015405 -5.237478253735712e-33
  outer loop
    vertex 27.424136028382993 -32.49999695483976 3.000000000000034
    vertex 41.85789462299393 -7.500000184890144 -3.0
    vertex 41.85789462299393 -7.500000184890144 3.000000000000034
  endloop
endfacet
facet normal 0.9781474712072669 0.2079123001912801 3.045100586394171e-33
  outer loop
    vertex 43.13335818427048 4.6352521237755155 -3.0
    vertex 43.785340587241485 1.5679254761893882 3.000000000000034
    vertex 43.785340587241485 1.5679254761893882 -3.0
  endloop
endfacet
facet normal 0.9781474712072669 0.2079123001912801 3.045100586394171e-33
  outer loop
    vertex 43.785340587241485 1.5679254761893882 3.000000000000034
    vertex 43.13335818427048 4.6352521237755155 -3.0
    vertex 43.13335818427048 4.6352521237755155 3.000000000000034
  endloop
endfacet
facet normal 0.30901757604632635 0.9510563272984692 1.1230001932378366e-32
  outer loop
    vertex 17.552432931379116 39.67221436640569 3.000000000000034
    vertex 20.53480037588594 38.70318242568051 -3.0
    vertex 17.552432931379116 39.67221436640569 -3.0
  endloop
endfacet
facet normal 0.30901757604632635 0.9510563272984692 1.1230001932378366e-32
  outer loop
    vertex 20.53480037588594 38.70318242568051 -3.0
    vertex 17.552432931379116 39.67221436640569 3.000000000000034
    vertex 20.53480037588594 38.70318242568051 3.000000000000034
  endloop
endfacet
facet normal 0.49999938929254395 0.8660257563762659 1.0367632281880813e-32
  outer loop
    vertex 20.53480037588594 38.70318242568051 3.000000000000034
    vertex 23.25053258724157 37.135256255861044 -3.0
    vertex 20.53480037588594 38.70318242568051 -3.0
  endloop
endfacet
facet normal 0.49999938929254395 0.8660257563762659 1.0367632281880813e-32
  outer loop
    vertex 23.25053258724157 37.135256255861044 -3.0
    vertex 20.53480037588594 38.70318242568051 3.000000000000034
    vertex 23.25053258724157 37.135256255861044 3.000000000000034
  endloop
endfacet
facet normal 0.9781479053501267 -0.20791025770548105 -1.7773464759457857e-33
  outer loop
    vertex 43.78533787588589 -1.5679298276047064 -3.0
    vertex 43.13336243137885 -4.635255232431487 3.000000000000034
    vertex 43.13336243137885 -4.635255232431487 -3.0
  endloop
endfacet
facet normal 0.9781479053501267 -0.20791025770548105 -1.7773464759457857e-33
  outer loop
    vertex 43.13336243137885 -4.635255232431487 3.000000000000034
    vertex 43.78533787588589 -1.5679298276047064 -3.0
    vertex 43.78533787588589 -1.5679298276047064 3.000000000000034
  endloop
endfacet
facet normal 0.9135453178867184 -0.4067369569725063 -4.12507709300857e-33
  outer loop
    vertex 43.13336243137885 -4.635255232431487 -3.0
    vertex 41.85789462299393 -7.500000184890144 3.000000000000034
    vertex 41.85789462299393 -7.500000184890144 -3.0
  endloop
endfacet
facet normal 0.9135453178867184 -0.4067369569725063 -4.12507709300857e-33
  outer loop
    vertex 41.85789462299393 -7.500000184890144 3.000000000000034
    vertex 43.13336243137885 -4.635255232431487 -3.0
    vertex 43.13336243137885 -4.635255232431487 3.000000000000034
  endloop
endfacet
facet normal 0.9999999999996262 -8.646303597814597e-07 6.480160519474823e-34
  outer loop
    vertex 43.785340587241485 1.5679254761893882 -3.0
    vertex 43.78533787588589 -1.5679298276047064 3.000000000000034
    vertex 43.78533787588589 -1.5679298276047064 -3.0
  endloop
endfacet
facet normal 0.9999999999996262 -8.646303597814597e-07 6.480160519474823e-34
  outer loop
    vertex 43.78533787588589 -1.5679298276047064 3.000000000000034
    vertex 43.785340587241485 1.5679254761893882 -3.0
    vertex 43.785340587241485 1.5679254761893882 3.000000000000034
  endloop
endfacet
facet normal 0.6691315087176913 0.7431440129888595 9.052129472995807e-33
  outer loop
    vertex 23.25053258724157 37.135256255861044 3.000000000000034
    vertex 25.580927184270745 35.036954412122306 -3.0
    vertex 23.25053258724157 37.135256255861044 -3.0
  endloop
endfacet
facet normal 0.6691315087176913 0.7431440129888595 9.052129472995807e-33
  outer loop
    vertex 25.580927184270745 35.036954412122306 -3.0
    vertex 23.25053258724157 37.135256255861044 3.000000000000034
    vertex 25.580927184270745 35.036954412122306 3.000000000000034
  endloop
endfacet
facet normal 0.6691304456732052 -0.7431449701593748 -8.184911926161509e-33
  outer loop
    vertex 25.580929083018585 -35.03695887660453 3.000000000000034
    vertex 23.25053511327921 -37.13525411936384 -3.0
    vertex 25.580929083018585 -35.03695887660453 -3.0
  endloop
endfacet
facet normal 0.6691304456732052 -0.7431449701593748 -8.184911926161509e-33
  outer loop
    vertex 23.25053511327921 -37.13525411936384 -3.0
    vertex 25.580929083018585 -35.03695887660453 3.000000000000034
    vertex 23.25053511327921 -37.13525411936384 3.000000000000034
  endloop
endfacet
facet normal 3.112006000118364e-06 -0.9999999999951578 -1.1597366264762968e-32
  outer loop
    vertex 14.433754971616562 -39.999996954839595 3.000000000000034
    vertex 12.500004548406793 -40.000002972682566 -3.0
    vertex 14.433754971616562 -39.999996954839595 -3.0
  endloop
endfacet
facet normal 3.112006000118364e-06 -0.9999999999951578 -1.1597366264762968e-32
  outer loop
    vertex 12.500004548406793 -40.000002972682566 -3.0
    vertex 14.433754971616562 -39.999996954839595 3.000000000000034
    vertex 12.500004548406793 -40.000002972682566 3.000000000000034
  endloop
endfacet
facet normal 0.3090173261286063 -0.9510564085017916 -1.0829500139544174e-32
  outer loop
    vertex 20.534803288644135 -38.70318261936399 3.000000000000034
    vertex 17.552427586854098 -39.672216376604624 -3.0
    vertex 20.534803288644135 -38.70318261936399 -3.0
  endloop
endfacet
facet normal 0.3090173261286063 -0.9510564085017916 -1.0829500139544174e-32
  outer loop
    vertex 17.552427586854098 -39.672216376604624 -3.0
    vertex 20.534803288644135 -38.70318261936399 3.000000000000034
    vertex 17.552427586854098 -39.672216376604624 3.000000000000034
  endloop
endfacet
facet normal 0.49999999999994965 -0.8660254037844679 -9.719602509113836e-33
  outer loop
    vertex 23.25053511327921 -37.13525411936384 3.000000000000034
    vertex 20.534803288644135 -38.70318261936399 -3.0
    vertex 23.25053511327921 -37.13525411936384 -3.0
  endloop
endfacet
facet normal 0.49999999999994965 -0.8660254037844679 -9.719602509113836e-33
  outer loop
    vertex 20.534803288644135 -38.70318261936399 -3.0
    vertex 23.25053511327921 -37.13525411936384 3.000000000000034
    vertex 20.534803288644135 -38.70318261936399 3.000000000000034
  endloop
endfacet
facet normal 0.8660254037844096 0.5000000000000504 6.35989118780238e-33
  outer loop
    vertex 27.424136651377417 32.500001966102154 -3.0
    vertex 28.391016651377207 30.825316681279734 3.000000000000034
    vertex 28.391016651377207 30.825316681279734 -3.0
  endloop
endfacet
facet normal 0.8660254037844096 0.5000000000000504 6.35989118780238e-33
  outer loop
    vertex 28.391016651377207 30.825316681279734 3.000000000000034
    vertex 27.424136651377417 32.500001966102154 -3.0
    vertex 27.424136651377417 32.500001966102154 3.000000000000034
  endloop
endfacet
facet normal 0.8090175679960693 -0.5877844627699218 -6.292488402133139e-33
  outer loop
    vertex 27.424136028382993 -32.49999695483976 -3.0
    vertex 25.580929083018585 -35.03695887660453 3.000000000000034
    vertex 25.580929083018585 -35.03695887660453 -3.0
  endloop
endfacet
facet normal 0.8090175679960693 -0.5877844627699218 -6.292488402133139e-33
  outer loop
    vertex 25.580929083018585 -35.03695887660453 3.000000000000034
    vertex 27.424136028382993 -32.49999695483976 -3.0
    vertex 27.424136028382993 -32.49999695483976 3.000000000000034
  endloop
endfacet
facet normal 0.1927130243580706 0.11126291648949349 -0.9749267939989228
  outer loop
    vertex 36.44648184848883 35.47614168127982 -2.702899999999996
    vertex 47.819219881652586 13.174681586668935 -3.0
    vertex 35.319219881652764 34.82531668127978 -3.0
  endloop
endfacet
facet normal 0.1927130243580706 0.11126291648949349 -0.9749267939989228
  outer loop
    vertex 47.819219881652586 13.174681586668935 -3.0
    vertex 36.44648184848883 35.47614168127982 -2.702899999999996
    vertex 48.946481848488695 13.825506586668931 -2.702899999999996
  endloop
endfacet
facet normal 0.5399442795769663 0.3117369751612005 -0.7818441233835911
  outer loop
    vertex 37.350473805975184 35.99806168127982 -1.8705000000000005
    vertex 48.946481848488695 13.825506586668931 -2.702899999999996
    vertex 36.44648184848883 35.47614168127982 -2.702899999999996
  endloop
endfacet
facet normal 0.5399442795769663 0.3117369751612005 -0.7818441233835911
  outer loop
    vertex 48.946481848488695 13.825506586668931 -2.702899999999996
    vertex 37.350473805975184 35.99806168127982 -1.8705000000000005
    vertex 49.850473805975035 14.34742658666896 -1.8705000000000005
  endloop
endfacet
facet normal 0.7802609409795008 0.4504838643127246 -0.43388610484280205
  outer loop
    vertex 37.350473805975184 35.99806168127982 -1.8705000000000005
    vertex 50.35215366213317 14.63707158666887 -0.6675999999999844
    vertex 49.850473805975035 14.34742658666896 -1.8705000000000005
  endloop
endfacet
facet normal 0.7802609409795008 0.4504838643127246 -0.43388610484280205
  outer loop
    vertex 50.35215366213317 14.63707158666887 -0.6675999999999844
    vertex 37.350473805975184 35.99806168127982 -1.8705000000000005
    vertex 37.85215366213339 36.28770668127986 -0.6675999999999844
  endloop
endfacet
facet normal 0.7802609409794965 0.4504838643127186 0.4338861048428157
  outer loop
    vertex 50.35215366213317 14.63707158666887 0.6675000000000324
    vertex 37.350473805975184 35.99806168127982 1.8704000000000032
    vertex 49.850473805975035 14.34742658666896 1.8704000000000032
  endloop
endfacet
facet normal 0.7802609409794965 0.4504838643127186 0.4338861048428157
  outer loop
    vertex 37.350473805975184 35.99806168127982 1.8704000000000032
    vertex 50.35215366213317 14.63707158666887 0.6675000000000324
    vertex 37.85215366213339 36.28770668127986 0.6675000000000324
  endloop
endfacet
facet normal 0.1927130243580706 0.11126291648949349 0.9749267939989228
  outer loop
    vertex 47.819219881652586 13.174681586668935 3.000000000000034
    vertex 36.44648184848883 35.47614168127982 2.7029000000000303
    vertex 35.319219881652764 34.82531668127978 3.000000000000034
  endloop
endfacet
facet normal 0.1927130243580706 0.11126291648949349 0.9749267939989228
  outer loop
    vertex 36.44648184848883 35.47614168127982 2.7029000000000303
    vertex 47.819219881652586 13.174681586668935 3.000000000000034
    vertex 48.946481848488695 13.825506586668931 2.7029000000000303
  endloop
endfacet
facet normal 0.5399839280808462 0.3117598662355886 0.7818076126638496
  outer loop
    vertex 48.946481848488695 13.825506586668931 2.7029000000000303
    vertex 37.350473805975184 35.99806168127982 1.8704000000000032
    vertex 36.44648184848883 35.47614168127982 2.7029000000000303
  endloop
endfacet
facet normal 0.5399839280808462 0.3117598662355886 0.7818076126638496
  outer loop
    vertex 37.350473805975184 35.99806168127982 1.8704000000000032
    vertex 48.946481848488695 13.825506586668931 2.7029000000000303
    vertex 49.850473805975035 14.34742658666896 1.8704000000000032
  endloop
endfacet
facet normal 0.8660254037844096 0.5000000000000504 6.35989118780238e-33
  outer loop
    vertex 37.85215366213339 36.28770668127986 -0.6675999999999844
    vertex 50.35215366213317 14.63707158666887 0.6675000000000324
    vertex 50.35215366213317 14.63707158666887 -0.6675999999999844
  endloop
endfacet
facet normal 0.8660254037844096 0.5000000000000504 6.35989118780238e-33
  outer loop
    vertex 50.35215366213317 14.63707158666887 0.6675000000000324
    vertex 37.85215366213339 36.28770668127986 -0.6675999999999844
    vertex 37.85215366213339 36.28770668127986 0.6675000000000324
  endloop
endfacet
facet normal -0.49999999999994965 0.8660254037844679 9.719602509113836e-33
  outer loop
    vertex 28.391016651377207 30.825316681279734 3.000000000000034
    vertex 35.319219881652764 34.82531668127978 -3.0
    vertex 28.391016651377207 30.825316681279734 -3.0
  endloop
endfacet
facet normal -0.49999999999994965 0.8660254037844679 9.719602509113836e-33
  outer loop
    vertex 35.319219881652764 34.82531668127978 -3.0
    vertex 28.391016651377207 30.825316681279734 3.000000000000034
    vertex 36.44648184848883 35.47614168127982 -2.702899999999996
  endloop
endfacet
facet normal -0.49999999999994965 0.8660254037844679 9.719602509113836e-33
  outer loop
    vertex 36.44648184848883 35.47614168127982 -2.702899999999996
    vertex 28.391016651377207 30.825316681279734 3.000000000000034
    vertex 37.350473805975184 35.99806168127982 -1.8705000000000005
  endloop
endfacet
facet normal -0.49999999999994965 0.8660254037844679 9.719602509113836e-33
  outer loop
    vertex 37.350473805975184 35.99806168127982 -1.8705000000000005
    vertex 28.391016651377207 30.825316681279734 3.000000000000034
    vertex 37.85215366213339 36.28770668127986 -0.6675999999999844
  endloop
endfacet
facet normal -0.49999999999994965 0.8660254037844679 9.719602509113836e-33
  outer loop
    vertex 37.85215366213339 36.28770668127986 -0.6675999999999844
    vertex 28.391016651377207 30.825316681279734 3.000000000000034
    vertex 37.85215366213339 36.28770668127986 0.6675000000000324
  endloop
endfacet
facet normal -0.49999999999994965 0.8660254037844679 9.719602509113836e-33
  outer loop
    vertex 37.85215366213339 36.28770668127986 0.6675000000000324
    vertex 28.391016651377207 30.825316681279734 3.000000000000034
    vertex 37.350473805975184 35.99806168127982 1.8704000000000032
  endloop
endfacet
facet normal -0.49999999999994965 0.8660254037844679 9.719602509113836e-33
  outer loop
    vertex 37.350473805975184 35.99806168127982 1.8704000000000032
    vertex 28.391016651377207 30.825316681279734 3.000000000000034
    vertex 36.44648184848883 35.47614168127982 2.7029000000000303
  endloop
endfacet
facet normal -0.49999999999994965 0.8660254037844679 9.719602509113836e-33
  outer loop
    vertex 36.44648184848883 35.47614168127982 2.7029000000000303
    vertex 28.391016651377207 30.825316681279734 3.000000000000034
    vertex 35.319219881652764 34.82531668127978 3.000000000000034
  endloop
endfacet
facet normal 0.8660254037844096 0.5000000000000504 6.35989118780238e-33
  outer loop
    vertex 40.891016651377356 9.174681586669028 -3.0
    vertex 41.857894651377116 7.499999765948496 3.000000000000034
    vertex 41.857894651377116 7.499999765948496 -3.0
  endloop
endfacet
facet normal 0.8660254037844096 0.5000000000000504 6.35989118780238e-33
  outer loop
    vertex 41.857894651377116 7.499999765948496 3.000000000000034
    vertex 40.891016651377356 9.174681586669028 -3.0
    vertex 40.891016651377356 9.174681586669028 3.000000000000034
  endloop
endfacet
facet normal -9.186198890193814e-07 -0.9999999999995782 -1.1597368876764866e-32
  outer loop
    vertex -12.50000169978432 -40.000001961275515 3.000000000000034
    vertex -14.433756622994238 -40.00000018488982 -3.0
    vertex -12.50000169978432 -40.000001961275515 -3.0
  endloop
endfacet
facet normal -9.186198890193814e-07 -0.9999999999995782 -1.1597368876764866e-32
  outer loop
    vertex -14.433756622994238 -40.00000018488982 -3.0
    vertex -12.50000169978432 -40.000001961275515 3.000000000000034
    vertex -14.433756622994238 -40.00000018488982 3.000000000000034
  endloop
endfacet
facet normal -0.8660238477772236 0.5000026950738691 5.237509357775766e-33
  outer loop
    vertex -27.424135028383 32.49999522278896 3.000000000000034
    vertex -28.39101545159251 30.825321240631713 -3.0
    vertex -28.39101545159251 30.825321240631713 3.000000000000034
  endloop
endfacet
facet normal -0.8660238477772236 0.5000026950738691 5.237509357775766e-33
  outer loop
    vertex -28.39101545159251 30.825321240631713 -3.0
    vertex -27.424135028383 32.49999522278896 3.000000000000034
    vertex -27.424135028383 32.49999522278896 -3.0
  endloop
endfacet
facet normal 0.49999999999994965 -0.8660254037844679 -9.719602509113836e-33
  outer loop
    vertex 48.946481848488695 13.825506586668931 -2.702899999999996
    vertex 40.891016651377356 9.174681586669028 -3.0
    vertex 47.819219881652586 13.174681586668935 -3.0
  endloop
endfacet
facet normal 0.49999999999994965 -0.8660254037844679 -9.719602509113836e-33
  outer loop
    vertex 40.891016651377356 9.174681586669028 -3.0
    vertex 48.946481848488695 13.825506586668931 -2.702899999999996
    vertex 40.891016651377356 9.174681586669028 3.000000000000034
  endloop
endfacet
facet normal 0.49999999999994965 -0.8660254037844679 -9.719602509113836e-33
  outer loop
    vertex 40.891016651377356 9.174681586669028 3.000000000000034
    vertex 48.946481848488695 13.825506586668931 -2.702899999999996
    vertex 49.850473805975035 14.34742658666896 -1.8705000000000005
  endloop
endfacet
facet normal 0.49999999999994965 -0.8660254037844679 -9.719602509113836e-33
  outer loop
    vertex 40.891016651377356 9.174681586669028 3.000000000000034
    vertex 49.850473805975035 14.34742658666896 -1.8705000000000005
    vertex 50.35215366213317 14.63707158666887 -0.6675999999999844
  endloop
endfacet
facet normal 0.49999999999994965 -0.8660254037844679 -9.719602509113836e-33
  outer loop
    vertex 40.891016651377356 9.174681586669028 3.000000000000034
    vertex 50.35215366213317 14.63707158666887 -0.6675999999999844
    vertex 50.35215366213317 14.63707158666887 0.6675000000000324
  endloop
endfacet
facet normal 0.49999999999994965 -0.8660254037844679 -9.719602509113836e-33
  outer loop
    vertex 40.891016651377356 9.174681586669028 3.000000000000034
    vertex 50.35215366213317 14.63707158666887 0.6675000000000324
    vertex 49.850473805975035 14.34742658666896 1.8704000000000032
  endloop
endfacet
facet normal 0.49999999999994965 -0.8660254037844679 -9.719602509113836e-33
  outer loop
    vertex 40.891016651377356 9.174681586669028 3.000000000000034
    vertex 49.850473805975035 14.34742658666896 1.8704000000000032
    vertex 48.946481848488695 13.825506586668931 2.7029000000000303
  endloop
endfacet
facet normal 0.49999999999994965 -0.8660254037844679 -9.719602509113836e-33
  outer loop
    vertex 40.891016651377356 9.174681586669028 3.000000000000034
    vertex 48.946481848488695 13.825506586668931 2.7029000000000303
    vertex 47.819219881652586 13.174681586668935 3.000000000000034
  endloop
endfacet
facet normal -9.683935560127266e-33 1.1977353664539286e-32 -1.0
  outer loop
    vertex -35.31921868186835 34.82532124063175 -3.0
    vertex -40.89101969978406 9.174683693326541 -3.0
    vertex -47.8192186818682 13.174686146021015 -3.0
  endloop
endfacet
facet normal -9.683935560127266e-33 1.1977353664539286e-32 -1.0
  outer loop
    vertex 47.819219881652586 13.174681586668935 -3.0
    vertex 40.891016651377356 9.174681586669028 -3.0
    vertex 35.319219881652764 34.82531668127978 -3.0
  endloop
endfacet
facet normal -9.683935560127266e-33 1.1977353664539286e-32 -1.0
  outer loop
    vertex -43.133361931378836 4.635254366405988 -3.0
    vertex -43.78534158724138 -1.5679237441386438 -3.0
    vertex -43.785348036139716 1.5679274256807296 -3.0
  endloop
endfacet
facet normal -9.683935560127266e-33 1.1977353664539286e-32 -1.0
  outer loop
    vertex -43.78534158724138 -1.5679237441386438 -3.0
    vertex -43.133361931378836 4.635254366405988 -3.0
    vertex -43.133356184270596 -4.635255587877318 -3.0
  endloop
endfacet
facet normal -9.683935560127266e-33 1.1977353664539286e-32 -1.0
  outer loop
    vertex -43.133356184270596 -4.635255587877318 -3.0
    vertex -43.133361931378836 4.635254366405988 -3.0
    vertex -41.857895122993874 7.5000010509155794 -3.0
  endloop
endfacet
facet normal -9.683935560127266e-33 1.1977353664539286e-32 -1.0
  outer loop
    vertex -43.133356184270596 -4.635255587877318 -3.0
    vertex -41.857895122993874 7.5000010509155794 -3.0
    vertex -41.857895651377135 -7.499998033897723 -3.0
  endloop
endfacet
facet normal -9.683935560127266e-33 1.1977353664539286e-32 -1.0
  outer loop
    vertex -41.857895651377135 -7.499998033897723 -3.0
    vertex -41.857895122993874 7.5000010509155794 -3.0
    vertex -27.42413765137742 -32.50000023405114 -3.0
  endloop
endfacet
facet normal -9.683935560127266e-33 1.1977353664539286e-32 -1.0
  outer loop
    vertex -27.42413765137742 -32.50000023405114 -3.0
    vertex -41.857895122993874 7.5000010509155794 -3.0
    vertex -40.89101969978406 9.174683693326541 -3.0
  endloop
endfacet
facet normal -9.683935560127266e-33 1.1977353664539286e-32 -1.0
  outer loop
    vertex -27.42413765137742 -32.50000023405114 -3.0
    vertex -40.89101969978406 9.174683693326541 -3.0
    vertex -35.31921868186835 34.82532124063175 -3.0
  endloop
endfacet
facet normal -9.683935560127266e-33 1.1977353664539286e-32 -1.0
  outer loop
    vertex -27.42413765137742 -32.50000023405114 -3.0
    vertex -35.31921868186835 34.82532124063175 -3.0
    vertex -28.39101545159251 30.825321240631713 -3.0
  endloop
endfacet
facet normal -9.683935560127266e-33 1.1977353664539286e-32 -1.0
  outer loop
    vertex -27.42413765137742 -32.50000023405114 -3.0
    vertex -28.39101545159251 30.825321240631713 -3.0
    vertex -27.424135028383 32.49999522278896 -3.0
  endloop
endfacet
facet normal -9.683935560127266e-33 1.1977353664539286e-32 -1.0
  outer loop
    vertex -27.42413765137742 -32.50000023405114 -3.0
    vertex -27.424135028383 32.49999522278896 -3.0
    vertex -25.580925184270864 -35.03695787622397 -3.0
  endloop
endfacet
facet normal -9.683935560127266e-33 1.1977353664539286e-32 -1.0
  outer loop
    vertex -25.580925184270864 -35.03695787622397 -3.0
    vertex -27.424135028383 32.49999522278896 -3.0
    vertex -25.58093241314562 35.03695464455392 -3.0
  endloop
endfacet
facet normal -9.683935560127266e-33 1.1977353664539286e-32 -1.0
  outer loop
    vertex -25.580925184270864 -35.03695787622397 -3.0
    vertex -25.58093241314562 35.03695464455392 -3.0
    vertex -23.250536711355522 37.13525088731305 -3.0
  endloop
endfacet
facet normal -9.683935560127266e-33 1.1977353664539286e-32 -1.0
  outer loop
    vertex -25.580925184270864 -35.03695787622397 -3.0
    vertex -23.250536711355522 37.13525088731305 -3.0
    vertex -23.250533587241442 -37.13525452381017 -3.0
  endloop
endfacet
facet normal -9.683935560127266e-33 1.1977353664539286e-32 -1.0
  outer loop
    vertex -23.250533587241442 -37.13525452381017 -3.0
    vertex -23.250536711355522 37.13525088731305 -3.0
    vertex -20.534804886720295 38.70317938731293 -3.0
  endloop
endfacet
facet normal -9.683935560127266e-33 1.1977353664539286e-32 -1.0
  outer loop
    vertex -23.250533587241442 -37.13525452381017 -3.0
    vertex -20.534804886720295 38.70317938731293 -3.0
    vertex -20.534810536139936 -38.70318482760431 -3.0
  endloop
endfacet
facet normal -9.683935560127266e-33 1.1977353664539286e-32 -1.0
  outer loop
    vertex -20.534810536139936 -38.70318482760431 -3.0
    vertex -20.534804886720295 38.70317938731293 -3.0
    vertex -17.552432431379 -39.67221523243107 -3.0
  endloop
endfacet
facet normal -9.683935560127266e-33 1.1977353664539286e-32 -1.0
  outer loop
    vertex -17.552432431379 -39.67221523243107 -3.0
    vertex -20.534804886720295 38.70317938731293 -3.0
    vertex -17.55243091698101 39.672212144553846 -3.0
  endloop
endfacet
facet normal -9.683935560127266e-33 1.1977353664539286e-32 -1.0
  outer loop
    vertex -17.552432431379 -39.67221523243107 -3.0
    vertex -17.55243091698101 39.672212144553846 -3.0
    vertex -14.433756622994238 -40.00000018488982 -3.0
  endloop
endfacet
facet normal -9.683935560127266e-33 1.1977353664539286e-32 -1.0
  outer loop
    vertex -14.433756622994238 -40.00000018488982 -3.0
    vertex -17.55243091698101 39.672212144553846 -3.0
    vertex -14.433753971616657 39.999995222788904 -3.0
  endloop
endfacet
facet normal -9.683935560127266e-33 1.1977353664539286e-32 -1.0
  outer loop
    vertex -14.433756622994238 -40.00000018488982 -3.0
    vertex -14.433753971616657 39.999995222788904 -3.0
    vertex -12.50000169978432 -40.000001961275515 -3.0
  endloop
endfacet
facet normal -9.683935560127266e-33 1.1977353664539286e-32 -1.0
  outer loop
    vertex -12.50000169978432 -40.000001961275515 -3.0
    vertex -14.433753971616657 39.999995222788904 -3.0
    vertex 14.433756122994096 40.00000105091514 -3.0
  endloop
endfacet
facet normal -9.683935560127266e-33 1.1977353664539286e-32 -1.0
  outer loop
    vertex -12.50000169978432 -40.000001961275515 -3.0
    vertex 14.433756122994096 40.00000105091514 -3.0
    vertex 12.500004548406793 -40.000002972682566 -3.0
  endloop
endfacet
facet normal -9.683935560127266e-33 1.1977353664539286e-32 -1.0
  outer loop
    vertex -12.50000169978432 -40.000001961275515 -3.0
    vertex 12.500004548406793 -40.000002972682566 -3.0
    vertex 12.49999830021524 -48.00000196127541 -3.0
  endloop
endfacet
facet normal -9.683935560127266e-33 1.1977353664539286e-32 -1.0
  outer loop
    vertex 12.500004548406793 -40.000002972682566 -3.0
    vertex 14.433756122994096 40.00000105091514 -3.0
    vertex 14.433754971616562 -39.999996954839595 -3.0
  endloop
endfacet
facet normal -9.683935560127266e-33 1.1977353664539286e-32 -1.0
  outer loop
    vertex 14.433754971616562 -39.999996954839595 -3.0
    vertex 14.433756122994096 40.00000105091514 -3.0
    vertex 17.552427586854098 -39.672216376604624 -3.0
  endloop
endfacet
facet normal -9.683935560127266e-33 1.1977353664539286e-32 -1.0
  outer loop
    vertex 17.552427586854098 -39.672216376604624 -3.0
    vertex 14.433756122994096 40.00000105091514 -3.0
    vertex 17.552432931379116 39.67221436640569 -3.0
  endloop
endfacet
facet normal -9.683935560127266e-33 1.1977353664539286e-32 -1.0
  outer loop
    vertex 17.552427586854098 -39.672216376604624 -3.0
    vertex 17.552432931379116 39.67221436640569 -3.0
    vertex 20.534803288644135 -38.70318261936399 -3.0
  endloop
endfacet
facet normal -9.683935560127266e-33 1.1977353664539286e-32 -1.0
  outer loop
    vertex 20.534803288644135 -38.70318261936399 -3.0
    vertex 17.552432931379116 39.67221436640569 -3.0
    vertex 20.53480037588594 38.70318242568051 -3.0
  endloop
endfacet
facet normal -9.683935560127266e-33 1.1977353664539286e-32 -1.0
  outer loop
    vertex 20.534803288644135 -38.70318261936399 -3.0
    vertex 20.53480037588594 38.70318242568051 -3.0
    vertex 23.25053258724157 37.135256255861044 -3.0
  endloop
endfacet
facet normal -9.683935560127266e-33 1.1977353664539286e-32 -1.0
  outer loop
    vertex 20.534803288644135 -38.70318261936399 -3.0
    vertex 23.25053258724157 37.135256255861044 -3.0
    vertex 23.25053511327921 -37.13525411936384 -3.0
  endloop
endfacet
facet normal -9.683935560127266e-33 1.1977353664539286e-32 -1.0
  outer loop
    vertex 23.25053511327921 -37.13525411936384 -3.0
    vertex 23.25053258724157 37.135256255861044 -3.0
    vertex 25.580927184270745 35.036954412122306 -3.0
  endloop
endfacet
facet normal -9.683935560127266e-33 1.1977353664539286e-32 -1.0
  outer loop
    vertex 23.25053511327921 -37.13525411936384 -3.0
    vertex 25.580927184270745 35.036954412122306 -3.0
    vertex 25.580929083018585 -35.03695887660453 -3.0
  endloop
endfacet
facet normal -9.683935560127266e-33 1.1977353664539286e-32 -1.0
  outer loop
    vertex 25.580929083018585 -35.03695887660453 -3.0
    vertex 25.580927184270745 35.036954412122306 -3.0
    vertex 27.424136651377417 32.500001966102154 -3.0
  endloop
endfacet
facet normal -9.683935560127266e-33 1.1977353664539286e-32 -1.0
  outer loop
    vertex 25.580929083018585 -35.03695887660453 -3.0
    vertex 27.424136651377417 32.500001966102154 -3.0
    vertex 27.424136028382993 -32.49999695483976 -3.0
  endloop
endfacet
facet normal -9.683935560127266e-33 1.1977353664539286e-32 -1.0
  outer loop
    vertex 27.424136028382993 -32.49999695483976 -3.0
    vertex 27.424136651377417 32.500001966102154 -3.0
    vertex 41.85789462299393 -7.500000184890144 -3.0
  endloop
endfacet
facet normal -9.683935560127266e-33 1.1977353664539286e-32 -1.0
  outer loop
    vertex 41.85789462299393 -7.500000184890144 -3.0
    vertex 27.424136651377417 32.500001966102154 -3.0
    vertex 28.391016651377207 30.825316681279734 -3.0
  endloop
endfacet
facet normal -9.683935560127266e-33 1.1977353664539286e-32 -1.0
  outer loop
    vertex 41.85789462299393 -7.500000184890144 -3.0
    vertex 28.391016651377207 30.825316681279734 -3.0
    vertex 35.319219881652764 34.82531668127978 -3.0
  endloop
endfacet
facet normal -9.683935560127266e-33 1.1977353664539286e-32 -1.0
  outer loop
    vertex 41.85789462299393 -7.500000184890144 -3.0
    vertex 35.319219881652764 34.82531668127978 -3.0
    vertex 40.891016651377356 9.174681586669028 -3.0
  endloop
endfacet
facet normal -9.683935560127266e-33 1.1977353664539286e-32 -1.0
  outer loop
    vertex 41.85789462299393 -7.500000184890144 -3.0
    vertex 40.891016651377356 9.174681586669028 -3.0
    vertex 41.857894651377116 7.499999765948496 -3.0
  endloop
endfacet
facet normal -9.683935560127266e-33 1.1977353664539286e-32 -1.0
  outer loop
    vertex 41.85789462299393 -7.500000184890144 -3.0
    vertex 41.857894651377116 7.499999765948496 -3.0
    vertex 43.13336243137885 -4.635255232431487 -3.0
  endloop
endfacet
facet normal -9.683935560127266e-33 1.1977353664539286e-32 -1.0
  outer loop
    vertex 43.13336243137885 -4.635255232431487 -3.0
    vertex 41.857894651377116 7.499999765948496 -3.0
    vertex 43.13335818427048 4.6352521237755155 -3.0
  endloop
endfacet
facet normal -9.683935560127266e-33 1.1977353664539286e-32 -1.0
  outer loop
    vertex 43.13336243137885 -4.635255232431487 -3.0
    vertex 43.13335818427048 4.6352521237755155 -3.0
    vertex 43.785340587241485 1.5679254761893882 -3.0
  endloop
endfacet
facet normal -9.683935560127266e-33 1.1977353664539286e-32 -1.0
  outer loop
    vertex 43.13336243137885 -4.635255232431487 -3.0
    vertex 43.785340587241485 1.5679254761893882 -3.0
    vertex 43.78533787588589 -1.5679298276047064 -3.0
  endloop
endfacet
facet normal -9.683935560127266e-33 1.1977353664539286e-32 -1.0
  outer loop
    vertex 12.49999830021524 -48.00000196127541 -3.0
    vertex -12.500001699784711 -48.00000196127515 -3.0
    vertex -12.50000169978432 -40.000001961275515 -3.0
  endloop
endfacet
facet normal -1.0367628588497512e-32 -5.237477093679425e-33 1.0
  outer loop
    vertex 12.49999830021524 -48.00000196127541 3.000000000000034
    vertex -12.50000169978432 -40.000001961275515 3.000000000000034
    vertex -12.500001699784711 -48.00000196127515 3.000000000000034
  endloop
endfacet
facet normal -1.0367628588497512e-32 -5.237477093679425e-33 1.0
  outer loop
    vertex -35.31921868186835 34.82532124063175 3.000000000000034
    vertex -47.8192186818682 13.174686146021015 3.000000000000034
    vertex -40.89101969978406 9.174683693326541 3.000000000000034
  endloop
endfacet
facet normal -1.0367628588497512e-32 -5.237477093679425e-33 1.0
  outer loop
    vertex -43.78534158724138 -1.5679237441386438 3.000000000000034
    vertex -43.133361931378836 4.635254366405988 3.000000000000034
    vertex -43.785348036139716 1.5679274256807296 3.000000000000034
  endloop
endfacet
facet normal -1.0367628588497512e-32 -5.237477093679425e-33 1.0
  outer loop
    vertex -43.133361931378836 4.635254366405988 3.000000000000034
    vertex -43.78534158724138 -1.5679237441386438 3.000000000000034
    vertex -43.133356184270596 -4.635255587877318 3.000000000000034
  endloop
endfacet
facet normal -1.0367628588497512e-32 -5.237477093679425e-33 1.0
  outer loop
    vertex -43.133361931378836 4.635254366405988 3.000000000000034
    vertex -43.133356184270596 -4.635255587877318 3.000000000000034
    vertex -41.857895122993874 7.5000010509155794 3.000000000000034
  endloop
endfacet
facet normal -1.0367628588497512e-32 -5.237477093679425e-33 1.0
  outer loop
    vertex -41.857895122993874 7.5000010509155794 3.000000000000034
    vertex -43.133356184270596 -4.635255587877318 3.000000000000034
    vertex -41.857895651377135 -7.499998033897723 3.000000000000034
  endloop
endfacet
facet normal -1.0367628588497512e-32 -5.237477093679425e-33 1.0
  outer loop
    vertex -41.857895122993874 7.5000010509155794 3.000000000000034
    vertex -41.857895651377135 -7.499998033897723 3.000000000000034
    vertex -27.42413765137742 -32.50000023405114 3.000000000000034
  endloop
endfacet
facet normal -1.0367628588497512e-32 -5.237477093679425e-33 1.0
  outer loop
    vertex -41.857895122993874 7.5000010509155794 3.000000000000034
    vertex -27.42413765137742 -32.50000023405114 3.000000000000034
    vertex -40.89101969978406 9.174683693326541 3.000000000000034
  endloop
endfacet
facet normal -1.0367628588497512e-32 -5.237477093679425e-33 1.0
  outer loop
    vertex -40.89101969978406 9.174683693326541 3.000000000000034
    vertex -27.42413765137742 -32.50000023405114 3.000000000000034
    vertex -35.31921868186835 34.82532124063175 3.000000000000034
  endloop
endfacet
facet normal -1.0367628588497512e-32 -5.237477093679425e-33 1.0
  outer loop
    vertex -35.31921868186835 34.82532124063175 3.000000000000034
    vertex -27.42413765137742 -32.50000023405114 3.000000000000034
    vertex -28.39101545159251 30.825321240631713 3.000000000000034
  endloop
endfacet
facet normal -1.0367628588497512e-32 -5.237477093679425e-33 1.0
  outer loop
    vertex -28.39101545159251 30.825321240631713 3.000000000000034
    vertex -27.42413765137742 -32.50000023405114 3.000000000000034
    vertex -27.424135028383 32.49999522278896 3.000000000000034
  endloop
endfacet
facet normal -1.0367628588497512e-32 -5.237477093679425e-33 1.0
  outer loop
    vertex -27.424135028383 32.49999522278896 3.000000000000034
    vertex -27.42413765137742 -32.50000023405114 3.000000000000034
    vertex -25.580925184270864 -35.03695787622397 3.000000000000034
  endloop
endfacet
facet normal -1.0367628588497512e-32 -5.237477093679425e-33 1.0
  outer loop
    vertex -27.424135028383 32.49999522278896 3.000000000000034
    vertex -25.580925184270864 -35.03695787622397 3.000000000000034
    vertex -25.58093241314562 35.03695464455392 3.000000000000034
  endloop
endfacet
facet normal -1.0367628588497512e-32 -5.237477093679425e-33 1.0
  outer loop
    vertex -25.58093241314562 35.03695464455392 3.000000000000034
    vertex -25.580925184270864 -35.03695787622397 3.000000000000034
    vertex -23.250536711355522 37.13525088731305 3.000000000000034
  endloop
endfacet
facet normal -1.0367628588497512e-32 -5.237477093679425e-33 1.0
  outer loop
    vertex -23.250536711355522 37.13525088731305 3.000000000000034
    vertex -25.580925184270864 -35.03695787622397 3.000000000000034
    vertex -23.250533587241442 -37.13525452381017 3.000000000000034
  endloop
endfacet
facet normal -1.0367628588497512e-32 -5.237477093679425e-33 1.0
  outer loop
    vertex -23.250536711355522 37.13525088731305 3.000000000000034
    vertex -23.250533587241442 -37.13525452381017 3.000000000000034
    vertex -20.534804886720295 38.70317938731293 3.000000000000034
  endloop
endfacet
facet normal -1.0367628588497512e-32 -5.237477093679425e-33 1.0
  outer loop
    vertex -20.534804886720295 38.70317938731293 3.000000000000034
    vertex -23.250533587241442 -37.13525452381017 3.000000000000034
    vertex -20.534810536139936 -38.70318482760431 3.000000000000034
  endloop
endfacet
facet normal -1.0367628588497512e-32 -5.237477093679425e-33 1.0
  outer loop
    vertex -20.534804886720295 38.70317938731293 3.000000000000034
    vertex -20.534810536139936 -38.70318482760431 3.000000000000034
    vertex -17.552432431379 -39.67221523243107 3.000000000000034
  endloop
endfacet
facet normal -1.0367628588497512e-32 -5.237477093679425e-33 1.0
  outer loop
    vertex -20.534804886720295 38.70317938731293 3.000000000000034
    vertex -17.552432431379 -39.67221523243107 3.000000000000034
    vertex -17.55243091698101 39.672212144553846 3.000000000000034
  endloop
endfacet
facet normal -1.0367628588497512e-32 -5.237477093679425e-33 1.0
  outer loop
    vertex -17.55243091698101 39.672212144553846 3.000000000000034
    vertex -17.552432431379 -39.67221523243107 3.000000000000034
    vertex -14.433756622994238 -40.00000018488982 3.000000000000034
  endloop
endfacet
facet normal -1.0367628588497512e-32 -5.237477093679425e-33 1.0
  outer loop
    vertex -17.55243091698101 39.672212144553846 3.000000000000034
    vertex -14.433756622994238 -40.00000018488982 3.000000000000034
    vertex -14.433753971616657 39.999995222788904 3.000000000000034
  endloop
endfacet
facet normal -1.0367628588497512e-32 -5.237477093679425e-33 1.0
  outer loop
    vertex -14.433753971616657 39.999995222788904 3.000000000000034
    vertex -14.433756622994238 -40.00000018488982 3.000000000000034
    vertex -12.50000169978432 -40.000001961275515 3.000000000000034
  endloop
endfacet
facet normal -1.0367628588497512e-32 -5.237477093679425e-33 1.0
  outer loop
    vertex -14.433753971616657 39.999995222788904 3.000000000000034
    vertex -12.50000169978432 -40.000001961275515 3.000000000000034
    vertex 14.433756122994096 40.00000105091514 3.000000000000034
  endloop
endfacet
facet normal -1.0367628588497512e-32 -5.237477093679425e-33 1.0
  outer loop
    vertex 14.433756122994096 40.00000105091514 3.000000000000034
    vertex -12.50000169978432 -40.000001961275515 3.000000000000034
    vertex 12.500004548406793 -40.000002972682566 3.000000000000034
  endloop
endfacet
facet normal -1.0367628588497512e-32 -5.237477093679425e-33 1.0
  outer loop
    vertex 12.500004548406793 -40.000002972682566 3.000000000000034
    vertex -12.50000169978432 -40.000001961275515 3.000000000000034
    vertex 12.49999830021524 -48.00000196127541 3.000000000000034
  endloop
endfacet
facet normal -1.0367628588497512e-32 -5.237477093679425e-33 1.0
  outer loop
    vertex 14.433756122994096 40.00000105091514 3.000000000000034
    vertex 12.500004548406793 -40.000002972682566 3.000000000000034
    vertex 14.433754971616562 -39.999996954839595 3.000000000000034
  endloop
endfacet
facet normal -1.0367628588497512e-32 -5.237477093679425e-33 1.0
  outer loop
    vertex 14.433756122994096 40.00000105091514 3.000000000000034
    vertex 14.433754971616562 -39.999996954839595 3.000000000000034
    vertex 17.552427586854098 -39.672216376604624 3.000000000000034
  endloop
endfacet
facet normal -1.0367628588497512e-32 -5.237477093679425e-33 1.0
  outer loop
    vertex 14.433756122994096 40.00000105091514 3.000000000000034
    vertex 17.552427586854098 -39.672216376604624 3.000000000000034
    vertex 17.552432931379116 39.67221436640569 3.000000000000034
  endloop
endfacet
facet normal -1.0367628588497512e-32 -5.237477093679425e-33 1.0
  outer loop
    vertex 17.552432931379116 39.67221436640569 3.000000000000034
    vertex 17.552427586854098 -39.672216376604624 3.000000000000034
    vertex 20.534803288644135 -38.70318261936399 3.000000000000034
  endloop
endfacet
facet normal -1.0367628588497512e-32 -5.237477093679425e-33 1.0
  outer loop
    vertex 17.552432931379116 39.67221436640569 3.000000000000034
    vertex 20.534803288644135 -38.70318261936399 3.000000000000034
    vertex 20.53480037588594 38.70318242568051 3.000000000000034
  endloop
endfacet
facet normal -1.0367628588497512e-32 -5.237477093679425e-33 1.0
  outer loop
    vertex 20.53480037588594 38.70318242568051 3.000000000000034
    vertex 20.534803288644135 -38.70318261936399 3.000000000000034
    vertex 23.25053258724157 37.135256255861044 3.000000000000034
  endloop
endfacet
facet normal -1.0367628588497512e-32 -5.237477093679425e-33 1.0
  outer loop
    vertex 23.25053258724157 37.135256255861044 3.000000000000034
    vertex 20.534803288644135 -38.70318261936399 3.000000000000034
    vertex 23.25053511327921 -37.13525411936384 3.000000000000034
  endloop
endfacet
facet normal -1.0367628588497512e-32 -5.237477093679425e-33 1.0
  outer loop
    vertex 23.25053258724157 37.135256255861044 3.000000000000034
    vertex 23.25053511327921 -37.13525411936384 3.000000000000034
    vertex 25.580927184270745 35.036954412122306 3.000000000000034
  endloop
endfacet
facet normal -1.0367628588497512e-32 -5.237477093679425e-33 1.0
  outer loop
    vertex 25.580927184270745 35.036954412122306 3.000000000000034
    vertex 23.25053511327921 -37.13525411936384 3.000000000000034
    vertex 25.580929083018585 -35.03695887660453 3.000000000000034
  endloop
endfacet
facet normal -1.0367628588497512e-32 -5.237477093679425e-33 1.0
  outer loop
    vertex 25.580927184270745 35.036954412122306 3.000000000000034
    vertex 25.580929083018585 -35.03695887660453 3.000000000000034
    vertex 27.424136651377417 32.500001966102154 3.000000000000034
  endloop
endfacet
facet normal -1.0367628588497512e-32 -5.237477093679425e-33 1.0
  outer loop
    vertex 27.424136651377417 32.500001966102154 3.000000000000034
    vertex 25.580929083018585 -35.03695887660453 3.000000000000034
    vertex 27.424136028382993 -32.49999695483976 3.000000000000034
  endloop
endfacet
facet normal -1.0367628588497512e-32 -5.237477093679425e-33 1.0
  outer loop
    vertex 27.424136651377417 32.500001966102154 3.000000000000034
    vertex 27.424136028382993 -32.49999695483976 3.000000000000034
    vertex 41.85789462299393 -7.500000184890144 3.000000000000034
  endloop
endfacet
facet normal -1.0367628588497512e-32 -5.237477093679425e-33 1.0
  outer loop
    vertex 27.424136651377417 32.500001966102154 3.000000000000034
    vertex 41.85789462299393 -7.500000184890144 3.000000000000034
    vertex 28.391016651377207 30.825316681279734 3.000000000000034
  endloop
endfacet
facet normal -1.0367628588497512e-32 -5.237477093679425e-33 1.0
  outer loop
    vertex 28.391016651377207 30.825316681279734 3.000000000000034
    vertex 41.85789462299393 -7.500000184890144 3.000000000000034
    vertex 35.319219881652764 34.82531668127978 3.000000000000034
  endloop
endfacet
facet normal -1.0367628588497512e-32 -5.237477093679425e-33 1.0
  outer loop
    vertex 35.319219881652764 34.82531668127978 3.000000000000034
    vertex 41.85789462299393 -7.500000184890144 3.000000000000034
    vertex 40.891016651377356 9.174681586669028 3.000000000000034
  endloop
endfacet
facet normal -1.0367628588497512e-32 -5.237477093679425e-33 1.0
  outer loop
    vertex 40.891016651377356 9.174681586669028 3.000000000000034
    vertex 41.85789462299393 -7.500000184890144 3.000000000000034
    vertex 41.857894651377116 7.499999765948496 3.000000000000034
  endloop
endfacet
facet normal -1.0367628588497512e-32 -5.237477093679425e-33 1.0
  outer loop
    vertex 41.857894651377116 7.499999765948496 3.000000000000034
    vertex 41.85789462299393 -7.500000184890144 3.000000000000034
    vertex 43.13336243137885 -4.635255232431487 3.000000000000034
  endloop
endfacet
facet normal -1.0367628588497512e-32 -5.237477093679425e-33 1.0
  outer loop
    vertex 41.857894651377116 7.499999765948496 3.000000000000034
    vertex 43.13336243137885 -4.635255232431487 3.000000000000034
    vertex 43.13335818427048 4.6352521237755155 3.000000000000034
  endloop
endfacet
facet normal -1.0367628588497512e-32 -5.237477093679425e-33 1.0
  outer loop
    vertex 43.13335818427048 4.6352521237755155 3.000000000000034
    vertex 43.13336243137885 -4.635255232431487 3.000000000000034
    vertex 43.785340587241485 1.5679254761893882 3.000000000000034
  endloop
endfacet
facet normal -1.0367628588497512e-32 -5.237477093679425e-33 1.0
  outer loop
    vertex 43.785340587241485 1.5679254761893882 3.000000000000034
    vertex 43.13336243137885 -4.635255232431487 3.000000000000034
    vertex 43.78533787588589 -1.5679298276047064 3.000000000000034
  endloop
endfacet
facet normal -1.0367628588497512e-32 -5.237477093679425e-33 1.0
  outer loop
    vertex 47.819219881652586 13.174681586668935 3.000000000000034
    vertex 35.319219881652764 34.82531668127978 3.000000000000034
    vertex 40.891016651377356 9.174681586669028 3.000000000000034
  endloop
endfacet
facet normal -0.5399442795769448 0.3117369751611744 -0.7818441233836164
  outer loop
    vertex -37.35047260619059 35.998066240631886 -1.8705000000000005
    vertex -48.94648064870403 13.825511146021046 -2.702899999999996
    vertex -49.85047260619047 14.347431146021137 -1.8705000000000005
  endloop
endfacet
facet normal -0.5399442795769448 0.3117369751611744 -0.7818441233836164
  outer loop
    vertex -48.94648064870403 13.825511146021046 -2.702899999999996
    vertex -37.35047260619059 35.998066240631886 -1.8705000000000005
    vertex -36.44648064870406 35.476146240631685 -2.702899999999996
  endloop
endfacet
facet normal 0.4999999999999631 0.8660254037844599 1.985731034871219e-17
  outer loop
    vertex -36.44648064870406 35.476146240631685 -2.702899999999996
    vertex -28.39101545159251 30.825321240631713 -3.0
    vertex -35.31921868186835 34.82532124063175 -3.0
  endloop
endfacet
facet normal 0.4999999999999631 0.8660254037844599 1.985731034871219e-17
  outer loop
    vertex -28.39101545159251 30.825321240631713 -3.0
    vertex -36.44648064870406 35.476146240631685 -2.702899999999996
    vertex -28.39101545159251 30.825321240631713 3.000000000000034
  endloop
endfacet
facet normal 0.4999999999999631 0.8660254037844599 1.985731034871219e-17
  outer loop
    vertex -28.39101545159251 30.825321240631713 3.000000000000034
    vertex -36.44648064870406 35.476146240631685 -2.702899999999996
    vertex -37.35047260619059 35.998066240631886 -1.8705000000000005
  endloop
endfacet
facet normal 0.4999999999999631 0.8660254037844599 1.985731034871219e-17
  outer loop
    vertex -28.39101545159251 30.825321240631713 3.000000000000034
    vertex -37.35047260619059 35.998066240631886 -1.8705000000000005
    vertex -37.85215246234862 36.28771124063175 -0.6675999999999844
  endloop
endfacet
facet normal 0.4999999999999631 0.8660254037844599 1.985731034871219e-17
  outer loop
    vertex -28.39101545159251 30.825321240631713 3.000000000000034
    vertex -37.85215246234862 36.28771124063175 -0.6675999999999844
    vertex -37.85215246234862 36.28771124063175 0.6675000000000324
  endloop
endfacet
facet normal 0.4999999999999631 0.8660254037844599 1.985731034871219e-17
  outer loop
    vertex -28.39101545159251 30.825321240631713 3.000000000000034
    vertex -37.85215246234862 36.28771124063175 0.6675000000000324
    vertex -37.35047260619059 35.998066240631886 1.8704000000000032
  endloop
endfacet
facet normal 0.4999999999999631 0.8660254037844599 1.985731034871219e-17
  outer loop
    vertex -28.39101545159251 30.825321240631713 3.000000000000034
    vertex -37.35047260619059 35.998066240631886 1.8704000000000032
    vertex -36.44648064870406 35.476146240631685 2.7029000000000303
  endloop
endfacet
facet normal 0.4999999999999631 0.8660254037844599 1.985731034871219e-17
  outer loop
    vertex -28.39101545159251 30.825321240631713 3.000000000000034
    vertex -36.44648064870406 35.476146240631685 2.7029000000000303
    vertex -35.31921868186835 34.82532124063175 3.000000000000034
  endloop
endfacet
facet normal -0.19271302435807577 0.11126291648949088 -0.974926793998922
  outer loop
    vertex -36.44648064870406 35.476146240631685 -2.702899999999996
    vertex -47.8192186818682 13.174686146021015 -3.0
    vertex -48.94648064870403 13.825511146021046 -2.702899999999996
  endloop
endfacet
facet normal -0.19271302435807577 0.11126291648949088 -0.974926793998922
  outer loop
    vertex -47.8192186818682 13.174686146021015 -3.0
    vertex -36.44648064870406 35.476146240631685 -2.702899999999996
    vertex -35.31921868186835 34.82532124063175 -3.0
  endloop
endfacet
facet normal -0.7802609409795148 0.45048386431271586 -0.4338861048427861
  outer loop
    vertex -50.352152462348734 14.637076146021245 -0.6675999999999844
    vertex -37.35047260619059 35.998066240631886 -1.8705000000000005
    vertex -49.85047260619047 14.347431146021137 -1.8705000000000005
  endloop
endfacet
facet normal -0.7802609409795148 0.45048386431271586 -0.4338861048427861
  outer loop
    vertex -37.35047260619059 35.998066240631886 -1.8705000000000005
    vertex -50.352152462348734 14.637076146021245 -0.6675999999999844
    vertex -37.85215246234862 36.28771124063175 -0.6675999999999844
  endloop
endfacet
facet normal -0.8660254037844186 0.5000000000000347 5.237477093678704e-33
  outer loop
    vertex -37.85215246234862 36.28771124063175 0.6675000000000324
    vertex -50.352152462348734 14.637076146021245 -0.6675999999999844
    vertex -50.352152462348734 14.637076146021245 0.6675000000000324
  endloop
endfacet
facet normal -0.8660254037844186 0.5000000000000347 5.237477093678704e-33
  outer loop
    vertex -50.352152462348734 14.637076146021245 -0.6675999999999844
    vertex -37.85215246234862 36.28771124063175 0.6675000000000324
    vertex -37.85215246234862 36.28771124063175 -0.6675999999999844
  endloop
endfacet
facet normal -0.19271302435807366 0.11126291648949034 0.9749267939989225
  outer loop
    vertex -47.8192186818682 13.174686146021015 3.000000000000034
    vertex -36.44648064870406 35.476146240631685 2.7029000000000303
    vertex -48.94648064870403 13.825511146021046 2.7029000000000303
  endloop
endfacet
facet normal -0.19271302435807366 0.11126291648949034 0.9749267939989225
  outer loop
    vertex -36.44648064870406 35.476146240631685 2.7029000000000303
    vertex -47.8192186818682 13.174686146021015 3.000000000000034
    vertex -35.31921868186835 34.82532124063175 3.000000000000034
  endloop
endfacet
facet normal -0.7802609409795107 0.4504838643127106 0.43388610484279877
  outer loop
    vertex -37.35047260619059 35.998066240631886 1.8704000000000032
    vertex -50.352152462348734 14.637076146021245 0.6675000000000324
    vertex -49.85047260619047 14.347431146021137 1.8704000000000032
  endloop
endfacet
facet normal -0.7802609409795107 0.4504838643127106 0.43388610484279877
  outer loop
    vertex -50.352152462348734 14.637076146021245 0.6675000000000324
    vertex -37.35047260619059 35.998066240631886 1.8704000000000032
    vertex -37.85215246234862 36.28771124063175 0.6675000000000324
  endloop
endfacet
facet normal -0.5399839280808295 0.3117598662355654 0.7818076126638702
  outer loop
    vertex -48.94648064870403 13.825511146021046 2.7029000000000303
    vertex -37.35047260619059 35.998066240631886 1.8704000000000032
    vertex -49.85047260619047 14.347431146021137 1.8704000000000032
  endloop
endfacet
facet normal -0.5399839280808295 0.3117598662355654 0.7818076126638702
  outer loop
    vertex -37.35047260619059 35.998066240631886 1.8704000000000032
    vertex -48.94648064870403 13.825511146021046 2.7029000000000303
    vertex -36.44648064870406 35.476146240631685 2.7029000000000303
  endloop
endfacet
facet normal -0.5000003577111294 -0.8660251972597233 1.219760777051963e-12
  outer loop
    vertex -40.89101969978406 9.174683693326541 3.000000000000034
    vertex -47.8192186818682 13.174686146021015 -3.0
    vertex -40.89101969978406 9.174683693326541 -3.0
  endloop
endfacet
facet normal -0.5000003577111294 -0.8660251972597233 1.219760777051963e-12
  outer loop
    vertex -47.8192186818682 13.174686146021015 -3.0
    vertex -40.89101969978406 9.174683693326541 3.000000000000034
    vertex -48.94648064870403 13.825511146021046 -2.702899999999996
  endloop
endfacet
facet normal -0.5000003577111294 -0.8660251972597233 1.219760777051963e-12
  outer loop
    vertex -48.94648064870403 13.825511146021046 -2.702899999999996
    vertex -40.89101969978406 9.174683693326541 3.000000000000034
    vertex -49.85047260619047 14.347431146021137 -1.8705000000000005
  endloop
endfacet
facet normal -0.5000003577111294 -0.8660251972597233 1.219760777051963e-12
  outer loop
    vertex -49.85047260619047 14.347431146021137 -1.8705000000000005
    vertex -40.89101969978406 9.174683693326541 3.000000000000034
    vertex -50.352152462348734 14.637076146021245 -0.6675999999999844
  endloop
endfacet
facet normal -0.5000003577111294 -0.8660251972597233 1.219760777051963e-12
  outer loop
    vertex -50.352152462348734 14.637076146021245 -0.6675999999999844
    vertex -40.89101969978406 9.174683693326541 3.000000000000034
    vertex -50.352152462348734 14.637076146021245 0.6675000000000324
  endloop
endfacet
facet normal -0.5000003577111294 -0.8660251972597233 1.219760777051963e-12
  outer loop
    vertex -50.352152462348734 14.637076146021245 0.6675000000000324
    vertex -40.89101969978406 9.174683693326541 3.000000000000034
    vertex -49.85047260619047 14.347431146021137 1.8704000000000032
  endloop
endfacet
facet normal -0.5000003577111294 -0.8660251972597233 1.219760777051963e-12
  outer loop
    vertex -49.85047260619047 14.347431146021137 1.8704000000000032
    vertex -40.89101969978406 9.174683693326541 3.000000000000034
    vertex -48.94648064870403 13.825511146021046 2.7029000000000303
  endloop
endfacet
facet normal -0.5000003577111294 -0.8660251972597233 1.219760777051963e-12
  outer loop
    vertex -48.94648064870403 13.825511146021046 2.7029000000000303
    vertex -40.89101969978406 9.174683693326541 3.000000000000034
    vertex -47.8192186818682 13.174686146021015 3.000000000000034
  endloop
endfacet
facet normal -1.0 -3.4659775050016606e-15 2.2867530313582857e-17
  outer loop
    vertex -12.500001699784649 -50.34549196127562 1.8704000000000032
    vertex -12.500001699784638 -50.92478196127531 -0.6675999999999844
    vertex -12.500001699784638 -50.92478196127531 0.6675000000000324
  endloop
endfacet
facet normal -1.0 -3.4659775050016606e-15 2.2867530313582857e-17
  outer loop
    vertex -12.500001699784638 -50.92478196127531 -0.6675999999999844
    vertex -12.500001699784649 -50.34549196127562 1.8704000000000032
    vertex -12.500001699784649 -50.34549196127562 -1.8705000000000005
  endloop
endfacet
facet normal -1.0 -3.4659775050016606e-15 2.2867530313582857e-17
  outer loop
    vertex -12.500001699784649 -50.34549196127562 -1.8705000000000005
    vertex -12.500001699784649 -50.34549196127562 1.8704000000000032
    vertex -12.500001699784388 -49.30165196127558 2.7029000000000303
  endloop
endfacet
facet normal -1.0 -3.4659775050016606e-15 2.2867530313582857e-17
  outer loop
    vertex -12.500001699784649 -50.34549196127562 -1.8705000000000005
    vertex -12.500001699784388 -49.30165196127558 2.7029000000000303
    vertex -12.500001699784388 -49.30165196127558 -2.702899999999996
  endloop
endfacet
facet normal -1.0 -3.4659775050016606e-15 2.2867530313582857e-17
  outer loop
    vertex -12.500001699784388 -49.30165196127558 -2.702899999999996
    vertex -12.500001699784388 -49.30165196127558 2.7029000000000303
    vertex -12.500001699784711 -48.00000196127515 3.000000000000034
  endloop
endfacet
facet normal -1.0 -3.4659775050016606e-15 2.2867530313582857e-17
  outer loop
    vertex -12.500001699784388 -49.30165196127558 -2.702899999999996
    vertex -12.500001699784711 -48.00000196127515 3.000000000000034
    vertex -12.500001699784711 -48.00000196127515 -3.0
  endloop
endfacet
facet normal -1.0 -3.4659775050016606e-15 2.2867530313582857e-17
  outer loop
    vertex -12.500001699784711 -48.00000196127515 -3.0
    vertex -12.500001699784711 -48.00000196127515 3.000000000000034
    vertex -12.50000169978432 -40.000001961275515 3.000000000000034
  endloop
endfacet
facet normal -1.0 -3.4659775050016606e-15 2.2867530313582857e-17
  outer loop
    vertex -12.500001699784711 -48.00000196127515 -3.0
    vertex -12.50000169978432 -40.000001961275515 3.000000000000034
    vertex -12.50000169978432 -40.000001961275515 -3.0
  endloop
endfacet
facet normal -3.64552138476526e-15 -0.22252583297897796 -0.9749267939989197
  outer loop
    vertex 12.49999830021524 -48.00000196127541 -3.0
    vertex -12.500001699784388 -49.30165196127558 -2.702899999999996
    vertex -12.500001699784711 -48.00000196127515 -3.0
  endloop
endfacet
facet normal -3.64552138476526e-15 -0.22252583297897796 -0.9749267939989197
  outer loop
    vertex -12.500001699784388 -49.30165196127558 -2.702899999999996
    vertex 12.49999830021524 -48.00000196127541 -3.0
    vertex 12.499998300215347 -49.30165196127523 -2.702899999999996
  endloop
endfacet
facet normal -1.7307336119820604e-14 -0.9009677286253785 -0.4338861048427646
  outer loop
    vertex 12.499998300215166 -50.92478196127544 -0.6675999999999844
    vertex -12.500001699784649 -50.34549196127562 -1.8705000000000005
    vertex 12.499998300215234 -50.345491961275236 -1.8705000000000005
  endloop
endfacet
facet normal -1.7307336119820604e-14 -0.9009677286253785 -0.4338861048427646
  outer loop
    vertex -12.500001699784649 -50.34549196127562 -1.8705000000000005
    vertex 12.499998300215166 -50.92478196127544 -0.6675999999999844
    vertex -12.500001699784638 -50.92478196127531 -0.6675999999999844
  endloop
endfacet
facet normal -2.076984417787031e-14 -1.0 -1.1597368281480174e-32
  outer loop
    vertex 12.499998300215166 -50.92478196127544 0.6675000000000324
    vertex -12.500001699784638 -50.92478196127531 -0.6675999999999844
    vertex 12.499998300215166 -50.92478196127544 -0.6675999999999844
  endloop
endfacet
facet normal -2.076984417787031e-14 -1.0 -1.1597368281480174e-32
  outer loop
    vertex -12.500001699784638 -50.92478196127531 -0.6675999999999844
    vertex 12.499998300215166 -50.92478196127544 0.6675000000000324
    vertex -12.500001699784638 -50.92478196127531 0.6675000000000324
  endloop
endfacet
facet normal -3.60215329786584e-15 -0.2225258329789803 0.9749267939989192
  outer loop
    vertex -12.500001699784388 -49.30165196127558 2.7029000000000303
    vertex 12.49999830021524 -48.00000196127541 3.000000000000034
    vertex -12.500001699784711 -48.00000196127515 3.000000000000034
  endloop
endfacet
facet normal -3.60215329786584e-15 -0.2225258329789803 0.9749267939989192
  outer loop
    vertex 12.49999830021524 -48.00000196127541 3.000000000000034
    vertex -12.500001699784388 -49.30165196127558 2.7029000000000303
    vertex 12.499998300215347 -49.30165196127523 2.7029000000000303
  endloop
endfacet
facet normal -1.5971599043318463e-14 -0.9009677286253724 0.433886104842777
  outer loop
    vertex 12.499998300215234 -50.345491961275236 1.8704000000000032
    vertex -12.500001699784638 -50.92478196127531 0.6675000000000324
    vertex 12.499998300215166 -50.92478196127544 0.6675000000000324
  endloop
endfacet
facet normal -1.5971599043318463e-14 -0.9009677286253724 0.433886104842777
  outer loop
    vertex -12.500001699784638 -50.92478196127531 0.6675000000000324
    vertex 12.499998300215234 -50.345491961275236 1.8704000000000032
    vertex -12.500001699784649 -50.34549196127562 1.8704000000000032
  endloop
endfacet
facet normal -1.0524567328751289e-14 -0.6235197324711267 0.7818076126638412
  outer loop
    vertex 12.499998300215234 -50.345491961275236 1.8704000000000032
    vertex -12.500001699784388 -49.30165196127558 2.7029000000000303
    vertex -12.500001699784649 -50.34549196127562 1.8704000000000032
  endloop
endfacet
facet normal -1.0524567328751289e-14 -0.6235197324711267 0.7818076126638412
  outer loop
    vertex -12.500001699784388 -49.30165196127558 2.7029000000000303
    vertex 12.499998300215234 -50.345491961275236 1.8704000000000032
    vertex 12.499998300215347 -49.30165196127523 2.7029000000000303
  endloop
endfacet
facet normal 0.9999999999998156 -6.075081066536648e-07 1.79402947433268e-12
  outer loop
    vertex 12.499998300215234 -50.345491961275236 -1.8705000000000005
    vertex 12.499998300215166 -50.92478196127544 0.6675000000000324
    vertex 12.499998300215166 -50.92478196127544 -0.6675999999999844
  endloop
endfacet
facet normal 0.9999999999998156 -6.075081066536648e-07 1.79402947433268e-12
  outer loop
    vertex 12.499998300215166 -50.92478196127544 0.6675000000000324
    vertex 12.499998300215234 -50.345491961275236 -1.8705000000000005
    vertex 12.499998300215234 -50.345491961275236 1.8704000000000032
  endloop
endfacet
facet normal 0.9999999999998156 -6.075081066536648e-07 1.79402947433268e-12
  outer loop
    vertex 12.499998300215234 -50.345491961275236 1.8704000000000032
    vertex 12.499998300215234 -50.345491961275236 -1.8705000000000005
    vertex 12.499998300215347 -49.30165196127523 -2.702899999999996
  endloop
endfacet
facet normal 0.9999999999998156 -6.075081066536648e-07 1.79402947433268e-12
  outer loop
    vertex 12.499998300215234 -50.345491961275236 1.8704000000000032
    vertex 12.499998300215347 -49.30165196127523 -2.702899999999996
    vertex 12.499998300215347 -49.30165196127523 2.7029000000000303
  endloop
endfacet
facet normal 0.9999999999998156 -6.075081066536648e-07 1.79402947433268e-12
  outer loop
    vertex 12.499998300215347 -49.30165196127523 2.7029000000000303
    vertex 12.499998300215347 -49.30165196127523 -2.702899999999996
    vertex 12.49999830021524 -48.00000196127541 -3.0
  endloop
endfacet
facet normal 0.9999999999998156 -6.075081066536648e-07 1.79402947433268e-12
  outer loop
    vertex 12.499998300215347 -49.30165196127523 2.7029000000000303
    vertex 12.49999830021524 -48.00000196127541 -3.0
    vertex 12.49999830021524 -48.00000196127541 3.000000000000034
  endloop
endfacet
facet normal 0.9999999999998156 -6.075081066536648e-07 1.79402947433268e-12
  outer loop
    vertex 12.49999830021524 -48.00000196127541 3.000000000000034
    vertex 12.49999830021524 -48.00000196127541 -3.0
    vertex 12.500004548406793 -40.000002972682566 -3.0
  endloop
endfacet
facet normal 0.9999999999998156 -6.075081066536648e-07 1.79402947433268e-12
  outer loop
    vertex 12.49999830021524 -48.00000196127541 3.000000000000034
    vertex 12.500004548406793 -40.000002972682566 -3.0
    vertex 12.500004548406793 -40.000002972682566 3.000000000000034
  endloop
endfacet
facet normal -1.074661193367632e-14 -0.6234739503223542 -0.78184412338358
  outer loop
    vertex -12.500001699784388 -49.30165196127558 -2.702899999999996
    vertex 12.499998300215234 -50.345491961275236 -1.8705000000000005
    vertex -12.500001699784649 -50.34549196127562 -1.8705000000000005
  endloop
endfacet
facet normal -1.074661193367632e-14 -0.6234739503223542 -0.78184412338358
  outer loop
    vertex 12.499998300215234 -50.345491961275236 -1.8705000000000005
    vertex -12.500001699784388 -49.30165196127558 -2.702899999999996
    vertex 12.499998300215347 -49.30165196127523 -2.702899999999996
  endloop
endfacet
endsolid EE
