solid Link1
facet normal 0.0 1.9290125052862095e-15 -1.0
  outer loop
    vertex 25.749999999999993 9.999998749999996 25.000000000000004
    vertex -25.749999999999993 -10.000001250000022 24.999999999999964
    vertex -25.749999999999993 9.999998749999996 25.000000000000004
  endloop
endfacet
facet normal 0.0 1.9290125052862095e-15 -1.0
  outer loop
    vertex -25.749999999999993 -10.000001250000022 24.999999999999964
    vertex 25.749999999999993 9.999998749999996 25.000000000000004
    vertex 25.749999999999993 -10.000001250000022 24.999999999999964
  endloop
endfacet
facet normal -1.654157750735744e-17 0.5773501325117418 0.8164966775735676
  outer loop
    vertex 12.499999999999982 2.9999987499999676 49.19548069599997
    vertex -12.500000000000005 9.999898749999968 44.24580569599995
    vertex -12.500000000000005 2.9999987499999676 49.19548069599997
  endloop
endfacet
facet normal -1.654157750735744e-17 0.5773501325117418 0.8164966775735676
  outer loop
    vertex -12.500000000000005 9.999898749999968 44.24580569599995
    vertex 12.499999999999982 2.9999987499999676 49.19548069599997
    vertex 12.499999999999982 9.999898749999968 44.24580569599995
  endloop
endfacet
facet normal 0.7071067811865471 -4.163336342344337e-17 0.7071067811865479
  outer loop
    vertex 27.74999999999999 -10.000001250000016 28.99580569599998
    vertex 12.499999999999982 9.999898749999968 44.24580569599995
    vertex 12.499999999999982 -10.000001250000013 44.24580569599997
  endloop
endfacet
facet normal 0.7071067811865471 -4.163336342344337e-17 0.7071067811865479
  outer loop
    vertex 12.499999999999982 9.999898749999968 44.24580569599995
    vertex 27.74999999999999 -10.000001250000016 28.99580569599998
    vertex 27.74999999999999 9.999998749999977 28.995805695999973
  endloop
endfacet
facet normal -0.7071067811865474 -1.387778780781446e-17 0.7071067811865478
  outer loop
    vertex -12.500000000000005 -10.000001250000013 44.24580569599997
    vertex -27.750000000000007 9.999998749999977 28.995805695999973
    vertex -27.750000000000007 -10.000001250000016 28.99580569599998
  endloop
endfacet
facet normal -0.7071067811865474 -1.387778780781446e-17 0.7071067811865478
  outer loop
    vertex -27.750000000000007 9.999998749999977 28.995805695999973
    vertex -12.500000000000005 -10.000001250000013 44.24580569599997
    vertex -12.500000000000005 9.999898749999968 44.24580569599995
  endloop
endfacet
facet normal -1.0 2.332008630386445e-32 -1.9849012903586962e-33
  outer loop
    vertex -12.500000000000005 2.999998749999991 99.99580569599989
    vertex -12.500000000000005 2.9999987499999676 49.19548069599997
    vertex -12.500000000000005 2.5550377500000145 101.56799569599988
  endloop
endfacet
facet normal -1.0 2.332008630386445e-32 -1.9849012903586962e-33
  outer loop
    vertex -12.500000000000005 -0.9000012500000192 102.85762569599991
    vertex -12.500000000000005 -10.000001250000013 44.24580569599997
    vertex -12.500000000000005 -10.000001250000023 99.9958056959999
  endloop
endfacet
facet normal -1.0 2.332008630386445e-32 -1.9849012903586962e-33
  outer loop
    vertex -12.500000000000005 -10.000001250000013 44.24580569599997
    vertex -12.500000000000005 -0.9000012500000192 102.85762569599991
    vertex -12.500000000000005 2.9999987499999676 49.19548069599997
  endloop
endfacet
facet normal -1.0 2.332008630386445e-32 -1.9849012903586962e-33
  outer loop
    vertex -12.500000000000005 -10.000001250000013 44.24580569599997
    vertex -12.500000000000005 2.9999987499999676 49.19548069599997
    vertex -12.500000000000005 9.999898749999968 44.24580569599995
  endloop
endfacet
facet normal -1.0 2.332008630386445e-32 -1.9849012903586962e-33
  outer loop
    vertex -12.500000000000005 2.9999987499999676 49.19548069599997
    vertex -12.500000000000005 -0.9000012500000192 102.85762569599991
    vertex -12.500000000000005 0.4085217499999886 102.96785569599979
  endloop
endfacet
facet normal -1.0 2.332008630386445e-32 -1.9849012903586962e-33
  outer loop
    vertex -12.500000000000005 2.9999987499999676 49.19548069599997
    vertex -12.500000000000005 0.4085217499999886 102.96785569599979
    vertex -12.500000000000005 1.6387727499999794 102.50865569599983
  endloop
endfacet
facet normal -1.0 2.332008630386445e-32 -1.9849012903586962e-33
  outer loop
    vertex -12.500000000000005 2.9999987499999676 49.19548069599997
    vertex -12.500000000000005 1.6387727499999794 102.50865569599983
    vertex -12.500000000000005 2.5550377500000145 101.56799569599988
  endloop
endfacet
facet normal -2.549698022979791e-06 0.9999999999959354 -1.2761871854422015e-06
  outer loop
    vertex -24.92157350969708 10.0000059616334 28.995805696030413
    vertex -25.749999999999993 9.999998749999996 25.000000000000004
    vertex -27.750000000000007 9.999998749999977 28.995805695999973
  endloop
endfacet
facet normal -2.5496980229879125e-06 0.9999999999552802 9.107075071811133e-06
  outer loop
    vertex -12.500000000000005 9.999898749999968 44.24580569599995
    vertex -24.92157350969708 10.0000059616334 28.995805696030413
    vertex -27.750000000000007 9.999998749999977 28.995805695999973
  endloop
endfacet
facet normal 2.590531651222416e-07 0.9999999999804431 6.24873976225182e-06
  outer loop
    vertex -24.92157350969708 10.0000059616334 28.995805696030413
    vertex 24.921574679616395 10.0000059616334 28.995805696030413
    vertex 25.749999999999993 9.999998749999996 25.000000000000004
  endloop
endfacet
facet normal 2.590531651222416e-07 0.9999999999804431 6.24873976225182e-06
  outer loop
    vertex 24.921574679616395 10.0000059616334 28.995805696030413
    vertex -24.92157350969708 10.0000059616334 28.995805696030413
    vertex -12.500000000000005 9.999898749999968 44.24580569599995
  endloop
endfacet
facet normal 2.590531651222416e-07 0.9999999999804431 6.24873976225182e-06
  outer loop
    vertex 24.921574679616395 10.0000059616334 28.995805696030413
    vertex -12.500000000000005 9.999898749999968 44.24580569599995
    vertex 12.499999999999982 9.999898749999968 44.24580569599995
  endloop
endfacet
facet normal 2.5496990776175233e-06 0.9999999999552801 9.107076126231572e-06
  outer loop
    vertex 12.499999999999982 9.999898749999968 44.24580569599995
    vertex 27.74999999999999 9.999998749999977 28.995805695999973
    vertex 24.921574679616395 10.0000059616334 28.995805696030413
  endloop
endfacet
facet normal 2.5496990776093685e-06 0.9999999999959353 -1.2761877129785495e-06
  outer loop
    vertex 24.921574679616395 10.0000059616334 28.995805696030413
    vertex 27.74999999999999 9.999998749999977 28.995805695999973
    vertex 25.749999999999993 9.999998749999996 25.000000000000004
  endloop
endfacet
facet normal -1.2195603353825083e-23 0.9999999999983713 -1.8048008228674361e-06
  outer loop
    vertex -24.92157350969708 10.0000059616334 28.995805696030413
    vertex 25.749999999999993 9.999998749999996 25.000000000000004
    vertex -25.749999999999993 9.999998749999996 25.000000000000004
  endloop
endfacet
facet normal 0.0 0.9622057946834816 0.27232335316224676
  outer loop
    vertex -12.500000000000005 2.5550377500000145 101.56799569599988
    vertex 12.499999999999982 2.999998749999991 99.99580569599989
    vertex -12.500000000000005 2.999998749999991 99.99580569599989
  endloop
endfacet
facet normal 0.0 0.9622057946834816 0.27232335316224676
  outer loop
    vertex 12.499999999999982 2.999998749999991 99.99580569599989
    vertex -12.500000000000005 2.5550377500000145 101.56799569599988
    vertex 12.499999999999982 2.5550377500000145 101.56799569599988
  endloop
endfacet
facet normal 0.0 0.716334449384737 0.6977570899852368
  outer loop
    vertex -12.500000000000005 1.6387727499999794 102.50865569599983
    vertex 12.499999999999982 2.5550377500000145 101.56799569599988
    vertex -12.500000000000005 2.5550377500000145 101.56799569599988
  endloop
endfacet
facet normal 0.0 0.716334449384737 0.6977570899852368
  outer loop
    vertex 12.499999999999982 2.5550377500000145 101.56799569599988
    vertex -12.500000000000005 1.6387727499999794 102.50865569599983
    vertex 12.499999999999982 1.6387727499999794 102.50865569599983
  endloop
endfacet
facet normal 0.0 -0.30000022853987873 0.9539391295444488
  outer loop
    vertex 12.499999999999982 -10.000001250000023 99.9958056959999
    vertex -12.500000000000005 -0.9000012500000192 102.85762569599991
    vertex -12.500000000000005 -10.000001250000023 99.9958056959999
  endloop
endfacet
facet normal 0.0 -0.30000022853987873 0.9539391295444488
  outer loop
    vertex -12.500000000000005 -0.9000012500000192 102.85762569599991
    vertex 12.499999999999982 -10.000001250000023 99.9958056959999
    vertex 12.499999999999982 -0.9000012500000192 102.85762569599991
  endloop
endfacet
facet normal 0.0 -0.08394269905172001 0.9964705832466467
  outer loop
    vertex 12.499999999999982 -0.9000012500000192 102.85762569599991
    vertex -12.500000000000005 0.4085217499999886 102.96785569599979
    vertex -12.500000000000005 -0.9000012500000192 102.85762569599991
  endloop
endfacet
facet normal 0.0 -0.08394269905172001 0.9964705832466467
  outer loop
    vertex -12.500000000000005 0.4085217499999886 102.96785569599979
    vertex 12.499999999999982 -0.9000012500000192 102.85762569599991
    vertex 12.499999999999982 0.4085217499999886 102.96785569599979
  endloop
endfacet
facet normal 1.0 0.0 0.0
  outer loop
    vertex 12.499999999999982 2.999998749999991 99.99580569599989
    vertex 12.499999999999982 2.5550377500000145 101.56799569599988
    vertex 12.499999999999982 2.9999987499999676 49.19548069599997
  endloop
endfacet
facet normal 1.0 0.0 0.0
  outer loop
    vertex 12.499999999999982 -10.000001250000013 44.24580569599997
    vertex 12.499999999999982 -0.9000012500000192 102.85762569599991
    vertex 12.499999999999982 -10.000001250000023 99.9958056959999
  endloop
endfacet
facet normal 1.0 0.0 0.0
  outer loop
    vertex 12.499999999999982 -0.9000012500000192 102.85762569599991
    vertex 12.499999999999982 -10.000001250000013 44.24580569599997
    vertex 12.499999999999982 2.9999987499999676 49.19548069599997
  endloop
endfacet
facet normal 1.0 0.0 0.0
  outer loop
    vertex 12.499999999999982 2.9999987499999676 49.19548069599997
    vertex 12.499999999999982 -10.000001250000013 44.24580569599997
    vertex 12.499999999999982 9.999898749999968 44.24580569599995
  endloop
endfacet
facet normal 1.0 0.0 0.0
  outer loop
    vertex 12.499999999999982 -0.9000012500000192 102.85762569599991
    vertex 12.499999999999982 2.9999987499999676 49.19548069599997
    vertex 12.499999999999982 0.4085217499999886 102.96785569599979
  endloop
endfacet
facet normal 1.0 0.0 0.0
  outer loop
    vertex 12.499999999999982 0.4085217499999886 102.96785569599979
    vertex 12.499999999999982 2.9999987499999676 49.19548069599997
    vertex 12.499999999999982 1.6387727499999794 102.50865569599983
  endloop
endfacet
facet normal 1.0 0.0 0.0
  outer loop
    vertex 12.499999999999982 1.6387727499999794 102.50865569599983
    vertex 12.499999999999982 2.9999987499999676 49.19548069599997
    vertex 12.499999999999982 2.5550377500000145 101.56799569599988
  endloop
endfacet
facet normal 0.0 0.34969153420149557 0.9368648946928284
  outer loop
    vertex 12.499999999999982 0.4085217499999886 102.96785569599979
    vertex -12.500000000000005 1.6387727499999794 102.50865569599983
    vertex -12.500000000000005 0.4085217499999886 102.96785569599979
  endloop
endfacet
facet normal 0.0 0.34969153420149557 0.9368648946928284
  outer loop
    vertex -12.500000000000005 1.6387727499999794 102.50865569599983
    vertex 12.499999999999982 0.4085217499999886 102.96785569599979
    vertex 12.499999999999982 1.6387727499999794 102.50865569599983
  endloop
endfacet
facet normal 1.0 0.0 0.0
  outer loop
    vertex 27.74999999999999 9.99999875000004 -3.3134606169937796e-14
    vertex 27.74999999999999 9.99999874999997 26.995805695999994
    vertex 27.74999999999999 9.646354549999897 -2.635869999999984
  endloop
endfacet
facet normal 1.0 0.0 0.0
  outer loop
    vertex 27.74999999999999 9.99999874999997 26.995805695999994
    vertex 27.74999999999999 9.99999875000004 -3.3134606169937796e-14
    vertex 27.74999999999999 9.999998749999992 25.499999999999904
  endloop
endfacet
facet normal 1.0 0.0 0.0
  outer loop
    vertex 27.74999999999999 -10.00000124999993 1.6038559369491168e-14
    vertex 27.74999999999999 9.999998749999977 28.995805695999973
    vertex 27.74999999999999 -10.000001250000016 28.99580569599998
  endloop
endfacet
facet normal 1.0 0.0 0.0
  outer loop
    vertex 27.74999999999999 9.999998749999977 28.995805695999973
    vertex 27.74999999999999 -10.00000124999993 1.6038559369491168e-14
    vertex 27.74999999999999 -9.564011249999995 -2.9205700000000077
  endloop
endfacet
facet normal 1.0 0.0 0.0
  outer loop
    vertex 27.74999999999999 9.999998749999977 28.995805695999973
    vertex 27.74999999999999 -9.564011249999995 -2.9205700000000077
    vertex 27.74999999999999 -8.294061250000034 -5.586469999999977
  endloop
endfacet
facet normal 1.0 0.0 0.0
  outer loop
    vertex 27.74999999999999 9.999998749999977 28.995805695999973
    vertex 27.74999999999999 -8.294061250000034 -5.586469999999977
    vertex 27.74999999999999 -6.300881250000036 -7.76523999999999
  endloop
endfacet
facet normal 1.0 0.0 0.0
  outer loop
    vertex 27.74999999999999 9.999998749999977 28.995805695999973
    vertex 27.74999999999999 -6.300881250000036 -7.76523999999999
    vertex 27.74999999999999 -3.7582812500000196 -9.26689999999997
  endloop
endfacet
facet normal 1.0 0.0 0.0
  outer loop
    vertex 27.74999999999999 9.999998749999977 28.995805695999973
    vertex 27.74999999999999 -3.7582812500000196 -9.26689999999997
    vertex 27.74999999999999 -0.8879612499999858 -9.96050000000005
  endloop
endfacet
facet normal 1.0 0.0 0.0
  outer loop
    vertex 27.74999999999999 9.999998749999977 28.995805695999973
    vertex 27.74999999999999 -0.8879612499999858 -9.96050000000005
    vertex 27.74999999999999 2.059784750000003 -9.78555999999995
  endloop
endfacet
facet normal 1.0 0.0 0.0
  outer loop
    vertex 27.74999999999999 9.999998749999977 28.995805695999973
    vertex 27.74999999999999 2.059784750000003 -9.78555999999995
    vertex 27.74999999999999 4.827920749999953 -8.757349999999976
  endloop
endfacet
facet normal 1.0 0.0 0.0
  outer loop
    vertex 27.74999999999999 9.999998749999977 28.995805695999973
    vertex 27.74999999999999 4.827920749999953 -8.757349999999976
    vertex 27.74999999999999 7.175071750000043 -6.965509999999991
  endloop
endfacet
facet normal 1.0 0.0 0.0
  outer loop
    vertex 27.74999999999999 9.999998749999977 28.995805695999973
    vertex 27.74999999999999 7.175071750000043 -6.965509999999991
    vertex 27.74999999999999 8.89656975000001 -4.566290000000029
  endloop
endfacet
facet normal 1.0 0.0 0.0
  outer loop
    vertex 27.74999999999999 9.999998749999977 28.995805695999973
    vertex 27.74999999999999 8.89656975000001 -4.566290000000029
    vertex 27.74999999999999 9.646354549999897 -2.635869999999984
  endloop
endfacet
facet normal 1.0 0.0 0.0
  outer loop
    vertex 27.74999999999999 9.999998749999977 28.995805695999973
    vertex 27.74999999999999 9.646354549999897 -2.635869999999984
    vertex 27.74999999999999 9.99999874999997 26.995805695999994
  endloop
endfacet
facet normal 0.0 -0.9027982259003684 -0.4300643711250066
  outer loop
    vertex 27.74999999999999 -9.564011249999995 -2.9205700000000077
    vertex 25.749999999999993 -8.294061250000034 -5.586469999999977
    vertex 27.74999999999999 -8.294061250000034 -5.586469999999977
  endloop
endfacet
facet normal 0.0 -0.9027982259003684 -0.4300643711250066
  outer loop
    vertex 25.749999999999993 -8.294061250000034 -5.586469999999977
    vertex 27.74999999999999 -9.564011249999995 -2.9205700000000077
    vertex 25.749999999999993 -9.564011249999995 -2.9205700000000077
  endloop
endfacet
facet normal 0.0 -0.7378328628185181 -0.6749834564972906
  outer loop
    vertex 27.74999999999999 -8.294061250000034 -5.586469999999977
    vertex 25.749999999999993 -6.300881250000036 -7.76523999999999
    vertex 27.74999999999999 -6.300881250000036 -7.76523999999999
  endloop
endfacet
facet normal 0.0 -0.7378328628185181 -0.6749834564972906
  outer loop
    vertex 25.749999999999993 -6.300881250000036 -7.76523999999999
    vertex 27.74999999999999 -8.294061250000034 -5.586469999999977
    vertex 25.749999999999993 -8.294061250000034 -5.586469999999977
  endloop
endfacet
facet normal 0.0 -0.5085321473094244 -0.86104300424129
  outer loop
    vertex 27.74999999999999 -3.7582812500000196 -9.26689999999997
    vertex 25.749999999999993 -6.300881250000036 -7.76523999999999
    vertex 25.749999999999993 -3.7582812500000196 -9.26689999999997
  endloop
endfacet
facet normal 0.0 -0.5085321473094244 -0.86104300424129
  outer loop
    vertex 25.749999999999993 -6.300881250000036 -7.76523999999999
    vertex 27.74999999999999 -3.7582812500000196 -9.26689999999997
    vertex 27.74999999999999 -6.300881250000036 -7.76523999999999
  endloop
endfacet
facet normal 0.0 -0.23488505111550584 -0.9720231544374169
  outer loop
    vertex 27.74999999999999 -0.8879612499999858 -9.96050000000005
    vertex 25.749999999999993 -3.7582812500000196 -9.26689999999997
    vertex 25.749999999999993 -0.8879612499999858 -9.96050000000005
  endloop
endfacet
facet normal 0.0 -0.23488505111550584 -0.9720231544374169
  outer loop
    vertex 25.749999999999993 -3.7582812500000196 -9.26689999999997
    vertex 27.74999999999999 -0.8879612499999858 -9.96050000000005
    vertex 27.74999999999999 -3.7582812500000196 -9.26689999999997
  endloop
endfacet
facet normal 0.0 0.05924280309498934 -0.9982436026749426
  outer loop
    vertex 27.74999999999999 2.059784750000003 -9.78555999999995
    vertex 25.749999999999993 -0.8879612499999858 -9.96050000000005
    vertex 25.749999999999993 2.059784750000003 -9.78555999999995
  endloop
endfacet
facet normal 0.0 0.05924280309498934 -0.9982436026749426
  outer loop
    vertex 25.749999999999993 -0.8879612499999858 -9.96050000000005
    vertex 27.74999999999999 2.059784750000003 -9.78555999999995
    vertex 27.74999999999999 -0.8879612499999858 -9.96050000000005
  endloop
endfacet
facet normal 0.0 0.3481999806946551 -0.9374202757804216
  outer loop
    vertex 27.74999999999999 4.827920749999953 -8.757349999999976
    vertex 25.749999999999993 2.059784750000003 -9.78555999999995
    vertex 25.749999999999993 4.827920749999953 -8.757349999999976
  endloop
endfacet
facet normal 0.0 0.3481999806946551 -0.9374202757804216
  outer loop
    vertex 25.749999999999993 2.059784750000003 -9.78555999999995
    vertex 27.74999999999999 4.827920749999953 -8.757349999999976
    vertex 27.74999999999999 2.059784750000003 -9.78555999999995
  endloop
endfacet
facet normal 0.0 0.6068002570533312 -0.7948543564955854
  outer loop
    vertex 27.74999999999999 7.175071750000043 -6.965509999999991
    vertex 25.749999999999993 4.827920749999953 -8.757349999999976
    vertex 25.749999999999993 7.175071750000043 -6.965509999999991
  endloop
endfacet
facet normal 0.0 0.6068002570533312 -0.7948543564955854
  outer loop
    vertex 25.749999999999993 4.827920749999953 -8.757349999999976
    vertex 27.74999999999999 7.175071750000043 -6.965509999999991
    vertex 27.74999999999999 4.827920749999953 -8.757349999999976
  endloop
endfacet
facet normal 0.0 0.8124871722398295 -0.582979069045987
  outer loop
    vertex 25.749999999999993 8.89656975000001 -4.566290000000029
    vertex 27.74999999999999 7.175071750000043 -6.965509999999991
    vertex 25.749999999999993 7.175071750000043 -6.965509999999991
  endloop
endfacet
facet normal 0.0 0.8124871722398295 -0.582979069045987
  outer loop
    vertex 27.74999999999999 7.175071750000043 -6.965509999999991
    vertex 25.749999999999993 8.89656975000001 -4.566290000000029
    vertex 27.74999999999999 8.89656975000001 -4.566290000000029
  endloop
endfacet
facet normal 0.0 0.9321569548694733 -0.3620544316652824
  outer loop
    vertex 25.749999999999993 9.646354549999897 -2.635869999999984
    vertex 27.74999999999999 8.89656975000001 -4.566290000000029
    vertex 25.749999999999993 8.89656975000001 -4.566290000000029
  endloop
endfacet
facet normal 0.0 0.9321569548694733 -0.3620544316652824
  outer loop
    vertex 27.74999999999999 8.89656975000001 -4.566290000000029
    vertex 25.749999999999993 9.646354549999897 -2.635869999999984
    vertex 27.74999999999999 9.646354549999897 -2.635869999999984
  endloop
endfacet
facet normal 0.0 0.9911194515257429 -0.132974556992346
  outer loop
    vertex 25.749999999999993 9.99999875000004 -3.3134606169937796e-14
    vertex 27.74999999999999 9.646354549999897 -2.635869999999984
    vertex 25.749999999999993 9.646354549999897 -2.635869999999984
  endloop
endfacet
facet normal 0.0 0.9911194515257429 -0.132974556992346
  outer loop
    vertex 27.74999999999999 9.646354549999897 -2.635869999999984
    vertex 25.749999999999993 9.99999875000004 -3.3134606169937796e-14
    vertex 27.74999999999999 9.99999875000004 -3.3134606169937796e-14
  endloop
endfacet
facet normal -1.0 0.0 0.0
  outer loop
    vertex 25.749999999999993 9.999998749999996 25.000000000000004
    vertex 25.749999999999993 -9.991424492411987 5.884864449420823e-06
    vertex 25.749999999999993 -10.000001250000022 24.999999999999964
  endloop
endfacet
facet normal -1.0 0.0 0.0
  outer loop
    vertex 25.749999999999993 -9.991424492411987 5.884864449420823e-06
    vertex 25.749999999999993 9.999998749999996 25.000000000000004
    vertex 25.749999999999993 -9.564011249999995 -2.9205700000000077
  endloop
endfacet
facet normal -1.0 0.0 0.0
  outer loop
    vertex 25.749999999999993 -9.564011249999995 -2.9205700000000077
    vertex 25.749999999999993 9.999998749999996 25.000000000000004
    vertex 25.749999999999993 -8.294061250000034 -5.586469999999977
  endloop
endfacet
facet normal -1.0 0.0 0.0
  outer loop
    vertex 25.749999999999993 -8.294061250000034 -5.586469999999977
    vertex 25.749999999999993 9.999998749999996 25.000000000000004
    vertex 25.749999999999993 -6.300881250000036 -7.76523999999999
  endloop
endfacet
facet normal -1.0 0.0 0.0
  outer loop
    vertex 25.749999999999993 -6.300881250000036 -7.76523999999999
    vertex 25.749999999999993 9.999998749999996 25.000000000000004
    vertex 25.749999999999993 -3.7582812500000196 -9.26689999999997
  endloop
endfacet
facet normal -1.0 0.0 0.0
  outer loop
    vertex 25.749999999999993 -3.7582812500000196 -9.26689999999997
    vertex 25.749999999999993 9.999998749999996 25.000000000000004
    vertex 25.749999999999993 -0.8879612499999858 -9.96050000000005
  endloop
endfacet
facet normal -1.0 0.0 0.0
  outer loop
    vertex 25.749999999999993 -0.8879612499999858 -9.96050000000005
    vertex 25.749999999999993 9.999998749999996 25.000000000000004
    vertex 25.749999999999993 2.059784750000003 -9.78555999999995
  endloop
endfacet
facet normal -1.0 0.0 0.0
  outer loop
    vertex 25.749999999999993 2.059784750000003 -9.78555999999995
    vertex 25.749999999999993 9.999998749999996 25.000000000000004
    vertex 25.749999999999993 4.827920749999953 -8.757349999999976
  endloop
endfacet
facet normal -1.0 0.0 0.0
  outer loop
    vertex 25.749999999999993 4.827920749999953 -8.757349999999976
    vertex 25.749999999999993 9.999998749999996 25.000000000000004
    vertex 25.749999999999993 7.175071750000043 -6.965509999999991
  endloop
endfacet
facet normal -1.0 0.0 0.0
  outer loop
    vertex 25.749999999999993 7.175071750000043 -6.965509999999991
    vertex 25.749999999999993 9.999998749999996 25.000000000000004
    vertex 25.749999999999993 8.89656975000001 -4.566290000000029
  endloop
endfacet
facet normal -1.0 0.0 0.0
  outer loop
    vertex 25.749999999999993 8.89656975000001 -4.566290000000029
    vertex 25.749999999999993 9.999998749999996 25.000000000000004
    vertex 25.749999999999993 9.646354549999897 -2.635869999999984
  endloop
endfacet
facet normal -1.0 0.0 0.0
  outer loop
    vertex 25.749999999999993 9.646354549999897 -2.635869999999984
    vertex 25.749999999999993 9.999998749999996 25.000000000000004
    vertex 25.749999999999993 9.99999875000004 -3.3134606169937796e-14
  endloop
endfacet
facet normal 8.01179187123208e-15 1.0 1.9775847626135605e-15
  outer loop
    vertex 25.749999999999993 9.999998749999996 25.000000000000004
    vertex 27.74999999999999 9.99999874999997 26.995805695999994
    vertex 25.749999999999993 9.99999875000004 -3.3134606169937796e-14
  endloop
endfacet
facet normal 8.01179187123208e-15 1.0 1.9775847626135605e-15
  outer loop
    vertex 27.74999999999999 9.99999874999997 26.995805695999994
    vertex 25.749999999999993 9.999998749999996 25.000000000000004
    vertex 27.74999999999999 9.999998749999977 28.995805695999973
  endloop
endfacet
facet normal -1.8337007700281642e-16 1.0 2.456368441983159e-15
  outer loop
    vertex 27.74999999999999 9.99999874999997 26.995805695999994
    vertex 27.74999999999999 9.99999875000004 -3.3134606169937796e-14
    vertex 25.749999999999993 9.99999875000004 -3.3134606169937796e-14
  endloop
endfacet
facet normal -1.8337007700281642e-16 1.0 2.456368441983159e-15
  outer loop
    vertex 27.74999999999999 9.99999875000004 -3.3134606169937796e-14
    vertex 27.74999999999999 9.99999874999997 26.995805695999994
    vertex 27.74999999999999 9.999998749999992 25.499999999999904
  endloop
endfacet
facet normal -3.067311615847876e-17 -0.9894604868268874 -0.14480312499493564
  outer loop
    vertex 25.749999999999993 -9.991424492411987 5.884864449420823e-06
    vertex 25.749999999999993 -9.564011249999995 -2.9205700000000077
    vertex 27.74999999999999 -9.564011249999995 -2.9205700000000077
  endloop
endfacet
facet normal -0.004241775350251602 -0.9890313142588162 -0.1476450702101394
  outer loop
    vertex 25.749999999999993 -9.991424492411987 5.884864449420823e-06
    vertex 27.74999999999999 -9.564011249999995 -2.9205700000000077
    vertex 27.74999999999999 -10.00000124999993 1.6038559369491168e-14
  endloop
endfacet
facet normal 1.0 0.0 0.0
  outer loop
    vertex -25.749999999999993 -10.000001249999947 -3.2958358264778555e-14
    vertex -25.749999999999993 9.999998749999996 25.000000000000004
    vertex -25.749999999999993 -10.000001250000022 24.999999999999964
  endloop
endfacet
facet normal 1.0 0.0 0.0
  outer loop
    vertex -25.749999999999993 9.999998749999996 25.000000000000004
    vertex -25.749999999999993 -10.000001249999947 -3.2958358264778555e-14
    vertex -25.749999999999993 -9.564011250000021 -2.9205700000000667
  endloop
endfacet
facet normal 1.0 0.0 0.0
  outer loop
    vertex -25.749999999999993 9.999998749999996 25.000000000000004
    vertex -25.749999999999993 -9.564011250000021 -2.9205700000000667
    vertex -25.749999999999993 -8.294061250000048 -5.586470000000034
  endloop
endfacet
facet normal 1.0 0.0 0.0
  outer loop
    vertex -25.749999999999993 9.999998749999996 25.000000000000004
    vertex -25.749999999999993 -8.294061250000048 -5.586470000000034
    vertex -25.749999999999993 -6.300881250000058 -7.765240000000042
  endloop
endfacet
facet normal 1.0 0.0 0.0
  outer loop
    vertex -25.749999999999993 9.999998749999996 25.000000000000004
    vertex -25.749999999999993 -6.300881250000058 -7.765240000000042
    vertex -25.749999999999993 -3.7582812500000364 -9.266900000000025
  endloop
endfacet
facet normal 1.0 0.0 0.0
  outer loop
    vertex -25.749999999999993 9.999998749999996 25.000000000000004
    vertex -25.749999999999993 -3.7582812500000364 -9.266900000000025
    vertex -25.749999999999993 -0.8879612500000035 -9.960500000000101
  endloop
endfacet
facet normal 1.0 0.0 0.0
  outer loop
    vertex -25.749999999999993 9.999998749999996 25.000000000000004
    vertex -25.749999999999993 -0.8879612500000035 -9.960500000000101
    vertex -25.749999999999993 2.059784749999987 -9.785559999999997
  endloop
endfacet
facet normal 1.0 0.0 0.0
  outer loop
    vertex -25.749999999999993 9.999998749999996 25.000000000000004
    vertex -25.749999999999993 2.059784749999987 -9.785559999999997
    vertex -25.749999999999993 4.827920749999937 -8.757350000000034
  endloop
endfacet
facet normal 1.0 0.0 0.0
  outer loop
    vertex -25.749999999999993 9.999998749999996 25.000000000000004
    vertex -25.749999999999993 4.827920749999937 -8.757350000000034
    vertex -25.749999999999993 7.175071750000028 -6.965510000000035
  endloop
endfacet
facet normal 1.0 0.0 0.0
  outer loop
    vertex -25.749999999999993 9.999998749999996 25.000000000000004
    vertex -25.749999999999993 7.175071750000028 -6.965510000000035
    vertex -25.749999999999993 8.896569749999994 -4.566290000000078
  endloop
endfacet
facet normal 1.0 0.0 0.0
  outer loop
    vertex -25.749999999999993 9.999998749999996 25.000000000000004
    vertex -25.749999999999993 8.896569749999994 -4.566290000000078
    vertex -25.749999999999993 9.646354549999886 -2.6358700000000317
  endloop
endfacet
facet normal 1.0 0.0 0.0
  outer loop
    vertex -25.749999999999993 9.999998749999996 25.000000000000004
    vertex -25.749999999999993 9.646354549999886 -2.6358700000000317
    vertex -25.749999999999993 9.99999875000003 -8.177902799388902e-14
  endloop
endfacet
facet normal 0.0 0.8124871722398295 -0.582979069045987
  outer loop
    vertex -27.75 8.896569749999994 -4.566290000000078
    vertex -25.749999999999993 7.175071750000028 -6.965510000000035
    vertex -27.75 7.175071750000028 -6.965510000000035
  endloop
endfacet
facet normal 0.0 0.8124871722398295 -0.582979069045987
  outer loop
    vertex -25.749999999999993 7.175071750000028 -6.965510000000035
    vertex -27.75 8.896569749999994 -4.566290000000078
    vertex -25.749999999999993 8.896569749999994 -4.566290000000078
  endloop
endfacet
facet normal 0.0 0.05924280309499306 -0.9982436026749424
  outer loop
    vertex -25.749999999999993 2.059784749999987 -9.785559999999997
    vertex -27.75 -0.8879612500000035 -9.960500000000101
    vertex -27.75 2.059784749999987 -9.785559999999997
  endloop
endfacet
facet normal 0.0 0.05924280309499306 -0.9982436026749424
  outer loop
    vertex -27.75 -0.8879612500000035 -9.960500000000101
    vertex -25.749999999999993 2.059784749999987 -9.785559999999997
    vertex -25.749999999999993 -0.8879612500000035 -9.960500000000101
  endloop
endfacet
facet normal 0.0 -0.5085321473094274 -0.861043004241288
  outer loop
    vertex -25.749999999999993 -3.7582812500000364 -9.266900000000025
    vertex -27.75 -6.300881250000058 -7.765240000000042
    vertex -27.75 -3.7582812500000364 -9.266900000000025
  endloop
endfacet
facet normal 0.0 -0.5085321473094274 -0.861043004241288
  outer loop
    vertex -27.75 -6.300881250000058 -7.765240000000042
    vertex -25.749999999999993 -3.7582812500000364 -9.266900000000025
    vertex -25.749999999999993 -6.300881250000058 -7.765240000000042
  endloop
endfacet
facet normal -1.0 1.4474893089472489e-18 -1.1872409614653116e-17
  outer loop
    vertex -27.750000000000007 -10.000001250000016 28.99580569599998
    vertex -27.75 -9.991424492411998 5.884864400423906e-06
    vertex -27.74999999999999 -10.000001250000018 26.99999999999999
  endloop
endfacet
facet normal -1.0 1.4474893089472489e-18 -1.1872409614653116e-17
  outer loop
    vertex -27.75 -9.991424492411998 5.884864400423906e-06
    vertex -27.750000000000007 -10.000001250000016 28.99580569599998
    vertex -27.750000000000007 9.999998749999977 28.995805695999973
  endloop
endfacet
facet normal -1.0 1.4474893089472489e-18 -1.1872409614653116e-17
  outer loop
    vertex -27.75 -9.991424492411998 5.884864400423906e-06
    vertex -27.750000000000007 9.999998749999977 28.995805695999973
    vertex -27.75 -9.564011250000021 -2.9205700000000667
  endloop
endfacet
facet normal -1.0 1.4474893089472489e-18 -1.1872409614653116e-17
  outer loop
    vertex -27.75 -9.564011250000021 -2.9205700000000667
    vertex -27.750000000000007 9.999998749999977 28.995805695999973
    vertex -27.75 -8.294061250000048 -5.586470000000034
  endloop
endfacet
facet normal -1.0 1.4474893089472489e-18 -1.1872409614653116e-17
  outer loop
    vertex -27.75 -8.294061250000048 -5.586470000000034
    vertex -27.750000000000007 9.999998749999977 28.995805695999973
    vertex -27.75 -6.300881250000058 -7.765240000000042
  endloop
endfacet
facet normal -1.0 1.4474893089472489e-18 -1.1872409614653116e-17
  outer loop
    vertex -27.75 -6.300881250000058 -7.765240000000042
    vertex -27.750000000000007 9.999998749999977 28.995805695999973
    vertex -27.75 -3.7582812500000364 -9.266900000000025
  endloop
endfacet
facet normal -1.0 1.4474893089472489e-18 -1.1872409614653116e-17
  outer loop
    vertex -27.75 -3.7582812500000364 -9.266900000000025
    vertex -27.750000000000007 9.999998749999977 28.995805695999973
    vertex -27.75 -0.8879612500000035 -9.960500000000101
  endloop
endfacet
facet normal -1.0 1.4474893089472489e-18 -1.1872409614653116e-17
  outer loop
    vertex -27.75 -0.8879612500000035 -9.960500000000101
    vertex -27.750000000000007 9.999998749999977 28.995805695999973
    vertex -27.75 2.059784749999987 -9.785559999999997
  endloop
endfacet
facet normal -1.0 1.4474893089472489e-18 -1.1872409614653116e-17
  outer loop
    vertex -27.75 2.059784749999987 -9.785559999999997
    vertex -27.750000000000007 9.999998749999977 28.995805695999973
    vertex -27.75 4.827920749999937 -8.757350000000034
  endloop
endfacet
facet normal -1.0 1.4474893089472489e-18 -1.1872409614653116e-17
  outer loop
    vertex -27.75 4.827920749999937 -8.757350000000034
    vertex -27.750000000000007 9.999998749999977 28.995805695999973
    vertex -27.75 7.175071750000028 -6.965510000000035
  endloop
endfacet
facet normal -1.0 1.4474893089472489e-18 -1.1872409614653116e-17
  outer loop
    vertex -27.75 7.175071750000028 -6.965510000000035
    vertex -27.750000000000007 9.999998749999977 28.995805695999973
    vertex -27.75 8.896569749999994 -4.566290000000078
  endloop
endfacet
facet normal -1.0 1.4474893089472489e-18 -1.1872409614653116e-17
  outer loop
    vertex -27.75 8.896569749999994 -4.566290000000078
    vertex -27.750000000000007 9.999998749999977 28.995805695999973
    vertex -27.75 9.646354549999886 -2.6358700000000317
  endloop
endfacet
facet normal -1.0 1.4474893089472489e-18 -1.1872409614653116e-17
  outer loop
    vertex -27.75 9.646354549999886 -2.6358700000000317
    vertex -27.750000000000007 9.999998749999977 28.995805695999973
    vertex -27.74999999999999 9.99999875000004 -3.3134606169937796e-14
  endloop
endfacet
facet normal 0.0 -0.9027982259003684 -0.4300643711250066
  outer loop
    vertex -25.749999999999993 -9.564011250000021 -2.9205700000000667
    vertex -27.75 -8.294061250000048 -5.586470000000034
    vertex -25.749999999999993 -8.294061250000048 -5.586470000000034
  endloop
endfacet
facet normal 0.0 -0.9027982259003684 -0.4300643711250066
  outer loop
    vertex -27.75 -8.294061250000048 -5.586470000000034
    vertex -25.749999999999993 -9.564011250000021 -2.9205700000000667
    vertex -27.75 -9.564011250000021 -2.9205700000000667
  endloop
endfacet
facet normal 0.0 0.34819998069465163 -0.937420275780423
  outer loop
    vertex -25.749999999999993 4.827920749999937 -8.757350000000034
    vertex -27.75 2.059784749999987 -9.785559999999997
    vertex -27.75 4.827920749999937 -8.757350000000034
  endloop
endfacet
facet normal 0.0 0.34819998069465163 -0.937420275780423
  outer loop
    vertex -27.75 2.059784749999987 -9.785559999999997
    vertex -25.749999999999993 4.827920749999937 -8.757350000000034
    vertex -25.749999999999993 2.059784749999987 -9.785559999999997
  endloop
endfacet
facet normal 0.0 0.6068002570533336 -0.7948543564955837
  outer loop
    vertex -25.749999999999993 7.175071750000028 -6.965510000000035
    vertex -27.75 4.827920749999937 -8.757350000000034
    vertex -27.75 7.175071750000028 -6.965510000000035
  endloop
endfacet
facet normal 0.0 0.6068002570533336 -0.7948543564955837
  outer loop
    vertex -27.75 4.827920749999937 -8.757350000000034
    vertex -25.749999999999993 7.175071750000028 -6.965510000000035
    vertex -25.749999999999993 4.827920749999937 -8.757350000000034
  endloop
endfacet
facet normal 0.0 0.9321569548694733 -0.3620544316652824
  outer loop
    vertex -27.75 9.646354549999886 -2.6358700000000317
    vertex -25.749999999999993 8.896569749999994 -4.566290000000078
    vertex -27.75 8.896569749999994 -4.566290000000078
  endloop
endfacet
facet normal 0.0 0.9321569548694733 -0.3620544316652824
  outer loop
    vertex -25.749999999999993 8.896569749999994 -4.566290000000078
    vertex -27.75 9.646354549999886 -2.6358700000000317
    vertex -25.749999999999993 9.646354549999886 -2.6358700000000317
  endloop
endfacet
facet normal 2.5004647894829154e-15 0.9911194515257427 -0.13297455699234798
  outer loop
    vertex -27.74999999999999 9.99999875000004 -3.3134606169937796e-14
    vertex -25.749999999999993 9.646354549999886 -2.6358700000000317
    vertex -27.75 9.646354549999886 -2.6358700000000317
  endloop
endfacet
facet normal 2.5004647894829154e-15 0.9911194515257427 -0.13297455699234798
  outer loop
    vertex -25.749999999999993 9.646354549999886 -2.6358700000000317
    vertex -27.74999999999999 9.99999875000004 -3.3134606169937796e-14
    vertex -25.749999999999993 9.99999875000003 -8.177902799388902e-14
  endloop
endfacet
facet normal 0.0 -0.7378328628185165 -0.6749834564972924
  outer loop
    vertex -25.749999999999993 -8.294061250000048 -5.586470000000034
    vertex -27.75 -6.300881250000058 -7.765240000000042
    vertex -25.749999999999993 -6.300881250000058 -7.765240000000042
  endloop
endfacet
facet normal 0.0 -0.7378328628185165 -0.6749834564972924
  outer loop
    vertex -27.75 -6.300881250000058 -7.765240000000042
    vertex -25.749999999999993 -8.294061250000048 -5.586470000000034
    vertex -27.75 -8.294061250000048 -5.586470000000034
  endloop
endfacet
facet normal 0.0 -0.23488505111550584 -0.9720231544374169
  outer loop
    vertex -25.749999999999993 -0.8879612500000035 -9.960500000000101
    vertex -27.75 -3.7582812500000364 -9.266900000000025
    vertex -27.75 -0.8879612500000035 -9.960500000000101
  endloop
endfacet
facet normal 0.0 -0.23488505111550584 -0.9720231544374169
  outer loop
    vertex -27.75 -3.7582812500000364 -9.266900000000025
    vertex -25.749999999999993 -0.8879612500000035 -9.960500000000101
    vertex -25.749999999999993 -3.7582812500000364 -9.266900000000025
  endloop
endfacet
facet normal -0.004241775350251506 -0.9890313142588163 -0.14764507021013915
  outer loop
    vertex -27.75 -9.991424492411998 5.884864400423906e-06
    vertex -25.749999999999993 -9.564011250000021 -2.9205700000000667
    vertex -25.749999999999993 -10.000001249999947 -3.2958358264778555e-14
  endloop
endfacet
facet normal -3.0673116158478306e-17 -0.9894604868268875 -0.14480312499493556
  outer loop
    vertex -27.75 -9.991424492411998 5.884864400423906e-06
    vertex -27.75 -9.564011250000021 -2.9205700000000667
    vertex -25.749999999999993 -9.564011250000021 -2.9205700000000667
  endloop
endfacet
facet normal 8.459899447643752e-15 1.0 1.4155343563970746e-15
  outer loop
    vertex -25.749999999999993 9.999998749999996 25.000000000000004
    vertex -25.749999999999993 9.99999875000003 -8.177902799388902e-14
    vertex -27.74999999999999 9.99999875000004 -3.3134606169937796e-14
  endloop
endfacet
facet normal -5.8393365128394194e-15 1.0 2.456368441983159e-15
  outer loop
    vertex -27.750000000000007 9.999998749999977 28.995805695999973
    vertex -25.749999999999993 9.999998749999996 25.000000000000004
    vertex -27.74999999999999 9.99999875000004 -3.3134606169937796e-14
  endloop
endfacet
facet normal -0.004288340080762497 -0.9999907545746445 -0.00031765482079982454
  outer loop
    vertex -27.74999999999999 -10.000001250000018 26.99999999999999
    vertex -27.75 -9.991424492411998 5.884864400423906e-06
    vertex -25.749999999999993 -10.000001249999947 -3.2958358264778555e-14
  endloop
endfacet
facet normal -0.00428834011953364 -0.999990746179138 -0.00034306720956655407
  outer loop
    vertex 25.749999999999993 -10.000001250000022 24.999999999999964
    vertex 25.749999999999993 -9.991424492411987 5.884864449420823e-06
    vertex 27.74999999999999 -10.00000124999993 1.6038559369491168e-14
  endloop
endfacet
facet normal 0.0 -1.0 2.0122792321330962e-16
  outer loop
    vertex -12.500000000000005 -10.000001250000013 44.24580569599997
    vertex -27.750000000000007 -10.000001250000016 28.99580569599998
    vertex -27.74999999999999 -10.000001250000018 26.99999999999999
  endloop
endfacet
facet normal 0.0 -1.0 2.0122792321330962e-16
  outer loop
    vertex -12.500000000000005 -10.000001250000013 44.24580569599997
    vertex -27.74999999999999 -10.000001250000018 26.99999999999999
    vertex -25.749999999999993 -10.000001250000022 24.999999999999964
  endloop
endfacet
facet normal -2.932765141849853e-15 -1.0 -2.421673972463623e-15
  outer loop
    vertex -27.74999999999999 -10.000001250000018 26.99999999999999
    vertex -25.749999999999993 -10.000001249999947 -3.2958358264778555e-14
    vertex -25.749999999999993 -10.000001250000022 24.999999999999964
  endloop
endfacet
facet normal 0.0 -1.0 2.0122792321330962e-16
  outer loop
    vertex -12.500000000000005 -10.000001250000013 44.24580569599997
    vertex -25.749999999999993 -10.000001250000022 24.999999999999964
    vertex 25.749999999999993 -10.000001250000022 24.999999999999964
  endloop
endfacet
facet normal 0.0 -1.0 2.0122792321330962e-16
  outer loop
    vertex -12.500000000000005 -10.000001250000013 44.24580569599997
    vertex 25.749999999999993 -10.000001250000022 24.999999999999964
    vertex 12.499999999999982 -10.000001250000013 44.24580569599997
  endloop
endfacet
facet normal 0.0 -1.0 2.0122792321330962e-16
  outer loop
    vertex -12.500000000000005 -10.000001250000023 99.9958056959999
    vertex -12.500000000000005 -10.000001250000013 44.24580569599997
    vertex 12.499999999999982 -10.000001250000013 44.24580569599997
  endloop
endfacet
facet normal 0.0 -1.0 2.0122792321330962e-16
  outer loop
    vertex 12.499999999999982 -10.000001250000013 44.24580569599997
    vertex 25.749999999999993 -10.000001250000022 24.999999999999964
    vertex 27.74999999999999 -10.000001250000016 28.99580569599998
  endloop
endfacet
facet normal 6.2177479055454e-15 -1.0 -2.886579864025407e-15
  outer loop
    vertex 27.74999999999999 -10.000001250000016 28.99580569599998
    vertex 25.749999999999993 -10.000001250000022 24.999999999999964
    vertex 27.74999999999999 -10.00000124999993 1.6038559369491168e-14
  endloop
endfacet
facet normal 0.0 -1.0 2.0122792321330962e-16
  outer loop
    vertex -12.500000000000005 -10.000001250000023 99.9958056959999
    vertex 12.499999999999982 -10.000001250000013 44.24580569599997
    vertex 12.499999999999982 -10.000001250000023 99.9958056959999
  endloop
endfacet
facet normal 0.0 1.0 -4.649029172813102e-16
  outer loop
    vertex -12.500000000000005 2.999998749999991 99.99580569599989
    vertex 12.499999999999982 2.9999987499999676 49.19548069599997
    vertex -12.500000000000005 2.9999987499999676 49.19548069599997
  endloop
endfacet
facet normal 0.0 1.0 -4.649029172813102e-16
  outer loop
    vertex 12.499999999999982 2.9999987499999676 49.19548069599997
    vertex -12.500000000000005 2.999998749999991 99.99580569599989
    vertex 12.499999999999982 2.999998749999991 99.99580569599989
  endloop
endfacet
endsolid Link1
