solid Single_ll
facet normal 3.130162795628223e-14 1.0 -1.945711397695694e-15
  outer loop
    vertex -2.999999999999944 2.4999999999998814 3.616909000000097
    vertex 2.0000000000012217 2.5000000000000027 146.3753359999993
    vertex 2.0000000000000258 2.4999999999997122 3.6169090000000717
  endloop
endfacet
facet normal 3.130162795628223e-14 1.0 -1.945711397695694e-15
  outer loop
    vertex 2.0000000000012217 2.5000000000000027 146.3753359999993
    vertex -2.999999999999944 2.4999999999998814 3.616909000000097
    vertex -2.9999999999986358 2.500000000000146 146.3753359999993
  endloop
endfacet
facet normal -1.663780224703335e-14 -1.0 1.4765677865761155e-15
  outer loop
    vertex 2.000000000001061 -2.5000000000001923 146.3753359999995
    vertex -3.000000000000034 -2.5000000000003197 3.6169089999999913
    vertex 1.9999999999997553 -2.5000000000004254 3.616908999999935
  endloop
endfacet
facet normal -1.663780224703335e-14 -1.0 1.4765677865761155e-15
  outer loop
    vertex -3.000000000000034 -2.5000000000003197 3.6169089999999913
    vertex 2.000000000001061 -2.5000000000001923 146.3753359999995
    vertex -2.9999999999987033 -2.5000000000001315 146.3753359999995
  endloop
endfacet
facet normal 1.0 -3.546107851803982e-13 -2.031635307585349e-15
  outer loop
    vertex 6.500000000000949 0.9999999999982361 14.616908999999923
    vertex 6.500000000000484 -1.000000000001764 135.37533599999952
    vertex 6.499999999999891 -1.000000000001764 14.616908999999923
  endloop
endfacet
facet normal 1.0 -3.546107851803982e-13 -2.031635307585349e-15
  outer loop
    vertex 6.500000000000484 -1.000000000001764 135.37533599999952
    vertex 6.500000000000949 0.9999999999982361 14.616908999999923
    vertex 6.5000000000008455 0.9999999999982361 135.37533599999952
  endloop
endfacet
facet normal 0.8411784753765531 -4.448066172644547e-13 -0.5407575913134993
  outer loop
    vertex 1.999999999999891 -1.0000000000003453 7.616908999999936
    vertex 6.500000000000949 0.9999999999982361 14.616908999999923
    vertex 6.499999999999891 -1.000000000001764 14.616908999999923
  endloop
endfacet
facet normal 0.8411784753765531 -4.448066172644547e-13 -0.5407575913134993
  outer loop
    vertex 6.500000000000949 0.9999999999982361 14.616908999999923
    vertex 1.999999999999891 -1.0000000000003453 7.616908999999936
    vertex 2.0000000000009486 0.9999999999996545 7.616908999999936
  endloop
endfacet
facet normal 3.152095868270205e-13 1.0 2.5340985401220505e-28
  outer loop
    vertex 2.000000000000845 0.9999999999996545 142.37533599999952
    vertex 6.500000000000949 0.9999999999982361 14.616908999999923
    vertex 2.0000000000009486 0.9999999999996545 7.616908999999936
  endloop
endfacet
facet normal 3.152095868270205e-13 1.0 2.5340985401220505e-28
  outer loop
    vertex 6.500000000000949 0.9999999999982361 14.616908999999923
    vertex 2.000000000000845 0.9999999999996545 142.37533599999952
    vertex 6.5000000000008455 0.9999999999982361 135.37533599999952
  endloop
endfacet
facet normal 0.8411784753765531 -1.5190568780383445e-13 0.5407575913134993
  outer loop
    vertex 6.5000000000008455 0.9999999999982361 135.37533599999952
    vertex 2.000000000000484 -1.0000000000003453 142.37533599999952
    vertex 6.500000000000484 -1.000000000001764 135.37533599999952
  endloop
endfacet
facet normal 0.8411784753765531 -1.5190568780383445e-13 0.5407575913134993
  outer loop
    vertex 2.000000000000484 -1.0000000000003453 142.37533599999952
    vertex 6.5000000000008455 0.9999999999982361 135.37533599999952
    vertex 2.000000000000845 0.9999999999996545 142.37533599999952
  endloop
endfacet
facet normal -3.152095868270205e-13 -1.0 1.4594338939233524e-27
  outer loop
    vertex 6.499999999999891 -1.000000000001764 14.616908999999923
    vertex 2.000000000000484 -1.0000000000003453 142.37533599999952
    vertex 1.999999999999891 -1.0000000000003453 7.616908999999936
  endloop
endfacet
facet normal -3.152095868270205e-13 -1.0 1.4594338939233524e-27
  outer loop
    vertex 2.000000000000484 -1.0000000000003453 142.37533599999952
    vertex 6.499999999999891 -1.000000000001764 14.616908999999923
    vertex 6.500000000000484 -1.000000000001764 135.37533599999952
  endloop
endfacet
facet normal 1.0 1.0364125715970137e-15 -3.399178777313847e-14
  outer loop
    vertex 2.0000000000014597 -4.253899999999831 148.87173599999943
    vertex 2.0000000000012848 -3.9626090000000485 151.9086359999994
    vertex 2.0000000000013185 -4.379899000000161 150.4162359999989
  endloop
endfacet
facet normal 1.0 1.0364125715970137e-15 -3.399178777313847e-14
  outer loop
    vertex 2.0000000000012848 -3.9626090000000485 151.9086359999994
    vertex 2.0000000000014597 -4.253899999999831 148.87173599999943
    vertex 2.0000000000010703 -3.6002400000000914 147.46663599999954
  endloop
endfacet
facet normal 1.0 1.0364125715970137e-15 -3.399178777313847e-14
  outer loop
    vertex 2.0000000000012848 -3.9626090000000485 151.9086359999994
    vertex 2.0000000000010703 -3.6002400000000914 147.46663599999954
    vertex 2.000000000001375 -3.053790000000133 153.16383599999935
  endloop
endfacet
facet normal 1.0 1.0364125715970137e-15 -3.399178777313847e-14
  outer loop
    vertex 2.000000000001375 -3.053790000000133 153.16383599999935
    vertex 2.0000000000010703 -3.6002400000000914 147.46663599999954
    vertex 2.000000000001061 -2.5000000000001923 146.3753359999995
  endloop
endfacet
facet normal 1.0 1.0364125715970137e-15 -3.399178777313847e-14
  outer loop
    vertex 2.000000000001375 -3.053790000000133 153.16383599999935
    vertex 2.000000000001061 -2.5000000000001923 146.3753359999995
    vertex 2.000000000001516 -1.7661749999998364 154.0261359999992
  endloop
endfacet
facet normal 1.0 1.0364125715970137e-15 -3.399178777313847e-14
  outer loop
    vertex 2.000000000001516 -1.7661749999998364 154.0261359999992
    vertex 2.000000000001061 -2.5000000000001923 146.3753359999995
    vertex 2.0000000000012217 2.5000000000000027 146.3753359999993
  endloop
endfacet
facet normal 1.0 1.0364125715970137e-15 -3.399178777313847e-14
  outer loop
    vertex 2.000000000001516 -1.7661749999998364 154.0261359999992
    vertex 2.0000000000012217 2.5000000000000027 146.3753359999993
    vertex 2.000000000001482 -0.2594799999999816 154.38843599999944
  endloop
endfacet
facet normal 1.0 1.0364125715970137e-15 -3.399178777313847e-14
  outer loop
    vertex 2.000000000001482 -0.2594799999999816 154.38843599999944
    vertex 2.0000000000012217 2.5000000000000027 146.3753359999993
    vertex 2.0000000000014597 0.25947999999970206 154.388435999999
  endloop
endfacet
facet normal 1.0 1.0364125715970137e-15 -3.399178777313847e-14
  outer loop
    vertex 2.0000000000014597 0.25947999999970206 154.388435999999
    vertex 2.0000000000012217 2.5000000000000027 146.3753359999993
    vertex 2.0000000000011946 1.7661745999994507 154.0261359999997
  endloop
endfacet
facet normal 1.0 1.0364125715970137e-15 -3.399178777313847e-14
  outer loop
    vertex 2.0000000000011946 1.7661745999994507 154.0261359999997
    vertex 2.0000000000012217 2.5000000000000027 146.3753359999993
    vertex 2.000000000001651 3.0537902000000265 153.1638359999993
  endloop
endfacet
facet normal 1.0 1.0364125715970137e-15 -3.399178777313847e-14
  outer loop
    vertex 2.000000000001651 3.0537902000000265 153.1638359999993
    vertex 2.0000000000012217 2.5000000000000027 146.3753359999993
    vertex 2.0000000000012736 3.600239999999882 147.46663599999914
  endloop
endfacet
facet normal 1.0 1.0364125715970137e-15 -3.399178777313847e-14
  outer loop
    vertex 2.000000000001651 3.0537902000000265 153.1638359999993
    vertex 2.0000000000012736 3.600239999999882 147.46663599999914
    vertex 2.0000000000012 3.9626090000001346 151.90863599999935
  endloop
endfacet
facet normal 1.0 1.0364125715970137e-15 -3.399178777313847e-14
  outer loop
    vertex 2.0000000000012 3.9626090000001346 151.90863599999935
    vertex 2.0000000000012736 3.600239999999882 147.46663599999914
    vertex 2.00000000000133 4.253900000000067 148.87173599999986
  endloop
endfacet
facet normal 1.0 1.0364125715970137e-15 -3.399178777313847e-14
  outer loop
    vertex 2.0000000000012 3.9626090000001346 151.90863599999935
    vertex 2.00000000000133 4.253900000000067 148.87173599999986
    vertex 2.000000000001161 4.379899000000051 150.416235999999
  endloop
endfacet
facet normal 1.3802552261829913e-15 0.7042164047129265 -0.709985390929419
  outer loop
    vertex 2.0000000000012736 3.600239999999882 147.46663599999914
    vertex -2.9999999999986358 2.500000000000146 146.3753359999993
    vertex -2.999999999998726 3.6002399999998715 147.46663599999926
  endloop
endfacet
facet normal 1.3802552261829913e-15 0.7042164047129265 -0.709985390929419
  outer loop
    vertex -2.9999999999986358 2.500000000000146 146.3753359999993
    vertex 2.0000000000012736 3.600239999999882 147.46663599999914
    vertex 2.0000000000012217 2.5000000000000027 146.3753359999993
  endloop
endfacet
facet normal -9.931046198830671e-15 -0.704216404712946 -0.7099853909293995
  outer loop
    vertex -2.9999999999987033 -2.5000000000001315 146.3753359999995
    vertex 2.0000000000010703 -3.6002400000000914 147.46663599999954
    vertex -2.999999999998929 -3.600240000000102 147.46663599999965
  endloop
endfacet
facet normal -9.931046198830671e-15 -0.704216404712946 -0.7099853909293995
  outer loop
    vertex 2.0000000000010703 -3.6002400000000914 147.46663599999954
    vertex -2.9999999999987033 -2.5000000000001315 146.3753359999995
    vertex 2.000000000001061 -2.5000000000001923 146.3753359999995
  endloop
endfacet
facet normal -6.675381799393186e-15 -0.9066902367655257 -0.42179712487649224
  outer loop
    vertex 2.0000000000014597 -4.253899999999831 148.87173599999943
    vertex -2.999999999998929 -3.600240000000102 147.46663599999965
    vertex 2.0000000000010703 -3.6002400000000914 147.46663599999954
  endloop
endfacet
facet normal -6.675381799393186e-15 -0.9066902367655257 -0.42179712487649224
  outer loop
    vertex -2.999999999998929 -3.600240000000102 147.46663599999965
    vertex 2.0000000000014597 -4.253899999999831 148.87173599999943
    vertex -2.99999999999854 -4.253899999999842 148.87173599999954
  endloop
endfacet
facet normal 6.937372558289751e-16 -0.9966889385857901 -0.08130903824748806
  outer loop
    vertex 2.0000000000013185 -4.379899000000161 150.4162359999989
    vertex -2.99999999999854 -4.253899999999842 148.87173599999954
    vertex 2.0000000000014597 -4.253899999999831 148.87173599999943
  endloop
endfacet
facet normal 6.937372558289751e-16 -0.9966889385857901 -0.08130903824748806
  outer loop
    vertex -2.99999999999854 -4.253899999999842 148.87173599999954
    vertex 2.0000000000013185 -4.379899000000161 150.4162359999989
    vertex -2.9999999999986806 -4.379899000000171 150.416235999999
  endloop
endfacet
facet normal 7.977170191778751e-15 -0.963061471395639 0.2692816412480938
  outer loop
    vertex 2.0000000000012848 -3.9626090000000485 151.9086359999994
    vertex -2.9999999999986806 -4.379899000000171 150.416235999999
    vertex 2.0000000000013185 -4.379899000000161 150.4162359999989
  endloop
endfacet
facet normal 7.977170191778751e-15 -0.963061471395639 0.2692816412480938
  outer loop
    vertex -2.9999999999986806 -4.379899000000171 150.416235999999
    vertex 2.0000000000012848 -3.9626090000000485 151.9086359999994
    vertex -2.999999999998715 -3.962609000000059 151.90863599999952
  endloop
endfacet
facet normal 1.4270887044243573e-14 -0.8099785773256334 0.5864594651581159
  outer loop
    vertex 2.000000000001375 -3.053790000000133 153.16383599999935
    vertex -2.999999999998715 -3.962609000000059 151.90863599999952
    vertex 2.0000000000012848 -3.9626090000000485 151.9086359999994
  endloop
endfacet
facet normal 1.4270887044243573e-14 -0.8099785773256334 0.5864594651581159
  outer loop
    vertex -2.999999999998715 -3.962609000000059 151.90863599999952
    vertex 2.000000000001375 -3.053790000000133 153.16383599999935
    vertex -2.999999999998624 -3.0537900000001454 153.16383599999946
  endloop
endfacet
facet normal 1.8794407759853382e-14 -0.5564368120881885 0.830889929023775
  outer loop
    vertex 2.000000000001375 -3.053790000000133 153.16383599999935
    vertex -2.9999999999984834 -1.7661749999998488 154.02613599999933
    vertex -2.999999999998624 -3.0537900000001454 153.16383599999946
  endloop
endfacet
facet normal 1.8794407759853382e-14 -0.5564368120881885 0.830889929023775
  outer loop
    vertex -2.9999999999984834 -1.7661749999998488 154.02613599999933
    vertex 2.000000000001375 -3.053790000000133 153.16383599999935
    vertex 2.000000000001516 -1.7661749999998364 154.0261359999992
  endloop
endfacet
facet normal 2.0987087329144218e-14 -0.23379589659670838 0.9722856981024361
  outer loop
    vertex -2.9999999999984834 -1.7661749999998488 154.02613599999933
    vertex 2.000000000001482 -0.2594799999999816 154.38843599999944
    vertex -2.999999999998517 -0.2594799999999937 154.38843599999956
  endloop
endfacet
facet normal 2.0987087329144218e-14 -0.23379589659670838 0.9722856981024361
  outer loop
    vertex 2.000000000001482 -0.2594799999999816 154.38843599999944
    vertex -2.9999999999984834 -1.7661749999998488 154.02613599999933
    vertex 2.000000000001516 -1.7661749999998364 154.0261359999992
  endloop
endfacet
facet normal 2.1005876421314385e-14 9.128918781184215e-13 1.0
  outer loop
    vertex -2.999999999998517 -0.2594799999999937 154.38843599999956
    vertex 2.0000000000014597 0.25947999999970206 154.388435999999
    vertex -2.99999999999854 0.25947999999968996 154.3884359999991
  endloop
endfacet
facet normal 2.1005876421314385e-14 9.128918781184215e-13 1.0
  outer loop
    vertex 2.0000000000014597 0.25947999999970206 154.388435999999
    vertex -2.999999999998517 -0.2594799999999937 154.38843599999956
    vertex 2.000000000001482 -0.2594799999999816 154.38843599999944
  endloop
endfacet
facet normal 1.9860338674200164e-14 0.23379595527200134 0.9722856839933685
  outer loop
    vertex -2.99999999999854 0.25947999999968996 154.3884359999991
    vertex 2.0000000000011946 1.7661745999994507 154.0261359999997
    vertex -2.999999999998805 1.7661745999994383 154.0261359999998
  endloop
endfacet
facet normal 1.9860338674200164e-14 0.23379595527200134 0.9722856839933685
  outer loop
    vertex 2.0000000000011946 1.7661745999994507 154.0261359999997
    vertex -2.99999999999854 0.25947999999968996 154.3884359999991
    vertex 2.0000000000014597 0.25947999999970206 154.388435999999
  endloop
endfacet
facet normal 1.6112737527218875e-14 0.5564366330821837 0.8308900489018769
  outer loop
    vertex 2.0000000000011946 1.7661745999994507 154.0261359999997
    vertex -2.999999999998348 3.0537902000000146 153.1638359999994
    vertex -2.999999999998805 1.7661745999994383 154.0261359999998
  endloop
endfacet
facet normal 1.6112737527218875e-14 0.5564366330821837 0.8308900489018769
  outer loop
    vertex -2.999999999998348 3.0537902000000146 153.1638359999994
    vertex 2.0000000000011946 1.7661745999994507 154.0261359999997
    vertex 2.000000000001651 3.0537902000000265 153.1638359999993
  endloop
endfacet
facet normal 1.0367301131875205e-14 0.8099786386314534 0.5864593804866093
  outer loop
    vertex -2.999999999998799 3.962609000000124 151.90863599999946
    vertex 2.000000000001651 3.0537902000000265 153.1638359999993
    vertex 2.0000000000012 3.9626090000001346 151.90863599999935
  endloop
endfacet
facet normal 1.0367301131875205e-14 0.8099786386314534 0.5864593804866093
  outer loop
    vertex 2.000000000001651 3.0537902000000265 153.1638359999993
    vertex -2.999999999998799 3.962609000000124 151.90863599999946
    vertex -2.999999999998348 3.0537902000000146 153.1638359999994
  endloop
endfacet
facet normal 3.3358235653928866e-15 0.9630614713956632 0.26928164124800663
  outer loop
    vertex -2.9999999999988387 4.379899000000041 150.41623599999912
    vertex 2.0000000000012 3.9626090000001346 151.90863599999935
    vertex 2.000000000001161 4.379899000000051 150.416235999999
  endloop
endfacet
facet normal 3.3358235653928866e-15 0.9630614713956632 0.26928164124800663
  outer loop
    vertex 2.0000000000012 3.9626090000001346 151.90863599999935
    vertex -2.9999999999988387 4.379899000000041 150.41623599999912
    vertex -2.999999999998799 3.962609000000124 151.90863599999946
  endloop
endfacet
facet normal -4.109672474550361e-15 0.9966889385858068 -0.08130903824728193
  outer loop
    vertex -2.9999999999986695 4.253900000000057 148.87173599999997
    vertex 2.000000000001161 4.379899000000051 150.416235999999
    vertex 2.00000000000133 4.253900000000067 148.87173599999986
  endloop
endfacet
facet normal -4.109672474550361e-15 0.9966889385858068 -0.08130903824728193
  outer loop
    vertex 2.000000000001161 4.379899000000051 150.416235999999
    vertex -2.9999999999986695 4.253900000000057 148.87173599999997
    vertex -2.9999999999988387 4.379899000000041 150.41623599999912
  endloop
endfacet
facet normal -1.104505476065188e-14 0.9066902367655116 -0.4217971248765222
  outer loop
    vertex -2.999999999998726 3.6002399999998715 147.46663599999926
    vertex 2.00000000000133 4.253900000000067 148.87173599999986
    vertex 2.0000000000012736 3.600239999999882 147.46663599999914
  endloop
endfacet
facet normal -1.104505476065188e-14 0.9066902367655116 -0.4217971248765222
  outer loop
    vertex 2.00000000000133 4.253900000000067 148.87173599999986
    vertex -2.999999999998726 3.6002399999998715 147.46663599999926
    vertex -2.9999999999986695 4.253900000000057 148.87173599999997
  endloop
endfacet
facet normal -1.0 -2.4096834751668972e-15 2.1005876421316585e-14
  outer loop
    vertex -2.999999999998715 -3.962609000000059 151.90863599999952
    vertex -2.99999999999854 -4.253899999999842 148.87173599999954
    vertex -2.9999999999986806 -4.379899000000171 150.416235999999
  endloop
endfacet
facet normal -1.0 -2.4096834751668972e-15 2.1005876421316585e-14
  outer loop
    vertex -2.99999999999854 -4.253899999999842 148.87173599999954
    vertex -2.999999999998715 -3.962609000000059 151.90863599999952
    vertex -2.999999999998929 -3.600240000000102 147.46663599999965
  endloop
endfacet
facet normal -1.0 -2.4096834751668972e-15 2.1005876421316585e-14
  outer loop
    vertex -2.999999999998929 -3.600240000000102 147.46663599999965
    vertex -2.999999999998715 -3.962609000000059 151.90863599999952
    vertex -2.999999999998624 -3.0537900000001454 153.16383599999946
  endloop
endfacet
facet normal -1.0 -2.4096834751668972e-15 2.1005876421316585e-14
  outer loop
    vertex -2.999999999998929 -3.600240000000102 147.46663599999965
    vertex -2.999999999998624 -3.0537900000001454 153.16383599999946
    vertex -2.9999999999987033 -2.5000000000001315 146.3753359999995
  endloop
endfacet
facet normal -1.0 -2.4096834751668972e-15 2.1005876421316585e-14
  outer loop
    vertex -2.9999999999987033 -2.5000000000001315 146.3753359999995
    vertex -2.999999999998624 -3.0537900000001454 153.16383599999946
    vertex -2.9999999999984834 -1.7661749999998488 154.02613599999933
  endloop
endfacet
facet normal -1.0 -2.4096834751668972e-15 2.1005876421316585e-14
  outer loop
    vertex -2.9999999999987033 -2.5000000000001315 146.3753359999995
    vertex -2.9999999999984834 -1.7661749999998488 154.02613599999933
    vertex -2.9999999999986358 2.500000000000146 146.3753359999993
  endloop
endfacet
facet normal -1.0 -2.4096834751668972e-15 2.1005876421316585e-14
  outer loop
    vertex -2.9999999999986358 2.500000000000146 146.3753359999993
    vertex -2.9999999999984834 -1.7661749999998488 154.02613599999933
    vertex -2.999999999998517 -0.2594799999999937 154.38843599999956
  endloop
endfacet
facet normal -1.0 -2.4096834751668972e-15 2.1005876421316585e-14
  outer loop
    vertex -2.9999999999986358 2.500000000000146 146.3753359999993
    vertex -2.999999999998517 -0.2594799999999937 154.38843599999956
    vertex -2.99999999999854 0.25947999999968996 154.3884359999991
  endloop
endfacet
facet normal -1.0 -2.4096834751668972e-15 2.1005876421316585e-14
  outer loop
    vertex -2.9999999999986358 2.500000000000146 146.3753359999993
    vertex -2.99999999999854 0.25947999999968996 154.3884359999991
    vertex -2.999999999998805 1.7661745999994383 154.0261359999998
  endloop
endfacet
facet normal -1.0 -2.4096834751668972e-15 2.1005876421316585e-14
  outer loop
    vertex -2.9999999999986358 2.500000000000146 146.3753359999993
    vertex -2.999999999998805 1.7661745999994383 154.0261359999998
    vertex -2.999999999998348 3.0537902000000146 153.1638359999994
  endloop
endfacet
facet normal -1.0 -2.4096834751668972e-15 2.1005876421316585e-14
  outer loop
    vertex -2.9999999999986358 2.500000000000146 146.3753359999993
    vertex -2.999999999998348 3.0537902000000146 153.1638359999994
    vertex -2.999999999998726 3.6002399999998715 147.46663599999926
  endloop
endfacet
facet normal -1.0 -2.4096834751668972e-15 2.1005876421316585e-14
  outer loop
    vertex -2.999999999998726 3.6002399999998715 147.46663599999926
    vertex -2.999999999998348 3.0537902000000146 153.1638359999994
    vertex -2.999999999998799 3.962609000000124 151.90863599999946
  endloop
endfacet
facet normal -1.0 -2.4096834751668972e-15 2.1005876421316585e-14
  outer loop
    vertex -2.999999999998726 3.6002399999998715 147.46663599999926
    vertex -2.999999999998799 3.962609000000124 151.90863599999946
    vertex -2.9999999999986695 4.253900000000057 148.87173599999997
  endloop
endfacet
facet normal -1.0 -2.4096834751668972e-15 2.1005876421316585e-14
  outer loop
    vertex -2.9999999999986695 4.253900000000057 148.87173599999997
    vertex -2.999999999998799 3.962609000000124 151.90863599999946
    vertex -2.9999999999988387 4.379899000000041 150.41623599999912
  endloop
endfacet
facet normal -2.255973186037506e-15 4.2863490534726054e-14 1.0
  outer loop
    vertex 2.000000000001061 -2.5000000000001923 146.3753359999995
    vertex -2.9999999999986358 2.500000000000146 146.3753359999993
    vertex -2.9999999999987033 -2.5000000000001315 146.3753359999995
  endloop
endfacet
facet normal -2.255973186037506e-15 4.2863490534726054e-14 1.0
  outer loop
    vertex -2.9999999999986358 2.500000000000146 146.3753359999993
    vertex 2.000000000001061 -2.5000000000001923 146.3753359999995
    vertex 2.0000000000012217 2.5000000000000027 146.3753359999993
  endloop
endfacet
facet normal -8.021153643966194e-16 0.9630614713956422 -0.2692816412480821
  outer loop
    vertex -3.0000000000001004 4.379898999999923 -0.42399099999941015
    vertex 1.9999999999998153 3.9626089999998455 -1.9163909999998865
    vertex -3.0000000000001945 3.96260899999983 -1.9163909999999345
  endloop
endfacet
facet normal -8.021153643966194e-16 0.9630614713956422 -0.2692816412480821
  outer loop
    vertex 1.9999999999998153 3.9626089999998455 -1.9163909999998865
    vertex -3.0000000000001004 4.379898999999923 -0.42399099999941015
    vertex 1.9999999999999025 4.379898999999934 -0.4239909999993922
  endloop
endfacet
facet normal 1.1449102828854458e-15 0.9066902367655274 0.42179712487648824
  outer loop
    vertex -3.0000000000002207 3.6002399999998835 2.525608999999915
    vertex 2.0000000000001097 4.2538999999995974 1.1205090000000402
    vertex -2.999999999999894 4.2538999999996 1.1205090000000275
  endloop
endfacet
facet normal 1.1449102828854458e-15 0.9066902367655274 0.42179712487648824
  outer loop
    vertex 2.0000000000001097 4.2538999999995974 1.1205090000000402
    vertex -3.0000000000002207 3.6002399999998835 2.525608999999915
    vertex 1.9999999999997784 3.600239999999857 2.525608999999939
  endloop
endfacet
facet normal -1.0 1.2016601409746941e-15 9.644837915710113e-15
  outer loop
    vertex -2.9999999999999827 -4.253900000000261 1.1205089999995523
    vertex -3.000000000000241 -3.962609000000317 -1.9163909999998645
    vertex -3.0000000000002167 -4.379899000000246 -0.4239909999995501
  endloop
endfacet
facet normal -1.0 1.2016601409746941e-15 9.644837915710113e-15
  outer loop
    vertex -3.000000000000241 -3.962609000000317 -1.9163909999998645
    vertex -2.9999999999999827 -4.253900000000261 1.1205089999995523
    vertex -2.999999999999983 -3.6002400000000585 2.525609000000293
  endloop
endfacet
facet normal -1.0 1.2016601409746941e-15 9.644837915710113e-15
  outer loop
    vertex -3.000000000000241 -3.962609000000317 -1.9163909999998645
    vertex -2.999999999999983 -3.6002400000000585 2.525609000000293
    vertex -2.9999999999998472 -3.0537902000002486 -3.1715909999997955
  endloop
endfacet
facet normal -1.0 1.2016601409746941e-15 9.644837915710113e-15
  outer loop
    vertex -2.9999999999998472 -3.0537902000002486 -3.1715909999997955
    vertex -2.999999999999983 -3.6002400000000585 2.525609000000293
    vertex -3.000000000000034 -2.5000000000003197 3.6169089999999913
  endloop
endfacet
facet normal -1.0 1.2016601409746941e-15 9.644837915710113e-15
  outer loop
    vertex -2.9999999999998472 -3.0537902000002486 -3.1715909999997955
    vertex -3.000000000000034 -2.5000000000003197 3.6169089999999913
    vertex -3.0000000000003464 -1.766174599999666 -4.033891000000223
  endloop
endfacet
facet normal -1.0 1.2016601409746941e-15 9.644837915710113e-15
  outer loop
    vertex -3.0000000000003464 -1.766174599999666 -4.033891000000223
    vertex -3.000000000000034 -2.5000000000003197 3.6169089999999913
    vertex -2.9999999999987033 -2.5000000000001315 146.3753359999995
  endloop
endfacet
facet normal -1.0 1.2016601409746941e-15 9.644837915710113e-15
  outer loop
    vertex -3.0000000000003464 -1.766174599999666 -4.033891000000223
    vertex -2.9999999999987033 -2.5000000000001315 146.3753359999995
    vertex -2.9999999999986358 2.500000000000146 146.3753359999993
  endloop
endfacet
facet normal -1.0 1.2016601409746941e-15 9.644837915710113e-15
  outer loop
    vertex -3.0000000000003464 -1.766174599999666 -4.033891000000223
    vertex -2.9999999999986358 2.500000000000146 146.3753359999993
    vertex -3.000000000000104 -0.2594799999998996 -4.3961909999995115
  endloop
endfacet
facet normal -1.0 1.2016601409746941e-15 9.644837915710113e-15
  outer loop
    vertex -3.000000000000104 -0.2594799999998996 -4.3961909999995115
    vertex -2.9999999999986358 2.500000000000146 146.3753359999993
    vertex -3.000000000000084 0.25947999999975296 -4.396190999999956
  endloop
endfacet
facet normal -1.0 1.2016601409746941e-15 9.644837915710113e-15
  outer loop
    vertex -3.000000000000084 0.25947999999975296 -4.396190999999956
    vertex -2.9999999999986358 2.500000000000146 146.3753359999993
    vertex -3.0000000000000426 1.7661749999996406 -4.033890999999742
  endloop
endfacet
facet normal -1.0 1.2016601409746941e-15 9.644837915710113e-15
  outer loop
    vertex -3.0000000000000426 1.7661749999996406 -4.033890999999742
    vertex -2.9999999999986358 2.500000000000146 146.3753359999993
    vertex -2.999999999999944 2.4999999999998814 3.616909000000097
  endloop
endfacet
facet normal -1.0 1.2016601409746941e-15 9.644837915710113e-15
  outer loop
    vertex -2.999999999999944 2.4999999999998814 3.616909000000097
    vertex -3.000000000000153 3.053789999999927 -3.171590999999844
    vertex -3.0000000000000426 1.7661749999996406 -4.033890999999742
  endloop
endfacet
facet normal -1.0 1.2016601409746941e-15 9.644837915710113e-15
  outer loop
    vertex -3.000000000000153 3.053789999999927 -3.171590999999844
    vertex -2.999999999999944 2.4999999999998814 3.616909000000097
    vertex -3.0000000000002207 3.6002399999998835 2.525608999999915
  endloop
endfacet
facet normal -1.0 1.2016601409746941e-15 9.644837915710113e-15
  outer loop
    vertex -3.000000000000153 3.053789999999927 -3.171590999999844
    vertex -3.0000000000002207 3.6002399999998835 2.525608999999915
    vertex -3.0000000000001945 3.96260899999983 -1.9163909999999345
  endloop
endfacet
facet normal -1.0 1.2016601409746941e-15 9.644837915710113e-15
  outer loop
    vertex -3.0000000000001945 3.96260899999983 -1.9163909999999345
    vertex -3.0000000000002207 3.6002399999998835 2.525608999999915
    vertex -2.999999999999894 4.2538999999996 1.1205090000000275
  endloop
endfacet
facet normal -1.0 1.2016601409746941e-15 9.644837915710113e-15
  outer loop
    vertex -3.0000000000001945 3.96260899999983 -1.9163909999999345
    vertex -2.999999999999894 4.2538999999996 1.1205090000000275
    vertex -3.0000000000001004 4.379898999999923 -0.42399099999941015
  endloop
endfacet
facet normal 1.2254300280032719e-14 -0.5564366330821967 -0.8308900489018681
  outer loop
    vertex 1.999999999999639 -1.7661745999996492 -4.033891000000161
    vertex -2.9999999999998472 -3.0537902000002486 -3.1715909999997955
    vertex -3.0000000000003464 -1.766174599999666 -4.033891000000223
  endloop
endfacet
facet normal 1.2254300280032719e-14 -0.5564366330821967 -0.8308900489018681
  outer loop
    vertex -2.9999999999998472 -3.0537902000002486 -3.1715909999997955
    vertex 1.999999999999639 -1.7661745999996492 -4.033891000000161
    vertex 2.0000000000001337 -3.0537902000002144 -3.171590999999743
  endloop
endfacet
facet normal 2.0204922948222907e-15 0.8099785773256307 -0.5864594651581192
  outer loop
    vertex -3.0000000000001945 3.96260899999983 -1.9163909999999345
    vertex 1.9999999999998503 3.0537899999999523 -3.1715909999998013
    vertex -3.000000000000153 3.053789999999927 -3.171590999999844
  endloop
endfacet
facet normal 2.0204922948222907e-15 0.8099785773256307 -0.5864594651581192
  outer loop
    vertex 1.9999999999998503 3.0537899999999523 -3.1715909999998013
    vertex -3.0000000000001945 3.96260899999983 -1.9163909999999345
    vertex 1.9999999999998153 3.9626089999998455 -1.9163909999998865
  endloop
endfacet
facet normal 9.446887716538485e-15 -8.843640069272452e-13 -1.0
  outer loop
    vertex -3.000000000000084 0.25947999999975296 -4.396190999999956
    vertex 1.99999999999988 -0.2594799999998996 -4.39619099999945
    vertex -3.000000000000104 -0.2594799999998996 -4.3961909999995115
  endloop
endfacet
facet normal 9.446887716538485e-15 -8.843640069272452e-13 -1.0
  outer loop
    vertex 1.99999999999988 -0.2594799999998996 -4.39619099999945
    vertex -3.000000000000084 0.25947999999975296 -4.396190999999956
    vertex 1.9999999999998999 0.2594799999997868 -4.396190999999923
  endloop
endfacet
facet normal 1.7122161548048104e-14 -0.9066902367655063 0.42179712487653376
  outer loop
    vertex 1.9999999999999745 -4.25390000000017 1.1205089999995566
    vertex -2.999999999999983 -3.6002400000000585 2.525609000000293
    vertex -2.9999999999999827 -4.253900000000261 1.1205089999995523
  endloop
endfacet
facet normal 1.7122161548048104e-14 -0.9066902367655063 0.42179712487653376
  outer loop
    vertex -2.999999999999983 -3.6002400000000585 2.525609000000293
    vertex 1.9999999999999745 -4.25390000000017 1.1205089999995566
    vertex 1.9999999999999858 -3.600239999999968 2.5256090000002707
  endloop
endfacet
facet normal 4.494359468366371e-15 -0.7042164047129043 0.709985390929441
  outer loop
    vertex -2.999999999999983 -3.6002400000000585 2.525609000000293
    vertex 1.9999999999997553 -2.5000000000004254 3.616908999999935
    vertex -3.000000000000034 -2.5000000000003197 3.6169089999999913
  endloop
endfacet
facet normal 4.494359468366371e-15 -0.7042164047129043 0.709985390929441
  outer loop
    vertex 1.9999999999997553 -2.5000000000004254 3.616908999999935
    vertex -2.999999999999983 -3.6002400000000585 2.525609000000293
    vertex 1.9999999999999858 -3.600239999999968 2.5256090000002707
  endloop
endfacet
facet normal 1.0 -8.69194036288121e-15 -8.515430663090874e-15
  outer loop
    vertex 1.99999999999988 -0.2594799999998996 -4.39619099999945
    vertex 1.999999999999891 -1.0000000000003453 7.616908999999936
    vertex 1.999999999999639 -1.7661745999996492 -4.033891000000161
  endloop
endfacet
facet normal 1.0 -8.69194036288121e-15 -8.515430663090874e-15
  outer loop
    vertex 1.999999999999891 -1.0000000000003453 7.616908999999936
    vertex 1.99999999999988 -0.2594799999998996 -4.39619099999945
    vertex 2.0000000000009486 0.9999999999996545 7.616908999999936
  endloop
endfacet
facet normal 1.0 -8.69194036288121e-15 -8.515430663090874e-15
  outer loop
    vertex 2.0000000000009486 0.9999999999996545 7.616908999999936
    vertex 1.99999999999988 -0.2594799999998996 -4.39619099999945
    vertex 1.9999999999998999 0.2594799999997868 -4.396190999999923
  endloop
endfacet
facet normal 1.0 -8.69194036288121e-15 -8.515430663090874e-15
  outer loop
    vertex 2.0000000000009486 0.9999999999996545 7.616908999999936
    vertex 1.9999999999998999 0.2594799999997868 -4.396190999999923
    vertex 1.9999999999999518 1.7661749999996517 -4.033890999999684
  endloop
endfacet
facet normal 1.0 -8.69194036288121e-15 -8.515430663090874e-15
  outer loop
    vertex 2.0000000000009486 0.9999999999996545 7.616908999999936
    vertex 1.9999999999999518 1.7661749999996517 -4.033890999999684
    vertex 2.000000000000845 0.9999999999996545 142.37533599999952
  endloop
endfacet
facet normal 1.0 -8.69194036288121e-15 -8.515430663090874e-15
  outer loop
    vertex 1.9999999999998503 3.0537899999999523 -3.1715909999998013
    vertex 2.0000000000000258 2.4999999999997122 3.6169090000000717
    vertex 1.9999999999999518 1.7661749999996517 -4.033890999999684
  endloop
endfacet
facet normal 1.0 -8.69194036288121e-15 -8.515430663090874e-15
  outer loop
    vertex 2.0000000000000258 2.4999999999997122 3.6169090000000717
    vertex 1.9999999999998503 3.0537899999999523 -3.1715909999998013
    vertex 1.9999999999997784 3.600239999999857 2.525608999999939
  endloop
endfacet
facet normal 1.0 -8.69194036288121e-15 -8.515430663090874e-15
  outer loop
    vertex 1.9999999999997784 3.600239999999857 2.525608999999939
    vertex 1.9999999999998503 3.0537899999999523 -3.1715909999998013
    vertex 1.9999999999998153 3.9626089999998455 -1.9163909999998865
  endloop
endfacet
facet normal 1.0 -8.69194036288121e-15 -8.515430663090874e-15
  outer loop
    vertex 1.9999999999997784 3.600239999999857 2.525608999999939
    vertex 1.9999999999998153 3.9626089999998455 -1.9163909999998865
    vertex 2.0000000000001097 4.2538999999995974 1.1205090000000402
  endloop
endfacet
facet normal 1.0 -8.69194036288121e-15 -8.515430663090874e-15
  outer loop
    vertex 2.0000000000001097 4.2538999999995974 1.1205090000000402
    vertex 1.9999999999998153 3.9626089999998455 -1.9163909999998865
    vertex 1.9999999999999025 4.379898999999934 -0.4239909999993922
  endloop
endfacet
facet normal 1.0 -8.69194036288121e-15 -8.515430663090874e-15
  outer loop
    vertex 1.9999999999997375 -3.9626090000002607 -1.9163909999998088
    vertex 1.9999999999999745 -4.25390000000017 1.1205089999995566
    vertex 1.9999999999997489 -4.3798990000001785 -0.4239909999995082
  endloop
endfacet
facet normal 1.0 -8.69194036288121e-15 -8.515430663090874e-15
  outer loop
    vertex 1.9999999999999745 -4.25390000000017 1.1205089999995566
    vertex 1.9999999999997375 -3.9626090000002607 -1.9163909999998088
    vertex 1.9999999999999858 -3.600239999999968 2.5256090000002707
  endloop
endfacet
facet normal 1.0 -8.69194036288121e-15 -8.515430663090874e-15
  outer loop
    vertex 1.9999999999999858 -3.600239999999968 2.5256090000002707
    vertex 1.9999999999997375 -3.9626090000002607 -1.9163909999998088
    vertex 2.0000000000001337 -3.0537902000002144 -3.171590999999743
  endloop
endfacet
facet normal 1.0 -8.69194036288121e-15 -8.515430663090874e-15
  outer loop
    vertex 1.9999999999999858 -3.600239999999968 2.5256090000002707
    vertex 2.0000000000001337 -3.0537902000002144 -3.171590999999743
    vertex 1.9999999999997553 -2.5000000000004254 3.616908999999935
  endloop
endfacet
facet normal 1.0 -8.69194036288121e-15 -8.515430663090874e-15
  outer loop
    vertex 1.9999999999997553 -2.5000000000004254 3.616908999999935
    vertex 2.0000000000001337 -3.0537902000002144 -3.171590999999743
    vertex 1.999999999999639 -1.7661745999996492 -4.033891000000161
  endloop
endfacet
facet normal 1.0 -8.69194036288121e-15 -8.515430663090874e-15
  outer loop
    vertex 1.9999999999997553 -2.5000000000004254 3.616908999999935
    vertex 1.999999999999639 -1.7661745999996492 -4.033891000000161
    vertex 2.000000000001061 -2.5000000000001923 146.3753359999995
  endloop
endfacet
facet normal 1.0 -8.69194036288121e-15 -8.515430663090874e-15
  outer loop
    vertex 2.000000000001061 -2.5000000000001923 146.3753359999995
    vertex 1.999999999999639 -1.7661745999996492 -4.033891000000161
    vertex 2.000000000000484 -1.0000000000003453 142.37533599999952
  endloop
endfacet
facet normal 1.0 -8.69194036288121e-15 -8.515430663090874e-15
  outer loop
    vertex 2.000000000001061 -2.5000000000001923 146.3753359999995
    vertex 2.000000000000484 -1.0000000000003453 142.37533599999952
    vertex 2.0000000000012217 2.5000000000000027 146.3753359999993
  endloop
endfacet
facet normal 1.0 -8.69194036288121e-15 -8.515430663090874e-15
  outer loop
    vertex 2.000000000000484 -1.0000000000003453 142.37533599999952
    vertex 1.999999999999639 -1.7661745999996492 -4.033891000000161
    vertex 1.999999999999891 -1.0000000000003453 7.616908999999936
  endloop
endfacet
facet normal 1.0 -8.69194036288121e-15 -8.515430663090874e-15
  outer loop
    vertex 2.0000000000012217 2.5000000000000027 146.3753359999993
    vertex 2.000000000000484 -1.0000000000003453 142.37533599999952
    vertex 2.000000000000845 0.9999999999996545 142.37533599999952
  endloop
endfacet
facet normal 1.0 -8.69194036288121e-15 -8.515430663090874e-15
  outer loop
    vertex 2.0000000000012217 2.5000000000000027 146.3753359999993
    vertex 2.000000000000845 0.9999999999996545 142.37533599999952
    vertex 1.9999999999999518 1.7661749999996517 -4.033890999999684
  endloop
endfacet
facet normal 1.0 -8.69194036288121e-15 -8.515430663090874e-15
  outer loop
    vertex 2.0000000000012217 2.5000000000000027 146.3753359999993
    vertex 1.9999999999999518 1.7661749999996517 -4.033890999999684
    vertex 2.0000000000000258 2.4999999999997122 3.6169090000000717
  endloop
endfacet
facet normal -1.0926413606334558e-15 0.99668893858579 0.08130903824748809
  outer loop
    vertex -2.999999999999894 4.2538999999996 1.1205090000000275
    vertex 1.9999999999999025 4.379898999999934 -0.4239909999993922
    vertex -3.0000000000001004 4.379898999999923 -0.42399099999941015
  endloop
endfacet
facet normal -1.0926413606334558e-15 0.99668893858579 0.08130903824748809
  outer loop
    vertex 1.9999999999999025 4.379898999999934 -0.4239909999993922
    vertex -2.999999999999894 4.2538999999996 1.1205090000000275
    vertex 2.0000000000001097 4.2538999999995974 1.1205090000000402
  endloop
endfacet
facet normal 1.3908526257003262e-14 0.7042164047129194 0.7099853909294259
  outer loop
    vertex -2.999999999999944 2.4999999999998814 3.616909000000097
    vertex 1.9999999999997784 3.600239999999857 2.525608999999939
    vertex -3.0000000000002207 3.6002399999998835 2.525608999999915
  endloop
endfacet
facet normal 1.3908526257003262e-14 0.7042164047129194 0.7099853909294259
  outer loop
    vertex 1.9999999999997784 3.600239999999857 2.525608999999939
    vertex -2.999999999999944 2.4999999999998814 3.616909000000097
    vertex 2.0000000000000258 2.4999999999997122 3.6169090000000717
  endloop
endfacet
facet normal 7.853862719263469e-15 0.2337958965966983 -0.9722856981024384
  outer loop
    vertex -3.0000000000000426 1.7661749999996406 -4.033890999999742
    vertex 1.9999999999998999 0.2594799999997868 -4.396190999999923
    vertex -3.000000000000084 0.25947999999975296 -4.396190999999956
  endloop
endfacet
facet normal 7.853862719263469e-15 0.2337958965966983 -0.9722856981024384
  outer loop
    vertex 1.9999999999998999 0.2594799999997868 -4.396190999999923
    vertex -3.0000000000000426 1.7661749999996406 -4.033890999999742
    vertex 1.9999999999999518 1.7661749999996517 -4.033890999999684
  endloop
endfacet
facet normal 6.3403137239905294e-15 0.5564368120881963 -0.83088992902377
  outer loop
    vertex 1.9999999999998503 3.0537899999999523 -3.1715909999998013
    vertex -3.0000000000000426 1.7661749999996406 -4.033890999999742
    vertex -3.000000000000153 3.053789999999927 -3.171590999999844
  endloop
endfacet
facet normal 6.3403137239905294e-15 0.5564368120881963 -0.83088992902377
  outer loop
    vertex -3.0000000000000426 1.7661749999996406 -4.033890999999742
    vertex 1.9999999999998503 3.0537899999999523 -3.1715909999998013
    vertex 1.9999999999999518 1.7661749999996517 -4.033890999999684
  endloop
endfacet
facet normal 1.2256773034717862e-14 -0.2337959552719993 -0.9722856839933689
  outer loop
    vertex -3.000000000000104 -0.2594799999998996 -4.3961909999995115
    vertex 1.999999999999639 -1.7661745999996492 -4.033891000000161
    vertex -3.0000000000003464 -1.766174599999666 -4.033891000000223
  endloop
endfacet
facet normal 1.2256773034717862e-14 -0.2337959552719993 -0.9722856839933689
  outer loop
    vertex 1.999999999999639 -1.7661745999996492 -4.033891000000161
    vertex -3.000000000000104 -0.2594799999998996 -4.3961909999995115
    vertex 1.99999999999988 -0.2594799999998996 -4.39619099999945
  endloop
endfacet
facet normal 1.4576755690688342e-14 -0.9630614713956608 -0.26928164124801585
  outer loop
    vertex 1.9999999999997375 -3.9626090000002607 -1.9163909999998088
    vertex -3.0000000000002167 -4.379899000000246 -0.4239909999995501
    vertex -3.000000000000241 -3.962609000000317 -1.9163909999998645
  endloop
endfacet
facet normal 1.4576755690688342e-14 -0.9630614713956608 -0.26928164124801585
  outer loop
    vertex -3.0000000000002167 -4.379899000000246 -0.4239909999995501
    vertex 1.9999999999997375 -3.9626090000002607 -1.9163909999998088
    vertex 1.9999999999997489 -4.3798990000001785 -0.4239909999995082
  endloop
endfacet
facet normal 1.5363865451408458e-14 -0.9966889385858059 0.08130903824729316
  outer loop
    vertex 1.9999999999997489 -4.3798990000001785 -0.4239909999995082
    vertex -2.9999999999999827 -4.253900000000261 1.1205089999995523
    vertex -3.0000000000002167 -4.379899000000246 -0.4239909999995501
  endloop
endfacet
facet normal 1.5363865451408458e-14 -0.9966889385858059 0.08130903824729316
  outer loop
    vertex -2.9999999999999827 -4.253900000000261 1.1205089999995523
    vertex 1.9999999999997489 -4.3798990000001785 -0.4239909999995082
    vertex 1.9999999999999745 -4.25390000000017 1.1205089999995566
  endloop
endfacet
facet normal 1.3631594627695188e-14 -0.8099786386314665 -0.5864593804865911
  outer loop
    vertex 2.0000000000001337 -3.0537902000002144 -3.171590999999743
    vertex -3.000000000000241 -3.962609000000317 -1.9163909999998645
    vertex -2.9999999999998472 -3.0537902000002486 -3.1715909999997955
  endloop
endfacet
facet normal 1.3631594627695188e-14 -0.8099786386314665 -0.5864593804865911
  outer loop
    vertex -3.000000000000241 -3.962609000000317 -1.9163909999998645
    vertex 2.0000000000001337 -3.0537902000002144 -3.171590999999743
    vertex 1.9999999999997375 -3.9626090000002607 -1.9163909999998088
  endloop
endfacet
endsolid Single_ll
